<?xml version="1.0" encoding="utf-8"?>
<!-- Generator: Adobe Illustrator 19.2.0, SVG Export Plug-In . SVG Version: 6.00 Build 0)  -->
<svg version="1.1" id="_x31_4" xmlns="http://www.w3.org/2000/svg" xmlns:xlink="http://www.w3.org/1999/xlink" x="0px" y="0px"
	 viewBox="0 0 27.3 14.6" style="enable-background:new 0 0 27.3 14.6;" xml:space="preserve">
<style type="text/css">
	.st0{fill-rule:evenodd;clip-rule:evenodd;fill:#F7F7F7;}
</style>
<g>
	<path class="st0" d="M0.6,6.5H0.4v3h0.3C0.6,9.4,0.5,9.2,0.5,9.1C0.4,8.8,0.4,8.5,0.4,8.3c0-0.3,0-0.6,0.1-1
		C0.5,7.1,0.6,6.9,0.6,6.5L0.6,6.5z M26.9,6.7L26.9,6.7h-0.3c0,0.2,0.1,0.4,0.1,0.6c0.1,0.3,0.1,0.6,0.1,1c0,0.3,0,0.6-0.1,0.9
		c0,0.2-0.1,0.3-0.1,0.5h0.3V6.7z M13.3,7.6L13.3,7.6c0-0.1,0-0.1,0-0.1C13.2,7.5,13.3,7.5,13.3,7.6L13.3,7.6z M9.3,12.8L9.3,12.8
		c0.1,0.1,0.2,0.1,0.3,0.2c0.4,0.3,1,0.5,1.5,0.7c0.8,0.2,1.5,0.4,2.4,0.4c0.8,0,1.6-0.2,2.3-0.4c0.2,0,0.5-0.1,0.8-0.2l0,0v-0.1
		h0.1l0,0l0,0h0.1c0.2-0.2,0.5-0.3,0.8-0.5c-0.6-0.3-1.2-0.8-1.8-1.3c-0.7-0.6-1.2-1.4-1.7-2.5c0,0,0-0.1-0.1-0.3l-0.1-0.2
		c-0.1-0.3-0.2-0.5-0.3-0.7c-0.1,0.3-0.3,0.6-0.5,1.2c-0.4,1.1-1,1.8-1.7,2.5C10.6,12,10.1,12.4,9.3,12.8L9.3,12.8z M1.5,8.3
		L1.5,8.3c0,1.1,0.6,2.1,1.7,2.9c0.7,0.7,1.6,1,2.6,1.2c0.9,0.2,1.9,0.2,2.9-0.1c1.4-0.4,2.6-1.5,3.5-3.5c0.5-1.4,0.9-2,1.4-1.8
		c0.2,0.1,0.4,0.6,0.8,1.5l0.3,0.5c0.9,1.9,2.3,3,3.8,3.4c1,0.3,2,0.4,3,0.1c1-0.1,1.8-0.5,2.6-1.2c1-0.8,1.6-1.8,1.6-3
		c0-2-1.4-4-3.5-5.3C20,1.6,17,0.7,13.5,0.7C10.2,0.7,7.2,1.6,5,3C2.9,4.3,1.5,6.2,1.5,8.3L1.5,8.3z M4.8,2.6L4.8,2.6
		C2.5,4.1,1.1,6,1.1,8.3c0,1.2,0.8,2.4,1.8,3.3c0.8,0.5,1.7,1,2.8,1.3c1,0.2,2,0.1,3.1-0.2c1.5-0.4,2.9-1.7,3.9-3.8
		c0.4-1.2,0.7-1.6,0.8-1.6c0.1,0,0.3,0.4,0.5,1.2L14.3,9c1,2,2.4,3.3,4,3.8c1.1,0.3,2.3,0.4,3.3,0.2c1-0.2,1.9-0.8,2.8-1.3
		c1.1-0.9,1.7-2.1,1.7-3.4c0-2.3-1.4-4.2-3.8-5.7c-2.3-1.4-5.4-2.3-8.8-2.3C10.2,0.3,7.1,1.2,4.8,2.6L4.8,2.6z M17.9,13.1L17.9,13.1
		c-0.5,0.4-1.2,0.9-2,1.2c-0.6,0.2-1.5,0.3-2.4,0.3c-1,0-1.7-0.1-2.5-0.3c-0.9-0.3-1.5-0.8-2-1.2L8.9,13l0,0
		c-0.5,0.1-1.1,0.2-1.6,0.2c-0.7,0.1-1.2,0-1.7-0.1c-0.5-0.1-1-0.2-1.5-0.5c-0.4-0.2-0.9-0.4-1.3-0.7c-0.6-0.5-1.2-1.1-1.5-1.7l0,0
		H1.1H0.2H0V9.9V6.3V6.1h0.2h0.9h0.1C1.4,5.8,1.6,5.4,1.8,5C2.5,4,3.4,3.1,4.6,2.4C5.8,1.6,7.2,1,8.8,0.6C10.2,0.2,11.9,0,13.5,0
		c1.7,0,3.3,0.2,4.8,0.6c1.6,0.3,3,1,4.2,1.7C23.7,3.1,24.7,4,25.4,5c0.3,0.3,0.4,0.8,0.7,1.2h0.2h0.9h0.2v0.2v3.4v0.2h-0.2h-0.9
		h-0.3v0.1c-0.3,0.7-0.9,1.2-1.4,1.7c-0.3,0.3-0.9,0.5-1.3,0.9c-0.5,0.2-1.1,0.3-1.6,0.4c-0.5,0.1-1.2,0.2-1.7,0.1
		c-0.5,0-1.1-0.1-1.6-0.2C18.2,13.1,18,13,18,13L17.9,13.1z"/>
</g>
</svg>
