<?xml version="1.0" encoding="utf-8"?>
<!-- Generator: Adobe Illustrator 19.2.0, SVG Export Plug-In . SVG Version: 6.00 Build 0)  -->
<svg version="1.1" id="Layer_1" xmlns="http://www.w3.org/2000/svg" xmlns:xlink="http://www.w3.org/1999/xlink" x="0px" y="0px"
	 viewBox="0 0 409.6 409.6" style="enable-background:new 0 0 409.6 409.6;" xml:space="preserve">
<style type="text/css">
	.st0{fill:#A5D2F0;}
	.st1{fill:#6E9BE0;}
	.st2{fill:#5C83CE;}
	.st3{fill:#87B4F0;}
	.st4{fill:#FFD7AF;}
	.st5{fill:#FF5050;}
	.st6{fill:#B43C3C;}
	.st7{fill:#643C46;}
</style>
<g>
	<path class="st0" d="M204.8,0c113.1,0,204.8,91.7,204.8,204.8c0,14.5-1.5,28.7-4.4,42.4H4.4C1.5,233.5,0,219.3,0,204.8
		C0,91.7,91.7,0,204.8,0L204.8,0z M204.8,0"/>
	<path class="st1" d="M204.8,409.6C91.7,409.6,0,317.9,0,204.8h409.6C409.6,317.9,317.9,409.6,204.8,409.6L204.8,409.6z
		 M204.8,409.6"/>
	<path class="st2" d="M409.6,204.8c0,2.4-0.1,4.7-0.2,7.1H0.2c-0.1-2.4-0.2-4.7-0.2-7.1c0-2.4,0.1-4.7,0.2-7.1h409.2
		C409.5,200.1,409.6,202.4,409.6,204.8L409.6,204.8z M409.6,204.8"/>
	<path class="st2" d="M310.7,289.5H346c3.9,0,7.1-3.2,7.1-7.1c0-3.9-3.2-7.1-7.1-7.1h-35.3c-3.9,0-7.1,3.2-7.1,7.1
		C303.7,286.4,306.8,289.5,310.7,289.5L310.7,289.5z M310.7,289.5"/>
	<path class="st2" d="M233,289.5h49.4c3.9,0,7.1-3.2,7.1-7.1c0-3.9-3.2-7.1-7.1-7.1H233c-3.9,0-7.1,3.2-7.1,7.1
		C226,286.4,229.1,289.5,233,289.5L233,289.5z M233,289.5"/>
	<path class="st3" d="M155.4,289.5h35.3c3.9,0,7.1-3.2,7.1-7.1c0-3.9-3.2-7.1-7.1-7.1h-35.3c-3.9,0-7.1,3.2-7.1,7.1
		C148.3,286.4,151.5,289.5,155.4,289.5L155.4,289.5z M155.4,289.5"/>
	<path class="st2" d="M49.4,261.3h120.1c3.9,0,7.1-3.2,7.1-7.1c0-3.9-3.2-7.1-7.1-7.1H49.4c-3.9,0-7.1,3.2-7.1,7.1
		C42.4,258.1,45.5,261.3,49.4,261.3L49.4,261.3z M49.4,261.3"/>
	<path class="st2" d="M190.7,261.3h105.9c3.9,0,7.1-3.2,7.1-7.1c0-3.9-3.2-7.1-7.1-7.1H190.7c-3.9,0-7.1,3.2-7.1,7.1
		C183.6,258.1,186.8,261.3,190.7,261.3L190.7,261.3z M190.7,261.3"/>
	<path class="st2" d="M324.9,261.3h7.1c3.9,0,7.1-3.2,7.1-7.1c0-3.9-3.2-7.1-7.1-7.1h-7.1c-3.9,0-7.1,3.2-7.1,7.1
		C317.8,258.1,321,261.3,324.9,261.3L324.9,261.3z M324.9,261.3"/>
	<path class="st2" d="M204.8,374.3h42.4c3.9,0,7.1-3.2,7.1-7.1c0-3.9-3.2-7.1-7.1-7.1h-42.4c-3.9,0-7.1,3.2-7.1,7.1
		C197.7,371.1,200.9,374.3,204.8,374.3L204.8,374.3z M204.8,374.3"/>
	<path class="st3" d="M120.1,289.5h7.1c3.9,0,7.1-3.2,7.1-7.1c0-3.9-3.2-7.1-7.1-7.1h-7.1c-3.9,0-7.1,3.2-7.1,7.1
		C113,286.4,116.2,289.5,120.1,289.5L120.1,289.5z M120.1,289.5"/>
	<path class="st2" d="M176.6,346h35.3c3.9,0,7.1-3.2,7.1-7.1c0-3.9-3.2-7.1-7.1-7.1h-35.3c-3.9,0-7.1,3.2-7.1,7.1
		C169.5,342.9,172.7,346,176.6,346L176.6,346z M176.6,346"/>
	<path class="st2" d="M141.2,346h7.1c3.9,0,7.1-3.2,7.1-7.1c0-3.9-3.2-7.1-7.1-7.1h-7.1c-3.9,0-7.1,3.2-7.1,7.1
		C134.2,342.9,137.3,346,141.2,346L141.2,346z M141.2,346"/>
	<path class="st3" d="M204.8,317.8H226c3.9,0,7.1-3.2,7.1-7.1c0-3.9-3.2-7.1-7.1-7.1h-21.2c-3.9,0-7.1,3.2-7.1,7.1
		C197.7,314.6,200.9,317.8,204.8,317.8L204.8,317.8z M204.8,317.8"/>
	<path class="st3" d="M70.6,317.8h21.2c3.9,0,7.1-3.2,7.1-7.1c0-3.9-3.2-7.1-7.1-7.1H70.6c-3.9,0-7.1,3.2-7.1,7.1
		C63.6,314.6,66.7,317.8,70.6,317.8L70.6,317.8z M70.6,317.8"/>
	<path class="st3" d="M84.7,289.5h7.1c3.9,0,7.1-3.2,7.1-7.1c0-3.9-3.2-7.1-7.1-7.1h-7.1c-3.9,0-7.1,3.2-7.1,7.1
		C77.7,286.4,80.8,289.5,84.7,289.5L84.7,289.5z M84.7,289.5"/>
	<path class="st3" d="M261.3,346h28.2c3.9,0,7.1-3.2,7.1-7.1c0-3.9-3.2-7.1-7.1-7.1h-28.2c-3.9,0-7.1,3.2-7.1,7.1
		C254.2,342.9,257.4,346,261.3,346L261.3,346z M261.3,346"/>
	<path class="st3" d="M254.2,317.8h7.1c3.9,0,7.1-3.2,7.1-7.1c0-3.9-3.2-7.1-7.1-7.1h-7.1c-3.9,0-7.1,3.2-7.1,7.1
		C247.2,314.6,250.3,317.8,254.2,317.8L254.2,317.8z M254.2,317.8"/>
	<path class="st4" d="M359.4,131.9l-9.9-14l-18.1-11.9h-37.7l-115.4,12.8c-7.3,0.8-13.5,5.4-16.5,12.1l-39.6,89.1l-54.5,27.2h105.9
		l28.2-91.8l99.6-28.1l12.8,11l23.5,11.2l4.9-3.9L329,134.2v-7.1l20.9,13.1c1.4,0.9,3.2,0.9,4.6,0l3.6-2.1
		C360.2,136.8,360.8,133.9,359.4,131.9L359.4,131.9z M359.4,131.9"/>
	<path class="st4" d="M294.1,247.2c4.1-11.6,3.2-24.9-3.6-36.1v0c-12.1-19.9-38.3-26.3-58.2-14.2l-18.1,11
		c-14,8.5-21.3,24-20.2,39.4H294.1z M294.1,247.2"/>
	<path class="st5" d="M294.1,247.2c4.1-11.6,3.2-24.9-3.6-36.1c-12.1-19.9-38.3-26.3-58.2-14.2l-3,1.8l29.5,48.6H294.1z
		 M294.1,247.2"/>
	<path class="st6" d="M267,247.2l-31.6-52.1c-1,0.5-2.1,1.1-3.1,1.7l-9.1,5.5l27.2,44.9H267z M267,247.2"/>
	<path class="st7" d="M225.8,233.8l-3.7-6c-3-5-1.4-11.5,3.6-14.6c5-3,11.5-1.4,14.6,3.6l3.7,6c3,5,1.4,11.5-3.6,14.6
		C235.4,240.4,228.8,238.8,225.8,233.8L225.8,233.8z M225.8,233.8"/>
	<path class="st7" d="M258.7,247.2l-0.2-0.2c-3-5-9.5-6.6-14.5-3.6c-1.6,1-2.8,2.3-3.7,3.8H258.7z M258.7,247.2"/>
</g>
</svg>
