<?xml version="1.0" encoding="utf-8"?>
<!-- Generator: Adobe Illustrator 19.2.0, SVG Export Plug-In . SVG Version: 6.00 Build 0)  -->
<svg version="1.1" id="Layer_1" xmlns="http://www.w3.org/2000/svg" xmlns:xlink="http://www.w3.org/1999/xlink" x="0px" y="0px"
	 viewBox="0 0 369.8 129" style="enable-background:new 0 0 369.8 129;" xml:space="preserve">
<style type="text/css">
	.st0{clip-path:url(#SVGID_2_);fill:#F6F6F6;}
</style>
<g>
	<defs>
		<rect id="SVGID_1_" width="369.8" height="129"/>
	</defs>
	<clipPath id="SVGID_2_">
		<use xlink:href="#SVGID_1_"  style="overflow:visible;"/>
	</clipPath>
	<path class="st0" d="M369.3,118.4c-0.9-2.5-3.7-3.7-6.2-2.8c-15,5.7-31.5,4.6-45.4-2.6c6.8-8.8,10.4-19.4,10.4-30.6
		c0-27.8-22.6-50.4-50.4-50.4c-14.7,0-27.9,6.3-37.1,16.4L215.1,14C207.4,3.6,194.7-1.6,182,0.4l-52.3,8.3
		c-12.2,1.9-20.7,13.5-18.9,25.7c0.9,6.1,4.1,11.5,9.1,15.1s11.1,5.1,17.1,4l44.5-7.5l7.9,10.6c2.4,3.3,3.1,7.3,1.9,11.2
		c-1.2,3.9-4.1,6.8-8,8.1c-31.4,10.4-90.4,30.2-106.9,35.8c-3.1-1.8-6-3.8-8.7-6.2c-1.8-1.6-4.5-1.6-6.3,0
		c-15.1,13.1-36.2,17.1-55,10.6c-2.5-0.9-5.2,0.5-6.1,3s0.5,5.2,3,6.1c20.8,7.2,43.9,3.4,61.3-9.9C76,124,90,128.8,104.4,128.8
		s28.4-4.8,39.8-13.5c11.4,8.7,25.4,13.5,39.8,13.5c14.4,0,28.4-4.8,39.8-13.5c11.4,8.7,25.4,13.5,39.8,13.5
		c14.4,0,28.4-4.8,39.8-13.5c11.6,8.8,25.6,13.5,39.8,13.5c7.8,0,15.7-1.4,23.2-4.2C369,123.6,370.2,120.9,369.3,118.4L369.3,118.4z
		 M220.7,105.5c-10.2,8.8-23.2,13.7-36.7,13.7s-26.5-4.9-36.7-13.7c-1.8-1.6-4.5-1.6-6.3,0c-10.2,8.8-23.2,13.7-36.7,13.7
		c-5,0-9.9-0.7-14.7-2c20.1-6.7,68.1-22.8,96.6-32.2c6.8-2.2,12-7.5,14.1-14.3c2.2-6.9,0.9-14.1-3.4-19.8l-9.7-13
		c-1.1-1.4-2.9-2.2-4.6-1.9l-47.4,8c-3.5,0.6-7-0.2-9.9-2.3s-4.7-5.2-5.3-8.7c-1-7.1,3.9-13.7,10.9-14.8l52.3-8.3
		c9.2-1.5,18.4,2.3,23.9,9.8l27.1,36.7c-4.6,7.6-7.2,16.5-7.2,26c0,11.1,3.7,21.7,10.2,30.3c-3.7-2-7.3-4.4-10.5-7.2
		C225.2,104,222.5,104,220.7,105.5L220.7,105.5z M300.3,105.5c-10.2,8.8-23.2,13.7-36.7,13.7c-1.3,0-2.6-0.1-3.8-0.1
		c-13.9-6.8-22.9-21.1-22.9-36.7c0-22.5,18.3-40.8,40.8-40.8s40.8,18.3,40.8,40.8c0,9.3-3,18-8.8,25.3c-0.1,0.1-0.1,0.1-0.2,0.2
		c-1-0.7-2-1.5-2.9-2.3C304.8,104,302.1,104,300.3,105.5L300.3,105.5z"/>
</g>
</svg>
