<?xml version="1.0" encoding="utf-8"?>
<!-- Generator: Adobe Illustrator 19.2.0, SVG Export Plug-In . SVG Version: 6.00 Build 0)  -->
<svg version="1.1" id="_x31_4" xmlns="http://www.w3.org/2000/svg" xmlns:xlink="http://www.w3.org/1999/xlink" x="0px" y="0px"
	 viewBox="0 0 27.3 18.3" style="enable-background:new 0 0 27.3 18.3;" xml:space="preserve">
<style type="text/css">
	.st0{fill-rule:evenodd;clip-rule:evenodd;fill:#F7F7F7;}
</style>
<g>
	<path class="st0" d="M24.8,5.8c3.2,0,3.3,5.6,0,5.6c-0.1,0.4-0.3,0.8-0.5,1.1c-0.3,0.3-0.6,0.5-1.1,0.7l-1.1,0.4l-1.3,2.9
		c-0.3,0.5-0.6,1-1.1,1.3c-0.5,0.3-1.1,0.4-1.6,0.4c-0.1,0-0.2,0-0.3,0c-0.1,0-0.3,0-0.3,0c-0.1,0-0.1,0-0.1,0l0,0
		c-0.1-0.1-2.5-1.1-3.8-1.1c-0.4,0-1.1,0.1-1.6,0.3c-1.1,0.2-2.2,0.6-2.2,0.8H9.8l0,0c-0.7,0.1-1.4,0-1.9-0.2
		c-0.6-0.3-1.2-0.9-1.4-1.5l-1.3-2.9L4,13.2c-0.3-0.2-0.8-0.4-1-0.7c-0.3-0.3-0.4-0.7-0.5-1.1c-3.2,0-3.3-5.6,0-5.6
		c0.1-0.7,0.4-1.2,0.9-1.7c0.5-0.4,1.1-0.8,1.7-1l0.9-1.6C6.1,1.1,6.4,0.7,7,0.3C7.3,0.1,7.9,0,8.5,0h10.3c0.5,0,1.1,0.1,1.5,0.3
		c0.4,0.3,0.9,0.8,1.1,1.2l0.7,1.6c0.6,0.2,1.3,0.5,1.7,1C24.3,4.6,24.6,5.2,24.8,5.8L24.8,5.8z M25.7,10.4L25.7,10.4h-1V6.8h1V10.4
		z M1.6,6.8L1.6,6.8h0.9v3.6H1.6V6.8z M12.6,13.6L12.6,13.6l0.1-3.5l0.8-1.9c0.1-0.1,0.1-0.1,0.2-0.1c0,0,0.1,0,0.1,0.1l0.8,1.9
		l0.1,3.5H12.6z M23.8,10.6L23.8,10.6c0,0.6-0.3,1.3-1.1,1.6l-4,1.6C18.5,14,18.4,14,18.1,14c-0.7,0-1.4-0.4-1.7-1.1l-1.9-5
		c-0.1-0.3-0.5-0.5-0.9-0.5c-0.4,0-0.8,0.2-0.9,0.5l-2,5C10.4,13.5,9.9,14,9.1,14c-0.2,0-0.4,0-0.6-0.1l-4.1-1.6
		c-0.6-0.3-1.1-1-1.1-1.6V6.8C3.3,5.3,4.6,4,6.1,4h14.9c1.6,0,2.8,1.3,2.8,2.8V10.6z M19.9,16.2L19.9,16.2c-0.4,0.8-1.3,1.3-2.1,1
		c-0.3,0-2.7-1-4.1-1c-1.5,0-3.9,1-4.2,1c-0.9,0.3-1.7-0.2-2.1-1l-1-2.4l1.8,0.8c0.3,0.1,0.7,0.2,1,0.2c1.1,0,1.9-0.7,2.4-1.6
		l0.3-0.7l-0.1,1.9h0.2h0.6h2.1h0.4h0.3l0,0v-1.9l0.2,0.7c0.4,1,1.4,1.6,2.5,1.6c0.3,0,0.7-0.1,0.9-0.2l1.8-0.8L19.9,16.2z M6.1,4.4
		L6.1,4.4h14.9c0.6,0,1.3,0.2,1.7,0.7c0.4,0.4,0.8,1.1,0.8,1.7v3.9c0,0.2-0.1,0.5-0.3,0.7c-0.1,0.2-0.3,0.3-0.5,0.4l-4.1,1.7
		c-0.1,0-0.1,0-0.2,0c-0.1,0-0.2,0-0.2,0c-0.3,0-0.6,0-0.7-0.2c-0.2-0.1-0.4-0.3-0.5-0.5l-0.2-0.6l-0.8-1.9l-1.1-2.5
		c-0.1-0.3-0.2-0.4-0.4-0.6c-0.2-0.1-0.5-0.2-0.8-0.2c-0.3,0-0.5,0.1-0.8,0.2c-0.2,0.2-0.4,0.3-0.5,0.6l-1.9,5
		c-0.1,0.2-0.3,0.4-0.5,0.5c-0.2,0.2-0.5,0.2-0.8,0.2c-0.1,0-0.2,0-0.2,0c-0.1,0-0.2,0-0.3,0l-4-1.7c-0.3-0.1-0.5-0.2-0.6-0.4
		c-0.1-0.2-0.2-0.5-0.2-0.7V6.8c0-0.6,0.2-1.3,0.6-1.7C4.8,4.6,5.5,4.4,6.1,4.4L6.1,4.4z M21.1,4.7L21.1,4.7c0.5,0,1.1,0.3,1.5,0.6
		c0.3,0.3,0.5,0.9,0.5,1.4v3.9c0,0.2-0.1,0.3-0.2,0.5c0,0.1-0.2,0.2-0.3,0.3l-4.1,1.6c-0.1,0-0.1,0.1-0.2,0.1c-0.1,0-0.1,0-0.1,0
		c-0.2,0-0.4-0.1-0.5-0.2c-0.2-0.1-0.3-0.2-0.4-0.4L17,11.9l-0.7-1.8l0,0l-1-2.5c-0.1-0.3-0.3-0.7-0.7-0.9c-0.3-0.2-0.6-0.3-1-0.3
		c-0.4,0-0.8,0.1-1,0.3C12.3,7,12.1,7.3,12,7.6l-2,4.9c-0.1,0.2-0.2,0.3-0.3,0.4c-0.2,0.1-0.3,0.2-0.5,0.2c-0.1,0-0.1,0-0.2,0
		l-0.1-0.1l-4.1-1.6c-0.2-0.1-0.3-0.2-0.4-0.3c-0.1-0.2-0.1-0.3-0.1-0.5V6.8c0-0.5,0.2-1.1,0.5-1.4C5,5.1,5.6,4.7,6.1,4.7H21.1z
		 M6.8,2L6.8,2C7.1,1.4,7.7,1,8.5,1h10.3c0.6,0,1.4,0.4,1.7,1.1l0.5,1.1H6.2L6.8,2z M24.6,6.2L24.6,6.2h-0.1L24.4,6
		c-0.1-0.6-0.4-1.2-0.9-1.6c-0.4-0.4-1-0.7-1.6-1h-0.1V3.3l-0.7-1.6c-0.2-0.4-0.5-0.8-1-1c-0.4-0.3-0.9-0.4-1.3-0.4H8.5
		c-0.5,0-1,0.1-1.4,0.4C6.8,1,6.4,1.3,6.2,1.7L5.4,3.3v0.1H5.3C4.6,3.7,4.1,4,3.6,4.4C3.2,4.8,2.9,5.4,2.8,6v0.2H2.6
		c-3,0-3,4.7,0,4.7h0.1l0.1,0.2c0.1,0.3,0.2,0.6,0.5,1c0.2,0.3,0.5,0.5,0.9,0.6l1.2,0.4l0.1,0.1l1.3,3.1c0.2,0.5,0.7,1,1.2,1.2
		c0.5,0.3,1.1,0.3,1.7,0.2c0,0,1.2-0.4,2.3-0.8c0.6-0.1,1.2-0.2,1.7-0.2c1.4,0,3.8,1,3.9,1l0,0c0.1,0,0.2,0,0.3,0
		c0.1,0,0.2,0.1,0.3,0.1c0.4,0,1-0.2,1.3-0.4c0.4-0.3,0.8-0.6,1-1.1l1.4-3.1l0.1-0.1l1.1-0.4c0.4-0.1,0.8-0.3,1-0.6
		c0.2-0.3,0.4-0.6,0.5-1V11h0.1C27.7,11,27.6,6.2,24.6,6.2L24.6,6.2z"/>
</g>
</svg>
