<?xml version="1.0" encoding="utf-8"?>
<!-- Generator: Adobe Illustrator 19.2.0, SVG Export Plug-In . SVG Version: 6.00 Build 0)  -->
<svg version="1.1" id="Layer_1" xmlns="http://www.w3.org/2000/svg" xmlns:xlink="http://www.w3.org/1999/xlink" x="0px" y="0px"
	 viewBox="0 0 409.6 409.6" style="enable-background:new 0 0 409.6 409.6;" xml:space="preserve">
<style type="text/css">
	.st0{fill:#BEEBFF;}
	.st1{fill:#D9F3FF;}
	.st2{fill:#EBF9FF;}
	.st3{fill:#FFEBA5;}
	.st4{fill:#FFE191;}
	.st5{fill:#FFF5B4;}
	.st6{fill:#65A1FF;}
	.st7{fill:#3769D2;}
	.st8{fill:#558CFF;}
	.st9{fill:#467AE8;}
	.st10{fill:#FFEB50;}
	.st11{fill:#FFFFFF;}
	.st12{fill:#D2EBFA;}
	.st13{fill:#FFD750;}
	.st14{fill:#FFCD78;}
</style>
<g>
	<path class="st0" d="M409.6,204.8c0,113.1-91.7,204.8-204.8,204.8C91.7,409.6,0,317.9,0,204.8C0,91.7,91.7,0,204.8,0
		C317.9,0,409.6,91.7,409.6,204.8L409.6,204.8z M409.6,204.8"/>
	<path class="st1" d="M84.7,155.4H42.4c-3.9,0-7.1-3.2-7.1-7.1c0-3.9,3.2-7.1,7.1-7.1h42.4c3.9,0,7.1,3.2,7.1,7.1
		C91.8,152.2,88.6,155.4,84.7,155.4L84.7,155.4z M84.7,155.4"/>
	<path class="st1" d="M113,141.2H70.6c-3.9,0-7.1-3.2-7.1-7.1c0-3.9,3.2-7.1,7.1-7.1H113c3.9,0,7.1,3.2,7.1,7.1
		C120.1,138.1,116.9,141.2,113,141.2L113,141.2z M113,141.2"/>
	<path class="st1" d="M353.1,218.9h-21.2c-3.9,0-7.1-3.2-7.1-7.1c0-3.9,3.2-7.1,7.1-7.1h21.2c3.9,0,7.1,3.2,7.1,7.1
		C360.2,215.8,357,218.9,353.1,218.9L353.1,218.9z M353.1,218.9"/>
	<path class="st1" d="M367.2,204.8H346c-3.9,0-7.1-3.2-7.1-7.1c0-3.9,3.2-7.1,7.1-7.1h21.2c3.9,0,7.1,3.2,7.1,7.1
		C374.3,201.6,371.1,204.8,367.2,204.8L367.2,204.8z M367.2,204.8"/>
	<path class="st1" d="M105.9,218.9H63.6c-3.9,0-7.1-3.2-7.1-7.1c0-3.9,3.2-7.1,7.1-7.1h42.4c3.9,0,7.1,3.2,7.1,7.1
		C113,215.8,109.8,218.9,105.9,218.9L105.9,218.9z M105.9,218.9"/>
	<path class="st1" d="M339,169.5h-7.1c-3.9,0-7.1-3.2-7.1-7.1c0-3.9,3.2-7.1,7.1-7.1h7.1c3.9,0,7.1,3.2,7.1,7.1
		C346,166.3,342.9,169.5,339,169.5L339,169.5z M339,169.5"/>
	<path class="st2" d="M233,42.4h-28.2c-3.9,0-7.1-3.2-7.1-7.1c0-3.9,3.2-7.1,7.1-7.1H233c3.9,0,7.1,3.2,7.1,7.1
		C240.1,39.2,236.9,42.4,233,42.4L233,42.4z M233,42.4"/>
	<path class="st2" d="M176.6,42.4h-14.1c-3.9,0-7.1-3.2-7.1-7.1c0-3.9,3.2-7.1,7.1-7.1h14.1c3.9,0,7.1,3.2,7.1,7.1
		C183.6,39.2,180.5,42.4,176.6,42.4L176.6,42.4z M176.6,42.4"/>
	<path class="st2" d="M268.4,56.5H226c-3.9,0-7.1-3.2-7.1-7.1c0-3.9,3.2-7.1,7.1-7.1h42.4c3.9,0,7.1,3.2,7.1,7.1
		C275.4,53.3,272.3,56.5,268.4,56.5L268.4,56.5z M268.4,56.5"/>
	<path class="st2" d="M331.9,127.1h-49.4c-3.9,0-7.1-3.2-7.1-7.1c0-3.9,3.2-7.1,7.1-7.1h49.4c3.9,0,7.1,3.2,7.1,7.1
		C339,124,335.8,127.1,331.9,127.1L331.9,127.1z M331.9,127.1"/>
	<path class="st2" d="M346,113h-28.2c-3.9,0-7.1-3.2-7.1-7.1c0-3.9,3.2-7.1,7.1-7.1H346c3.9,0,7.1,3.2,7.1,7.1
		C353.1,109.8,349.9,113,346,113L346,113z M346,113"/>
	<path class="st3" d="M6,254.2c22.1,89.2,102.7,155.4,198.8,155.4c96.1,0,176.6-66.1,198.8-155.4H6z M6,254.2"/>
	<path class="st4" d="M204.8,409.6c90.9,0,167.8-59.2,194.6-141.1c-26-1-29.9,6.9-60.4,6.9c-33.5,0-37.1-14.1-70.6-14.1H148.3
		c-31.8,0-55.3,14.1-77.7,14.1c-28,0-40.3-10.6-61.5-10.6C34.8,348.6,112.6,409.6,204.8,409.6L204.8,409.6z M204.8,409.6"/>
	<path class="st5" d="M204.8,409.6c80.2,0,149.5-46.2,183.1-113.3c-44.2,0-57.3-13.8-84.2-13.8c-30.5,0-61.8,28.2-91.8,28.2
		c-28.3,0-43-28.2-127.1-28.2c-18.9,0-43.6,7.5-64.1,11.5C53.8,362.4,123.7,409.6,204.8,409.6L204.8,409.6z M204.8,409.6"/>
	<path class="st4" d="M381.4,303.7c-33.5,0-46.5,21.2-91.8,21.2c-45.3,0-60-35.3-120.1-35.3c-38.6,0-88.3,30.1-130.8,34.7
		c37.2,51.6,97.7,85.4,166.2,85.4c77.2,0,144.3-42.8,179.2-105.8C383.1,303.7,382.3,303.7,381.4,303.7L381.4,303.7z M381.4,303.7"/>
	<path class="st3" d="M332.3,365c-28.7-10.1-47.2-15.4-71-4.8c-37.4,16.6-87,33.9-120.1,14.1c-34-20.3-57.1-30-77.2-21.1
		c36.7,34.9,86.2,56.4,140.8,56.4C253,409.6,297.4,392.9,332.3,365L332.3,365z M332.3,365"/>
	<path class="st6" d="M317.8,183.6c0,62.4-50.6,113-113,113c-62.4,0-113-50.6-113-113c0-62.4,50.6-113,113-113
		C267.2,70.6,317.8,121.2,317.8,183.6L317.8,183.6z M317.8,183.6"/>
	<path class="st7" d="M164.9,223.6c-37.2-37.2-42.9-93.9-17.4-137.2c-8,4.7-15.7,10.4-22.6,17.4c-44.1,44.1-44.1,115.7,0,159.8
		c44.1,44.1,115.7,44.1,159.8,0c6.9-6.9,12.6-14.5,17.4-22.6C258.7,266.5,202.1,260.8,164.9,223.6L164.9,223.6z M164.9,223.6"/>
	<path class="st8" d="M217.2,295.9c24.7-2.7,48.6-13.4,67.5-32.4c18.9-18.9,29.6-42.9,32.4-67.5L192.4,71.4
		c-24.7,2.7-48.6,13.4-67.5,32.4c-18.9,18.9-29.7,42.9-32.4,67.5L217.2,295.9z M217.2,295.9"/>
	<path class="st9" d="M293.3,253.8c0.6-0.7,1.1-1.4,1.6-2.1c2.6-3.5,5-7.1,7.2-10.7c-43.3,25.6-100,19.9-137.2-17.4
		c-37.2-37.2-42.9-93.9-17.4-137.2c-3.7,2.2-7.2,4.6-10.7,7.1c-0.7,0.5-1.4,1.1-2.1,1.6c-1.2,0.9-2.4,1.9-3.6,2.9
		c-2.1,1.8-4.2,3.7-6.2,5.7c-2.6,2.6-5,5.3-7.2,8c-0.8,1-1.5,2-2.3,3c-1.4,1.8-2.8,3.6-4,5.5c-0.9,1.3-1.7,2.6-2.5,3.9
		c-1,1.6-2,3.3-2.9,4.9c-0.8,1.5-1.6,3-2.4,4.5c-0.7,1.5-1.4,3-2.1,4.5c-0.7,1.7-1.5,3.4-2.1,5.1c-0.5,1.3-0.9,2.6-1.4,3.9
		c-0.7,2-1.4,3.9-1.9,5.9c-0.1,0.5-0.2,1-0.4,1.5c-1.5,5.6-2.6,11.2-3.2,16.9c0,0,0,0,0,0l124.6,124.6c0,0,0,0,0,0
		c5.7-0.6,11.3-1.7,16.9-3.2c0.5-0.1,1-0.2,1.5-0.4c2-0.6,3.9-1.2,5.9-1.9c1.3-0.4,2.6-0.9,3.9-1.4c1.7-0.7,3.4-1.4,5.1-2.1
		c1.5-0.7,3-1.4,4.5-2.1c1.5-0.7,3-1.5,4.5-2.3c1.7-0.9,3.3-1.9,4.9-2.9c1.3-0.8,2.6-1.6,3.9-2.5c1.9-1.3,3.7-2.6,5.5-4
		c1-0.8,2-1.5,3-2.3c2.7-2.3,5.4-4.7,8-7.2c2-2,3.9-4.1,5.7-6.2C291.4,256.2,292.3,255,293.3,253.8L293.3,253.8z M293.3,253.8"/>
	<path class="st10" d="M109.4,123.2L265.2,279c6.9-4.4,13.5-9.5,19.5-15.5c6-6,11.1-12.6,15.5-19.5L144.4,88.2
		c-6.9,4.4-13.5,9.5-19.5,15.5C118.9,109.7,113.8,116.3,109.4,123.2L109.4,123.2z M109.4,123.2"/>
	<path class="st11" d="M209,89.5l-98.3,98.3c16,40.5,49.4,73.9,89.9,89.9l98.3-98.3C282.9,138.9,249.5,105.5,209,89.5L209,89.5z
		 M209,89.5"/>
	<path class="st12" d="M133.8,164.7c-7.7,7.7-15.4,15.4-23.1,23.1c16,40.5,49.4,73.9,89.9,89.9c7.7-7.7,15.4-15.4,23.1-23.1
		c-21.6-4-42.2-14.3-58.9-31C148.2,206.9,137.9,186.3,133.8,164.7L133.8,164.7z M133.8,164.7"/>
	<path class="st10" d="M165.3,258.1l114-114c-9.8-13.3-21.6-25.2-35-35l-114,114C140.1,236.5,152,248.3,165.3,258.1L165.3,258.1z
		 M165.3,258.1"/>
	<path class="st13" d="M164.9,223.6c-6-6-11.2-12.5-15.5-19.4l-19,19c2.2,3,4.6,6,7,8.8c0.5,0.6,1,1.2,1.5,1.7
		c4.9,5.6,10.2,10.9,15.9,15.9c0.6,0.5,1.2,1,1.7,1.5c2.9,2.4,5.8,4.8,8.8,7l19-19C177.4,234.7,170.9,229.6,164.9,223.6L164.9,223.6
		z M164.9,223.6"/>
	<path class="st13" d="M293.4,253.6c2.2-2.8,4.2-5.6,6-8.5c0.2-0.3,0.4-0.7,0.7-1l-1.3-1.3c-17.4,9.5-36.8,14.1-56.1,13.8l22.5,22.5
		c6.9-4.4,13.5-9.5,19.5-15.5c2.8-2.8,5.3-5.6,7.6-8.6C292.7,254.5,293.1,254,293.4,253.6L293.4,253.6z M293.4,253.6"/>
	<path class="st13" d="M131.9,145.7c-0.3-19.3,4.3-38.7,13.8-56.1l-1.3-1.3c-0.3,0.2-0.7,0.4-1,0.7c-2.9,1.9-5.8,3.9-8.5,6
		c-0.5,0.4-0.9,0.7-1.3,1.1c-3,2.4-5.9,4.9-8.6,7.7c-6,6-11.1,12.6-15.5,19.5L131.9,145.7z M131.9,145.7"/>
	<path class="st14" d="M268.4,339H141.2c-3.9,0-7.1-3.2-7.1-7.1c0-3.9,3.2-7.1,7.1-7.1h127.1c3.9,0,7.1,3.2,7.1,7.1
		C275.4,335.8,272.3,339,268.4,339L268.4,339z M268.4,339"/>
</g>
</svg>
