<svg height="512pt" viewBox="0 0 512 512" width="512pt" xmlns="http://www.w3.org/2000/svg"><path d="m190 475.042969c0 14.484375-14.605469 24.425781-28.074219 19.101562-72.710937-28.746093-129.101562-89.824219-151.453125-165.507812-2.539062-8.59375 3.90625-17.214844 12.863282-17.214844 48.046874 0 87-38.949219 87-86.996094v-170.363281c0-5.496094 2.824218-10.589844 7.449218-13.5625 39.867188-25.625 87.300782-40.5 138.214844-40.5 122.59375 0 225.058594 86.175781 250.128906 201.253906 2.449219 11.242188-6.152344 21.867188-17.660156 21.867188h-46.550781c-139.128907 0-251.917969 112.789062-251.917969 251.921875zm0 0" fill="#8f4a4b"/><path d="m160 200h345.839844c4.023437 18.023438 6.160156 36.761719 6.160156 56 0 141.386719-114.613281 256-256 256-33.953125 0-66.351562-6.625-96-18.628906zm0 0" fill="#fda800"/><path d="m190 503.382812c-10.265625-2.734374-20.28125-6.078124-30-10.011718v-293.371094h30zm0 0" fill="#fc9302"/><path d="m320 60v250c0 11.046875-8.953125 20-20 20h-289.121094c-7.066406-23.429688-10.878906-48.269531-10.878906-74 0-90.796875 47.273438-170.550781 118.546875-216h181.453125c11.046875 0 20 8.953125 20 20zm0 0" fill="#b4d2d7"/><path d="m462 121.9375v92.488281c0 21.757813-12.417969 40.601563-30.546875 49.875v198.472657c0 9.011718-7.039063 16.496093-16.042969 16.949218-3.648437.183594-7.324218.277344-11.019531.277344-2.527344 0-5.042969-.046875-7.550781-.132812-9.105469-.316407-16.292969-7.851563-16.292969-16.960938v-198.605469c-18.128906-9.273437-30.546875-28.117187-30.546875-49.875v-92.488281c0-2.339844 1.898438-4.242188 4.242188-4.242188 12.652343 0 22.910156 10.257813 22.910156 22.910157v62.789062c0 4.214844 3.417968 7.636719 7.632812 7.636719 4.21875 0 7.636719-3.421875 7.636719-7.636719v-63.855469c0-8.308593 4.28125-16.03125 11.328125-20.4375 1.378906-.863281 3.117188-.863281 4.496094 0 7.046875 4.40625 11.328125 12.128907 11.328125 20.4375v63.855469c0 4.214844 3.417969 7.632813 7.636719 7.632813 4.214843 0 7.636718-3.417969 7.636718-7.632813v-62.789062c0-12.652344 10.253906-22.910157 22.90625-22.910157 2.347656 0 4.246094 1.902344 4.246094 4.242188zm0 0" fill="#e1ebf0"/><path d="m356.40625 384.480469c0 20.550781-13.96875 38.472656-33.898438 43.492187l-147.191406 37.070313c-19.242187 4.847656-39.382812-3.527344-49.515625-20.589844l-6.339843-10.679687h-47.648438c-15.492188-16.046876-28.90625-34.117188-39.808594-53.773438h319.917969c2.476563 0 4.484375 2.007812 4.484375 4.480469zm40.214844-142.863281c-10.410156-8.945313-17.492188-21.652344-19.140625-36.015626-.210938-.699218-.328125-4.222656-.328125-4.222656-.03125-.738281-.046875-5.621094-.046875-5.621094v-56.554687c-.722657-12-10.679688-21.507813-22.863281-21.507813-2.34375 0-4.242188 1.898438-4.242188 4.242188v92.488281c0 21.757813 12.417969 40.601563 30.546875 49.875v198.605469c0 9.109375 7.191406 16.644531 16.292969 16.960938 2.507812.085937 5.023437.132812 7.550781.132812 1.085937 0 2.175781-.011719 3.257813-.027344v-214.625c0-9.148437-4.089844-17.765625-11.027344-23.730468zm0 0" fill="#b4d2d7"/><path d="m320 290v-230c0-11.046875-8.953125-20-20-20h-181.453125c-71.273437 45.449219-118.546875 125.203125-118.546875 216 0 18.527344 1.984375 36.589844 5.726562 54h294.273438c11.046875 0 20-8.953125 20-20zm-30-105c0-5.523438 4.476562-10 10-10s10 4.476562 10 10-4.476562 10-10 10-10-4.476562-10-10zm66.40625 199.480469c0 .625-.015625 1.242187-.042969 1.859375-5.945312 7.324218-14.195312 12.796875-23.855469 15.226562l-147.191406 37.070313c-19.242187 4.847656-39.382812-3.527344-49.515625-20.589844l-6.339843-10.675781h-79.914063c-6.402344-8.71875-12.269531-17.859375-17.542969-27.371094h319.917969c2.476563 0 4.484375 2.007812 4.484375 4.480469zm0 0" fill="#e1ebf0"/><path d="m280 75v210c0 2.761719-2.238281 5-5 5h-272.746094c-1.480468-11.125-2.253906-22.472656-2.253906-34 0-73.265625 30.785156-139.335938 80.117188-186h194.882812c2.761719 0 5 2.238281 5 5zm0 0" fill="#fc5426"/><path d="m220 180c0 44.183594-35.816406 80-80 80s-80-35.816406-80-80 35.816406-80 80-80 80 35.816406 80 80zm0 0" fill="#d63d24"/><path d="m220 251.578125c0 4.652344-3.769531 8.421875-8.421875 8.421875h-143.15625c-4.652344 0-8.421875-3.769531-8.421875-8.421875 0-4.648437 3.769531-8.421875 8.421875-8.421875h4.210937c0-33.28125 24.144532-60.910156 55.871094-66.371094-.722656-1.589844-1.136718-3.347656-1.136718-5.207031 0-6.976563 5.65625-12.632813 12.632812-12.632813s12.632812 5.65625 12.632812 12.632813c0 1.859375-.410156 3.617187-1.132812 5.207031 31.726562 5.460938 55.871094 33.085938 55.871094 66.371094h4.210937c4.648438 0 8.417969 3.773438 8.417969 8.421875zm-108.421875-75.789063c3.488281 0 6.316406-2.828124 6.316406-6.316406 0-3.488281-2.828125-6.316406-6.316406-6.316406-5.222656 0-9.472656-4.25-9.472656-9.472656s4.25-9.472656 9.472656-9.472656h44.210937c12.191407 0 22.105469-9.917969 22.105469-22.105469 0-12.191407-9.914062-22.105469-22.105469-22.105469-3.488281 0-6.316406 2.828125-6.316406 6.316406 0 3.488282 2.828125 6.316406 6.316406 6.316406 5.226563 0 9.476563 4.25 9.476563 9.472657 0 5.222656-4.25 9.472656-9.476563 9.472656h-44.210937c-12.1875 0-22.105469 9.917969-22.105469 22.105469 0 12.191406 9.917969 22.105468 22.105469 22.105468zm0 0" fill="#fff5f5"/><path d="m183.976562 238.492188c-.25 2.601562-2.582031 4.507812-5.191406 4.507812h-88.402344v.15625h-3.921874c-4.488282 0-8.402344 3.386719-8.691407 7.863281-.320312 4.90625 3.566407 8.980469 8.402344 8.980469h-17.75c-4.835937 0-8.722656-4.074219-8.402344-8.980469.289063-4.476562 4.203125-7.863281 8.691407-7.863281h3.921874c0-33.28125 24.144532-60.910156 55.871094-66.371094-.945312-2.082031-1.359375-4.453125-1.011718-6.960937.777343-5.613281 5.335937-10.117188 10.964843-10.785157 4.066407-.484374 7.804688.972657 10.417969 3.554688-2.316406 2.292969-3.757812 5.46875-3.757812 8.984375 0 .066406 0 .132813.003906.195313.046875 2.957031-1.871094 5.535156-4.722656 6.292968-21.15625 5.625-38.214844 21.28125-45.777344 41.566406-2.417969 6.480469 2.5 13.367188 9.414062 13.367188h74.964844c2.925781 0 5.261719 2.507812 4.976562 5.492188zm0 0" fill="#fff2b4"/></svg>