<?xml version="1.0" encoding="utf-8"?>
<!-- Generator: Adobe Illustrator 19.2.0, SVG Export Plug-In . SVG Version: 6.00 Build 0)  -->
<svg version="1.1" id="Layer_1" xmlns="http://www.w3.org/2000/svg" xmlns:xlink="http://www.w3.org/1999/xlink" x="0px" y="0px"
	 viewBox="0 0 1920 63.2" style="enable-background:new 0 0 1920 63.2;" xml:space="preserve">
<style type="text/css">
	.st0{fill:#3EBEEE;}
</style>
<path class="st0" d="M0,0v41.6c0,0,4.5-0.7,6.8-0.8c13.3-1,26.5-2.3,39.8-3.5c16.7-1.5,33.5-2.2,50.2-3.9c6.1-0.6,12.3-0.8,18.4-1
	c17.5-0.7,34.9-2,52.3-2.6c20.3-0.7,40.6-1.4,60.8-2.3c11.5-0.5,23-0.3,34.4-0.8c54.8-2.1,109.6-1,164.4-0.8c19.5,0,39,0.3,58.4,1
	c21,0.8,41.9,1.2,62.9,2.1c23.8,1,47.5,2,71.3,3.3c18.6,1,37.2,1.8,55.8,3.1c24.2,1.7,48.5,3,72.7,4.9c13.1,1,26.2,1.6,39.3,2.6
	c17.7,1.3,35.5,2.4,53.2,3.8c12.3,1,24.6,1.7,36.8,2.5c13.3,0.8,26.6,1.5,39.8,2.9c6.1,0.6,12.3,0.7,18.4,1
	c14.6,0.8,29.2,1.8,43.8,2.6c21.4,1.1,42.8,2.4,64.3,3.2c16.1,0.7,32.2,1.3,48.3,2.1c15.5,0.7,31,0.4,46.4,1
	c46.5,2,93,0.9,139.4,0.7c22.4-0.1,44.9-1.1,67.3-2.1c21.1-0.9,42.2-1.8,63.3-3.2c20.2-1.3,40.5-2.5,60.7-4.2
	c25.7-2.2,51.4-4.3,77-6.9c18.7-1.9,37.4-3.7,56.1-5.8c19-2.2,38-4.5,57-6.9c22.6-2.8,45.2-6,67.8-9c15.3-2.1,30.6-4.5,46-6.7
	c24.6-3.5,49.1-7.4,73.7-10.4c12.9-1.6,25.8-3.5,38.7-4.6c10.4-1,23.6-1.3,34.1-1V0H0z"/>
</svg>
