<?xml version="1.0" encoding="utf-8"?>
<!-- Generator: Adobe Illustrator 19.2.0, SVG Export Plug-In . SVG Version: 6.00 Build 0)  -->
<svg version="1.1" id="Isolation_Mode" xmlns="http://www.w3.org/2000/svg" xmlns:xlink="http://www.w3.org/1999/xlink" x="0px"
	 y="0px" viewBox="0 0 313.1 53.2" style="enable-background:new 0 0 313.1 53.2;" xml:space="preserve">
<style type="text/css">
	.st0{fill:#3EC0F0;}
</style>
<path class="st0" d="M313.1,23.1v30c-4.2-0.1-8.3-0.6-12.5-1.2c-13.5-2.2-25.3-7.8-36.7-15.1v0c-0.1,0.1-0.3,0.2-0.4,0.2
	c-0.6,0.4-1.3,0.7-1.9,1.1c-7.9,4.5-16.2,8.2-24.8,10.9c-13.9,4.4-28.7,5.2-43,2.8c-13.7-2.2-25.6-7.9-37.2-15.4
	C144.9,44,133,49.7,119.3,51.9c-14.4,2.3-29.1,1.6-43-2.8c-8.6-2.7-16.9-6.5-24.8-10.9c-0.6-0.4-1.2-0.7-1.9-1.1
	c-0.2-0.1-0.3-0.2-0.5-0.3v0c-11.5,7.3-23.2,12.9-36.7,15.1C8.3,52.6,4.1,53,0,53.1v-30c1.5-0.1,3.1-0.2,4.6-0.5
	c3.3-0.5,6.5-1.2,9.6-2.2c4.3-1.3,8.4-3,12.4-5c5-2.5,9.8-5.5,14.3-9c0,0,0,0,0.1,0c0,0,6.3-4.8,8.2-6.2L49.6,0l0,0l8.7,6.5
	c3.6,2.8,7.7,5,11.7,7.1c8.4,4.4,17.6,7.9,27,9.1c4.8,0.6,9.7,0.6,14.5-0.1c3.3-0.5,6.5-1.2,9.6-2.2c4.3-1.3,8.4-3,12.4-5
	c5-2.5,9.8-5.5,14.3-9c0,0,0,0,0.1,0c0,0,7.4-5.7,8.5-6.5c1.1,0.8,8.5,6.5,8.5,6.5c0,0,0,0,0.1,0c4.5,3.4,9.2,6.4,14.3,9
	c4,2,8.2,3.7,12.4,5c3.1,0.9,6.4,1.7,9.6,2.2c4.8,0.7,9.7,0.7,14.5,0.1c9.5-1.3,18.6-4.7,27-9.1c4-2.1,8.1-4.4,11.7-7.1l8.7-6.5l0,0
	l0.4,0.3c1.9,1.4,8.2,6.2,8.2,6.2c0,0,0,0,0.1,0c4.5,3.4,9.2,6.4,14.3,9c4,2,8.2,3.7,12.4,5c3.1,0.9,6.4,1.7,9.6,2.2
	C309.9,22.9,311.5,23.1,313.1,23.1z"/>
</svg>
