<?xml version="1.0" encoding="utf-8"?>
<!-- Generator: Adobe Illustrator 19.2.0, SVG Export Plug-In . SVG Version: 6.00 Build 0)  -->
<svg version="1.1" id="Layer_1" xmlns="http://www.w3.org/2000/svg" xmlns:xlink="http://www.w3.org/1999/xlink" x="0px" y="0px"
	 viewBox="0 0 1920 64.1" style="enable-background:new 0 0 1920 64.1;" xml:space="preserve">
<style type="text/css">
	.st0{fill:#267D9D;}
</style>
<path class="st0" d="M1920,64.1v-64c-10.5-0.3-23.6,0.4-34.1,1.4c-12.9,1.2-25.8,3.1-38.7,4.6c-24.6,3.1-49.1,6.9-73.7,10.4
	c-15.3,2.2-30.6,4.7-46,6.7c-22.6,3-45.2,6.2-67.8,9c-19,2.3-38,4.7-57,6.8c-18.7,2.1-37.4,3.9-56.1,5.8c-25.7,2.6-51.3,4.8-77,7
	c-20.2,1.7-40.5,2.9-60.7,4.2c-21.1,1.4-42.2,2.3-63.3,3.2c-22.4,1-44.9,2-67.3,2.1c-46.5,0.2-93,1.3-139.4-0.7
	c-15.5-0.7-31-0.3-46.4-1c-16.1-0.7-32.2-1.4-48.3-2.1c-21.4-0.9-42.9-2.1-64.3-3.3c-14.6-0.8-29.2-1.7-43.8-2.6
	c-6.1-0.4-12.3-0.4-18.4-1c-13.2-1.3-26.5-2-39.8-2.9c-12.3-0.8-24.6-1.6-36.8-2.5c-17.7-1.4-35.5-2.4-53.2-3.8
	c-13.1-1-26.2-1.6-39.3-2.6c-24.2-1.8-48.5-3.1-72.7-4.9c-18.6-1.3-37.2-2.2-55.8-3.1c-23.8-1.2-47.5-2.2-71.3-3.3
	c-20.9-0.9-41.9-1.3-62.9-2.1c-19.5-0.7-39-1-58.4-1c-54.8-0.1-109.6-1.3-164.4,0.8c-11.5,0.4-22.9,0.3-34.4,0.8
	c-20.3,0.8-40.6,1.5-60.8,2.3c-17.5,0.6-34.9,1.9-52.3,2.6c-6.1,0.3-12.3,0.4-18.4,1c-16.7,1.8-33.5,2.5-50.2,3.9
	c-13.6,1.3-33.7,3.5-47,4.5v23.8H1920z"/>
</svg>
