<?xml version="1.0" encoding="utf-8"?>
<!-- Generator: Adobe Illustrator 19.2.0, SVG Export Plug-In . SVG Version: 6.00 Build 0)  -->
<svg version="1.1" id="_x31_4" xmlns="http://www.w3.org/2000/svg" xmlns:xlink="http://www.w3.org/1999/xlink" x="0px" y="0px"
	 viewBox="0 0 27.3 16.9" style="enable-background:new 0 0 27.3 16.9;" xml:space="preserve">
<style type="text/css">
	.st0{fill-rule:evenodd;clip-rule:evenodd;fill:#F7F7F7;}
</style>
<g>
	<path class="st0" d="M9.2,10.7c1.6,0,2.9,1.1,2.9,2.4c0,1.3-1.3,2.4-2.9,2.4c-1.6,0-2.9-1.1-2.9-2.4C6.3,11.8,7.6,10.7,9.2,10.7
		L9.2,10.7z M23.2,11.6L23.2,11.6h0.3c0.1,0,0.2,0.1,0.2,0.2v2.5c0,0.1-0.1,0.2-0.2,0.2h-0.3c-0.1,0-0.2-0.1-0.2-0.2v-2.5
		C23,11.7,23.1,11.6,23.2,11.6L23.2,11.6z M18.1,10.7L18.1,10.7c1.5,0,2.8,1.1,2.8,2.4c0,1.3-1.3,2.4-2.8,2.4
		c-1.6,0-2.9-1.1-2.9-2.4C15.2,11.8,16.4,10.7,18.1,10.7L18.1,10.7z M3.9,11.6L3.9,11.6h0.4c0.1,0,0.2,0.1,0.2,0.2v2.5
		c0,0.1-0.1,0.2-0.2,0.2H3.9c-0.1,0-0.2-0.1-0.2-0.2v-2.5C3.7,11.7,3.8,11.6,3.9,11.6L3.9,11.6z M16.2,1.1L16.2,1.1
		c5.2,1.2,9.1,5.4,9.9,10.5h0.4c0.4,0,0.8,0.3,0.8,0.8v1.4c0,0.3-0.3,0.8-0.8,0.8h-0.8c-0.3,0-0.6-0.3-0.6-0.8v-1.4
		c0-0.2,0.1-0.4,0.2-0.5C24.6,6.9,21,3,16.2,1.8c0,0.3-0.1,0.4-0.3,0.4h-4.8c-0.2,0-0.4-0.1-0.4-0.4C5.9,3,2.4,6.8,1.5,11.6
		c0.4,0,0.7,0.4,0.7,0.8v1.4c0,0.3-0.3,0.8-0.8,0.8H0.6c-0.3,0-0.6-0.3-0.6-0.8v-1.4c0-0.4,0.3-0.8,0.6-0.8h0.1
		c0.9-5.1,4.7-9.3,9.9-10.5V0.4c0-0.2,0.2-0.4,0.4-0.4h4.8c0.2,0,0.3,0.2,0.3,0.4V1.1z M18.2,9.2L18.2,9.2c-1.9,0-3.7,0.8-4.6,1.8
		c-1-1.1-2.7-1.8-4.6-1.8c-1.4,0-2.8,0.4-3.7,1.1h-1c-0.7,0-1.4,0.6-1.4,1.5v2.5c0,0.9,0.7,1.5,1.4,1.5h1c1,0.8,2.3,1.1,3.7,1.1
		c1.9,0,3.7-0.6,4.6-1.8c1,1.1,2.7,1.8,4.6,1.8c1.5,0,2.8-0.3,3.8-1.1h1.2c0.8,0,1.3-0.6,1.3-1.5v-2.5c0-0.9-0.5-1.5-1.3-1.5h-1.2
		C21,9.7,19.6,9.2,18.2,9.2L18.2,9.2z"/>
</g>
</svg>
