<?xml version="1.0" encoding="utf-8"?>
<!-- Generator: Adobe Illustrator 19.2.0, SVG Export Plug-In . SVG Version: 6.00 Build 0)  -->
<svg version="1.1" id="Layer_1" xmlns="http://www.w3.org/2000/svg" xmlns:xlink="http://www.w3.org/1999/xlink" x="0px" y="0px"
	 viewBox="0 0 26.4 26.4" style="enable-background:new 0 0 26.4 26.4;" xml:space="preserve">
<style type="text/css">
	.st0{fill:#F6F6F6;}
</style>
<g>
	<path class="st0" d="M13.2,26.4C5.9,26.4,0,20.5,0,13.2S5.9,0,13.2,0s13.2,5.9,13.2,13.2S20.5,26.4,13.2,26.4L13.2,26.4z M13.2,0.8
		C6.4,0.8,0.8,6.4,0.8,13.2s5.6,12.4,12.4,12.4S25.6,20,25.6,13.2C25.6,6.4,20,0.8,13.2,0.8L13.2,0.8z"/>
	<path class="st0" d="M13.2,19.3c-1.9,0-3.8-0.5-5.5-1.6l-0.3-0.2c-0.2-0.1-0.2-0.4-0.1-0.5c0.1-0.2,0.4-0.2,0.6-0.1L8.1,17
		c3.1,1.9,7,1.9,10.2,0l0.3-0.2c0.2-0.1,0.4-0.1,0.5,0.1s0.1,0.4-0.1,0.6l-0.3,0.2C17,18.8,15.1,19.3,13.2,19.3L13.2,19.3z"/>
	<path class="st0" d="M11.3,10.7c-0.1,0-0.2,0-0.3-0.1L9.4,9l-1.6,1.6c-0.2,0.2-0.4,0.2-0.6,0S7,10.2,7.2,10l1.9-1.9
		C9.3,8,9.6,8,9.7,8.1l1.9,1.9c0.2,0.2,0.2,0.4,0,0.6C11.5,10.6,11.4,10.7,11.3,10.7L11.3,10.7z"/>
	<path class="st0" d="M18.8,10.7c-0.1,0-0.2,0-0.3-0.1L17,9l-1.6,1.6c-0.2,0.2-0.4,0.2-0.6,0c-0.2-0.2-0.2-0.4,0-0.6l1.9-1.9
		c0.2-0.2,0.4-0.2,0.6,0l1.9,1.9c0.2,0.2,0.2,0.4,0,0.6C19,10.6,18.9,10.7,18.8,10.7L18.8,10.7z"/>
</g>
</svg>
