<?xml version="1.0" encoding="utf-8"?>
<!-- Generator: Adobe Illustrator 19.2.0, SVG Export Plug-In . SVG Version: 6.00 Build 0)  -->
<svg version="1.1" id="Layer_1" xmlns="http://www.w3.org/2000/svg" xmlns:xlink="http://www.w3.org/1999/xlink" x="0px" y="0px"
	 viewBox="0 0 429 52.4" style="enable-background:new 0 0 429 52.4;" xml:space="preserve">
<style type="text/css">
	.st0{fill:#F6F8F8;}
</style>
<g>
	<g>
		<path class="st0" d="M76.3,35.5c0.2,2.1,0.6,3.8,1.4,5.2c0.7,1.4,1.7,2.6,2.9,3.5c1.2,0.9,2.5,1.6,4.1,2c1.5,0.4,3.2,0.6,4.9,0.6
			c2.1,0,3.8-0.3,5.3-0.8c1.5-0.5,2.7-1.2,3.7-2.1c0.9-0.9,1.6-1.9,2.1-3c0.4-1.2,0.7-2.4,0.7-3.7c0-1.8-0.4-3.3-1.2-4.4
			c-0.8-1.1-1.9-2-3.2-2.7c-1.3-0.7-2.8-1.3-4.5-1.7c-1.7-0.4-3.4-0.8-5.2-1.3c-1.8-0.4-3.5-0.9-5.2-1.4c-1.7-0.6-3.2-1.3-4.5-2.2
			c-1.3-0.9-2.4-2.1-3.2-3.6c-0.8-1.5-1.2-3.3-1.2-5.6c0-1.6,0.3-3.1,1-4.6c0.7-1.5,1.6-2.8,3-4c1.3-1.2,2.9-2.1,4.9-2.8
			c2-0.7,4.2-1,6.8-1c2.6,0,4.9,0.4,6.8,1.1c1.9,0.7,3.6,1.7,4.8,3c1.3,1.3,2.2,2.7,2.9,4.4c0.6,1.7,1,3.4,1,5.3h-4.2
			c0-1.8-0.3-3.3-0.9-4.6c-0.6-1.3-1.5-2.3-2.5-3.1c-1.1-0.8-2.3-1.4-3.7-1.8c-1.4-0.4-2.8-0.6-4.2-0.6c-2.2,0-4.1,0.3-5.6,0.9
			c-1.5,0.6-2.7,1.4-3.6,2.4c-0.9,1-1.5,2.1-1.9,3.3c-0.3,1.2-0.4,2.4-0.2,3.6c0.3,1.5,0.9,2.7,1.8,3.6c0.9,0.9,2.1,1.6,3.5,2.2
			c1.4,0.6,2.9,1,4.5,1.4c1.6,0.4,3.3,0.7,5,1.2c1.7,0.4,3.4,0.9,5,1.4c1.6,0.6,3,1.3,4.3,2.2c1.2,0.9,2.2,2.1,3,3.6
			c0.7,1.5,1.1,3.3,1.1,5.6c0,4.3-1.5,7.6-4.4,9.9c-3,2.4-7.1,3.5-12.4,3.5c-2.4,0-4.6-0.3-6.7-0.9c-2.1-0.6-3.8-1.6-5.3-2.8
			c-1.5-1.3-2.7-2.8-3.5-4.7c-0.8-1.9-1.3-4.1-1.3-6.6H76.3z"/>
		<path class="st0" d="M138.1,44.2l8.7-28.1h3.9l-10.8,33.2h-4.1l-7.3-27.9h-0.1l-7.4,27.9h-4.6l-10.1-33.2h3.9l8.6,28.4l7.7-28.4
			h4.3L138.1,44.2z"/>
		<path class="st0" d="M153.5,8.8V3.1h4.2v5.7H153.5z M153.7,49.3V16.1h3.9v33.2H153.7z"/>
		<path class="st0" d="M167.5,49.3h-3.9V16.1h3.9v5h0.1c1-1.9,2.4-3.4,4.2-4.4c1.8-1,3.9-1.5,6-1.5c1.5,0,2.8,0.2,3.9,0.5
			c1.1,0.3,2,0.8,2.7,1.4c0.7,0.6,1.4,1.3,1.9,2c0.5,0.8,0.9,1.6,1.3,2.5c1.1-2.2,2.6-3.8,4.5-4.8c1.9-1,4-1.6,6.4-1.6
			c2.3,0,4.1,0.4,5.4,1.1c1.3,0.7,2.4,1.7,3.1,3c0.7,1.2,1.2,2.6,1.4,4.2c0.2,1.6,0.4,3.2,0.4,4.9v21h-3.9v-23
			c0-2.4-0.5-4.3-1.5-5.6s-2.9-2.1-5.6-2.1c-1.4,0-2.8,0.3-4.1,0.9c-1.3,0.6-2.4,1.6-3.4,2.9c-0.4,0.6-0.8,1.2-1.1,2
			c-0.3,0.7-0.5,1.5-0.7,2.3c-0.2,0.8-0.3,1.6-0.4,2.4c-0.1,0.8-0.1,1.6-0.1,2.2v17.9h-3.9v-23c0-2.4-0.5-4.3-1.5-5.6
			c-1-1.4-2.9-2.1-5.6-2.1c-1.4,0-2.8,0.3-4.1,0.9c-1.3,0.6-2.4,1.6-3.4,2.9c-0.4,0.6-0.8,1.2-1.1,2c-0.3,0.7-0.5,1.5-0.7,2.3
			c-0.2,0.8-0.3,1.6-0.4,2.4c-0.1,0.8-0.1,1.6-0.1,2.2V49.3z"/>
		<path class="st0" d="M217.7,49.3h-3.9V16.1h3.9v5h0.1c1-1.9,2.4-3.4,4.2-4.4c1.8-1,3.9-1.5,6-1.5c1.5,0,2.8,0.2,3.9,0.5
			c1.1,0.3,2,0.8,2.7,1.4c0.7,0.6,1.4,1.3,1.9,2c0.5,0.8,0.9,1.6,1.3,2.5c1.1-2.2,2.6-3.8,4.5-4.8c1.9-1,4-1.6,6.4-1.6
			c2.3,0,4.1,0.4,5.4,1.1c1.3,0.7,2.4,1.7,3.1,3c0.7,1.2,1.2,2.6,1.4,4.2c0.2,1.6,0.4,3.2,0.4,4.9v21h-3.9v-23
			c0-2.4-0.5-4.3-1.5-5.6c-1-1.4-2.9-2.1-5.6-2.1c-1.4,0-2.8,0.3-4.1,0.9c-1.3,0.6-2.4,1.6-3.4,2.9c-0.4,0.6-0.8,1.2-1.1,2
			c-0.3,0.7-0.5,1.5-0.7,2.3c-0.2,0.8-0.3,1.6-0.4,2.4c-0.1,0.8-0.1,1.6-0.1,2.2v17.9h-3.9v-23c0-2.4-0.5-4.3-1.5-5.6
			c-1-1.4-2.9-2.1-5.6-2.1c-1.4,0-2.8,0.3-4.1,0.9c-1.3,0.6-2.4,1.6-3.4,2.9c-0.4,0.6-0.8,1.2-1.1,2c-0.3,0.7-0.5,1.5-0.7,2.3
			c-0.2,0.8-0.3,1.6-0.4,2.4c-0.1,0.8-0.1,1.6-0.1,2.2V49.3z"/>
		<path class="st0" d="M267,33.6c0,1.8,0.2,3.5,0.7,5.1c0.5,1.6,1.2,3,2.1,4.2c0.9,1.2,2.1,2.1,3.5,2.8c1.4,0.7,3,1.1,4.9,1.1
			c2.5,0,4.7-0.7,6.5-2c1.8-1.3,3-3.2,3.6-5.6h4.3c-0.5,1.6-1.1,3-1.9,4.4c-0.8,1.3-1.7,2.5-2.9,3.5c-1.2,1-2.5,1.8-4.1,2.3
			c-1.6,0.6-3.4,0.8-5.5,0.8c-2.7,0-4.9-0.4-6.9-1.3c-1.9-0.9-3.5-2.1-4.7-3.7c-1.2-1.6-2.2-3.4-2.8-5.5c-0.6-2.1-0.9-4.4-0.9-6.8
			s0.4-4.7,1.1-6.9c0.7-2.1,1.7-4,3-5.6c1.3-1.6,2.9-2.9,4.8-3.8c1.9-0.9,4-1.4,6.4-1.4c4.6,0,8.2,1.6,10.8,4.7
			c2.6,3.1,3.9,7.7,3.9,13.7H267z M288.7,30.4c0-1.6-0.2-3.2-0.7-4.6c-0.4-1.4-1.1-2.7-2-3.7c-0.9-1-2-1.9-3.3-2.5
			c-1.3-0.6-2.8-0.9-4.6-0.9s-3.2,0.3-4.5,1c-1.3,0.6-2.4,1.5-3.3,2.6c-0.9,1.1-1.7,2.3-2.2,3.7c-0.6,1.4-0.9,2.9-1.1,4.5H288.7z"/>
		<path class="st0" d="M301.1,49.3h-3.9V16.1h3.9v6.2h0.1c1.1-2.7,2.5-4.5,4.1-5.6c1.7-1,3.9-1.6,6.7-1.6v4.2c-2.2,0-4,0.3-5.4,1
			c-1.4,0.7-2.5,1.7-3.4,3c-0.8,1.2-1.4,2.7-1.7,4.4c-0.3,1.7-0.5,3.5-0.5,5.3V49.3z"/>
		<path class="st0" d="M323.9,49.3H315V3.1h8.9V49.3z"/>
		<path class="st0" d="M343,28.5c1.7-0.2,2.9-0.5,3.6-0.8c1.3-0.5,1.9-1.4,1.9-2.5c0-1.4-0.5-2.4-1.5-2.9c-1-0.5-2.4-0.8-4.3-0.8
			c-2.1,0-3.7,0.5-4.5,1.6c-0.6,0.8-1.1,1.8-1.3,3.1h-8.6c0.2-3,1-5.4,2.5-7.4c2.4-3,6.4-4.5,12.2-4.5c3.8,0,7.1,0.7,10,2.2
			c2.9,1.5,4.4,4.3,4.4,8.4v15.7c0,1.1,0,2.4,0.1,3.9c0.1,1.2,0.2,2,0.5,2.4c0.3,0.4,0.7,0.8,1.3,1v1.3h-9.7
			c-0.3-0.7-0.5-1.3-0.6-1.9c-0.1-0.6-0.2-1.3-0.3-2.1c-1.2,1.3-2.7,2.5-4.3,3.4c-1.9,1.1-4.1,1.7-6.6,1.7c-3.1,0-5.7-0.9-7.7-2.6
			c-2-1.8-3-4.3-3-7.5c0-4.2,1.6-7.2,4.9-9.1c1.8-1,4.4-1.8,7.9-2.2L343,28.5z M348.4,32.7c-0.6,0.4-1.1,0.6-1.7,0.9
			c-0.6,0.2-1.4,0.4-2.4,0.6l-2,0.4c-1.9,0.3-3.3,0.7-4.1,1.2c-1.4,0.8-2.1,2.1-2.1,3.8c0,1.5,0.4,2.6,1.3,3.3c0.9,0.7,1.9,1,3.1,1
			c2,0,3.7-0.6,5.4-1.7c1.6-1.1,2.5-3.2,2.6-6.2V32.7z"/>
		<path class="st0" d="M389.5,17.1c2.2,1.8,3.4,4.9,3.4,9.2v23h-9.1V28.5c0-1.8-0.2-3.2-0.7-4.1c-0.9-1.8-2.5-2.6-5-2.6
			c-3,0-5.1,1.3-6.2,3.9c-0.6,1.4-0.9,3.1-0.9,5.2v18.5H362V15.2h8.6v5c1.1-1.8,2.2-3,3.2-3.8c1.8-1.4,4.1-2.1,7-2.1
			C384.3,14.3,387.2,15.3,389.5,17.1z"/>
		<path class="st0" d="M416,15.7c1.6,0.9,2.9,2.2,3.9,3.8V3.2h9.1v46.1h-8.7v-4.7c-1.3,2-2.7,3.5-4.4,4.4c-1.6,0.9-3.7,1.4-6.1,1.4
			c-4,0-7.3-1.6-10.1-4.8c-2.7-3.2-4.1-7.4-4.1-12.4c0-5.8,1.3-10.4,4-13.8c2.7-3.3,6.3-5,10.8-5C412.6,14.3,414.4,14.8,416,15.7z
			 M418.2,40c1.3-1.9,2-4.3,2-7.3c0-4.2-1.1-7.2-3.2-9c-1.3-1.1-2.8-1.6-4.5-1.6c-2.6,0-4.5,1-5.7,3s-1.8,4.4-1.8,7.3
			c0,3.2,0.6,5.7,1.9,7.6c1.2,1.9,3.1,2.8,5.7,2.8S416.9,41.9,418.2,40z"/>
	</g>
	<path class="st0" d="M27.8,26.2"/>
	<path class="st0" d="M26.2,0C11.8,0,0,11.8,0,26.2c0,3.5,0.7,7,2.1,10.2c2.6,6.1,7.3,10.9,13.3,13.7c1.3,0.6,2.8,1.1,4.2,1.5
		c2.2,0.6,4.4,0.9,6.7,0.9c1.6,0,3.2-0.1,4.7-0.4c12.5-2.3,21.5-13.1,21.5-25.8C52.4,11.8,40.6,0,26.2,0z M31.4,46.9
		c-2.2-3.2-3-7.2-2-11.1c1.1-4.3,4.3-7.5,8.2-9.1c-8-0.8-15.5,4.2-17.6,12c-0.7,2.7-0.7,5.4-0.1,8c-0.9-0.3-1.8-0.6-2.6-1
		c-0.5-0.2-1-0.5-1.6-0.8c0-0.2-0.1-0.3-0.1-0.5C14,34.4,20.6,25,30.6,23.2c5.8-1,11.5,0.9,15.6,4.6c-3.5-9.8-13.7-16-24.3-14.1
		c-8.1,1.4-14.4,7.1-16.9,14.4c-0.1-0.6-0.1-1.3-0.1-1.9c0-11.8,9.6-21.3,21.3-21.3c11.8,0,21.3,9.6,21.3,21.3
		C47.5,36,40.9,44.5,31.4,46.9z"/>
</g>
</svg>
