<?xml version="1.0" encoding="utf-8"?>
<!-- Generator: Adobe Illustrator 19.2.0, SVG Export Plug-In . SVG Version: 6.00 Build 0)  -->
<svg version="1.1" id="Isolation_Mode" xmlns="http://www.w3.org/2000/svg" xmlns:xlink="http://www.w3.org/1999/xlink" x="0px"
	 y="0px" viewBox="0 0 52.4 52.4" style="enable-background:new 0 0 52.4 52.4;" xml:space="preserve">
<style type="text/css">
	.st0{fill:#3EC0F0;}
</style>
<path class="st0" d="M26.2,0C11.8,0,0,11.8,0,26.2c0,3.5,0.7,7,2.1,10.2c2.6,6.1,7.3,10.9,13.3,13.7c1.3,0.6,2.8,1.1,4.2,1.5
	c2.2,0.6,4.4,0.9,6.7,0.9c1.6,0,3.2-0.1,4.7-0.4c12.5-2.3,21.5-13.1,21.5-25.8C52.4,11.8,40.6,0,26.2,0z M31.4,46.9
	c-2.2-3.2-3-7.2-2-11.1c1.1-4.3,4.3-7.5,8.2-9.1c-8-0.8-15.5,4.2-17.6,12c-0.7,2.7-0.7,5.4-0.1,8c-0.9-0.3-1.8-0.6-2.6-1
	c-0.5-0.2-1-0.5-1.6-0.8c0-0.2-0.1-0.3-0.1-0.5C14,34.4,20.6,25,30.6,23.2c5.8-1,11.5,0.9,15.6,4.6c-3.5-9.8-13.7-16-24.3-14.1
	c-8.1,1.4-14.4,7.1-16.9,14.4c-0.1-0.6-0.1-1.3-0.1-1.9c0-11.8,9.6-21.3,21.3-21.3c11.8,0,21.3,9.6,21.3,21.3
	C47.5,36,40.9,44.5,31.4,46.9z"/>
</svg>
