<svg id="Camada_1" data-name="Camada 1" xmlns="http://www.w3.org/2000/svg" viewBox="0 0 444.89 222.61"><defs><style>.cls-1{fill:#74ac22;}.cls-2{fill:#0594e4;}.cls-3{fill:#00391c;}.cls-4{fill:#01391d;}.cls-5{fill:#fc820a;}.cls-6{fill:#74aa24;}.cls-7{fill:#75ac25;}.cls-8{fill:#fd830a;}.cls-9{fill:#f87d0a;}.cls-10{fill:#f4780a;}.cls-11{fill:#ef730a;}.cls-12{fill:#eb6d0b;}.cls-13{fill:#e7690b;}.cls-14{fill:#e96b0b;}.cls-15{fill:#7aa650;}.cls-16{fill:#7caa49;}.cls-17{fill:#7da853;}.cls-18{fill:#7aa552;}.cls-19{fill:#75a150;}.cls-20{fill:#7daa4b;}.cls-21{fill:#739f51;}.cls-22{fill:#77a156;}.cls-23{fill:#85b04f;}.cls-24{fill:#739f4f;}.cls-25{fill:#86b34b;}.cls-26{fill:#83b43d;}.cls-27{fill:#77a44c;}.cls-28{fill:#7cab43;}.cls-29{fill:#86b448;}.cls-30{fill:#78a54d;}.cls-31{fill:#82ae4e;}.cls-32{fill:#85b24c;}.cls-33{fill:#81ae4e;}.cls-34{fill:#7aa74b;}.cls-35{fill:#79a551;}.cls-36{fill:#82ae4c;}.cls-37{fill:#84b440;}.cls-38{fill:#6f9c4d;}.cls-39{fill:#6d994f;}.cls-40{fill:#729e51;}.cls-41{fill:#7aa64f;}.cls-42{fill:#7ea566;}.cls-43{fill:#77a351;}.cls-44{fill:#fefefe;}.cls-45{fill:#e4650b;}.cls-46{fill:#e0600b;}</style></defs><title>logo</title><path class="cls-1" d="M1544.39,1335.75a3.37,3.37,0,0,0-.59,2.39c.29,5.9.62,11.79.94,17.69a4.34,4.34,0,0,0,.14.7.4.4,0,0,0,.44-.09c2.38-2.53,5.45-3.52,8.79-3.91a4.63,4.63,0,0,0,1.48-.19,10.39,10.39,0,0,1,2.84,0,6,6,0,0,0,1.74.2,18.43,18.43,0,0,1,9.47,3.72,7.91,7.91,0,0,1,3.16,5.56V1364a9.57,9.57,0,0,1-4.64,7.43,3.31,3.31,0,0,1-1.59.47h-2.78c-2.09-.25-4.11-.65-5.26-2.73a4.77,4.77,0,0,1-.34-.63c-.13-.33-.32-.71-.07-1s.75-.2,1.11,0a14.1,14.1,0,0,0,3.34,1.23,3.93,3.93,0,0,0,3.26-.75,7.77,7.77,0,0,0,3-4,1.48,1.48,0,0,0,0-1.43c-.91-2.61-3-3.89-5.45-4.69-.79-.26-1.62-.4-2.4-.68a13.25,13.25,0,0,0-3.72,0,16.45,16.45,0,0,0-6.87,2.63c-3,2.19-5.33,4.8-6.18,8.51a.85.85,0,0,1-.33.61c-1,.71-1.05,1.84-1.17,2.88-1,8.15,1.73,15.24,6.3,21.79a30.33,30.33,0,0,0,4.83,5.3,1.69,1.69,0,0,0,2,.38c1.81-.73,3.61-1.48,5.45-2.14a27.52,27.52,0,0,1,10.44-1.81c4.78.21,8.63,2.44,12,5.63,3,2.9,5.94,5.93,8.9,8.91,9.55,9.58,21.16,14.9,34.5,16.64a19.24,19.24,0,0,1,4.31,1,5.24,5.24,0,0,1,1.85,1.08.88.88,0,0,1,0,1.51,5.71,5.71,0,0,1-3.92,1.21c-5.44-.08-10.87-.24-16.3-.35q-16.6-.34-33.21.26c-5.87.21-11.74.5-17.6.81-8.54.46-17.07,1.11-25.58,1.85s-16.95,1.51-25.43,2.25c-9.67.85-19.33,1.75-29,2.53-9.32.74-18.63,1.51-28,1.86a24.29,24.29,0,0,1-12.68-3,7.33,7.33,0,0,1-3.82-6.15,14.43,14.43,0,0,1,1.59-7.16c1.29-2.62,2.69-5.17,4-7.77a25.05,25.05,0,0,0,2.61-7.67c.93-6.46-1.74-10.51-8-12.27a35,35,0,0,0-8.88-1.17,219.89,219.89,0,0,0-28.1,1.59c-23.91,2.7-47.47,7.42-71,12.23-13.22,2.69-26.36,5.74-39.64,8.08-2.79.49-5.57,1.06-8.39,1.37a28.36,28.36,0,0,1,3.26-5.42c.38-.53,1-.33,1.52,0a19.36,19.36,0,0,0,2.11,1.35,4,4,0,0,0,4.49-.34,13.74,13.74,0,0,0,5.63-8.58,4.16,4.16,0,0,0,0-1.89c-.1-.4-.34-.84,0-1.25,8.31-3.71,42-26,49.89-33.84,6.49-6.45,12.75-13.13,19.49-19.32a118.12,118.12,0,0,1,17.92-13.58c5.5-3.37,11.4-5.74,18-6,1.89-.53,3.72-.07,5.56.32a33,33,0,0,1,4.92,1.74,41.59,41.59,0,0,1,4,2.41c1.32.94,2.58,1.94,3.86,2.93,1.06,1,2.18,1.84,3.15,2.88a22,22,0,0,1,2.43,2.2q3.88,3.9,7.44,8.11c.67.71,1.21,1.53,1.91,2.22.83,1.17,1.76,2.26,2.63,3.39,1,1.37,2,2.69,2.88,4.07s1.89,2.73,2.87,4.07a39.75,39.75,0,0,0,2.64,3.77c.46.67.9,1.36,1.43,2s1.13,1.34,1.25,2.26a.53.53,0,0,0,0,.12c5,7.46,9.37,15.34,15.25,22.17a51,51,0,0,0,30.69,17.22c12.19,2.13,24.09.53,35.82-3,.88-.26.67-.59.38-1.14a35.86,35.86,0,0,1-4-20.26,80.44,80.44,0,0,1,2.8-13.94,194.16,194.16,0,0,0,4.35-19.48,48.64,48.64,0,0,0,.24-13.26,9.32,9.32,0,0,0-2.29-5,17.17,17.17,0,0,0-9.83-6.19,7.4,7.4,0,0,0-4.56.53c-1.14.91-2.55,1.37-3.71,2.28a10.8,10.8,0,0,0-4.21,6.28,3.88,3.88,0,0,1-.29.78,5.32,5.32,0,0,0,0,2.57c.64,2.69,2.56,3.9,5.07,4.45a1.51,1.51,0,0,0,1.25,0c2.63-.48,4.63-1.73,5.46-4.42a1.64,1.64,0,0,0,0-1.55,3.47,3.47,0,0,0-2.68-2.41c-.5-.15-1.12-.22-1.18-1,.45-.53,1.08-.32,1.64-.38,3,.29,5,2,5.44,4.75,0,.8,0,1.59,0,2.38-.52,3.78-4.21,6.84-8.38,7h-2.79a10.32,10.32,0,0,1-8.9-9,5.72,5.72,0,0,0-.12-1.65,2,2,0,0,1,0-.74,5.12,5.12,0,0,0,.13-1.61c.41-4,2.74-6.69,5.91-8.81a8,8,0,0,1,1.9-1,3.62,3.62,0,0,0,1.15-.3,20.08,20.08,0,0,1,10.25-1.78,1.56,1.56,0,0,0,.45-.11,15,15,0,0,1,6.18,2,21.72,21.72,0,0,1,3.67,2.66c.47.38.78.35.94-.26,1-3.78,3.2-7.1,4.52-10.77.45-1.24.68-2.53,1.1-3.78a2.87,2.87,0,0,0,0-2c-.47-1.94-1.89-2.9-3.65-3.49a1,1,0,0,0-1.26,0c-1.08.81-1,2-1,3.13a.51.51,0,0,1-.44.29,2.77,2.77,0,0,1-1.85-2.57,2.83,2.83,0,0,1,1.73-2.66,3.93,3.93,0,0,1,1.71-.49h2.35c2.77.36,4.17,2.37,5.37,4.57a13.6,13.6,0,0,1,.84,2c.18.55.53.35.87.2a22.27,22.27,0,0,1,3.43-.73,5.6,5.6,0,0,0,1.68-.15,2.92,2.92,0,0,1,1.14,0,4.23,4.23,0,0,0,1.46.16,7.34,7.34,0,0,1,5.59,3.84,3.76,3.76,0,0,1-.57,4.45,9.6,9.6,0,0,1-4,2.89c-.38.15-.85.3-1.1-.08s.13-.74.4-1a11.37,11.37,0,0,0,2.11-2.87,1.68,1.68,0,0,0,0-1.69,5.18,5.18,0,0,0-3.2-2.15,2.81,2.81,0,0,0-1.81,0,13.34,13.34,0,0,0-3.51,1.47c-2.72,1.78-3.82,4.48-4.32,7.52a5.55,5.55,0,0,1-.3,1.51,1.89,1.89,0,0,0-.13,1.28,2.52,2.52,0,0,1-.19.81,4.39,4.39,0,0,0-.12,1.35,3.84,3.84,0,0,1-.09.68,2.65,2.65,0,0,0,0,1.67C1543.94,1334.2,1544.51,1334.9,1544.39,1335.75Z" transform="translate(-1188.75 -1291.09)"/><path class="cls-2" d="M1299.71,1434.61c18-4,35.86-8.87,53.85-13.08,11-2.59,22.11-5,33.35-6.54a151.12,151.12,0,0,1,19.59-1.46,28.65,28.65,0,0,1,10.15,1.37c4.33,1.57,5.92,4.61,4.79,9a21.28,21.28,0,0,1-1.66,4.22c-1.88,3.75-4.22,7.24-6.46,10.78-1.49,2.36-3,4.71-4.27,7.21a15.13,15.13,0,0,0-1.14,2.76,4.58,4.58,0,0,0,1.88,5.46,18,18,0,0,0,8,2.73c7,1.09,14.1.89,21.17.57,8.39-.38,16.74-1.22,25.06-2.28,7.64-1,15.26-2.11,22.9-3.15,6.84-.94,13.68-1.89,20.53-2.77s13.55-1.7,20.33-2.48c6.35-.74,12.7-1.45,19.06-2,9.55-.9,19.12-1.59,28.71-1.7a167.29,167.29,0,0,1,26.19,1.43,125.19,125.19,0,0,1,19.39,4.26c.64.2,1.25.47,2,.78a2.47,2.47,0,0,1-1.66.46,78.42,78.42,0,0,1-10-.54,106,106,0,0,0-12.22-.09q-9.76.35-19.52.87c-6.27.31-12.52.75-18.75,1.48-4.92.58-9.88.75-14.79,1.38-12,1.55-24.08,3.09-36,5.35-18.27,3.47-36.42,7.5-54.67,11.09-8.54,1.68-17.17,2.86-25.8,4-6.46.82-12.9,1.77-19.4,2.25s-13,.75-19.43-.82a15.59,15.59,0,0,1-3.67-1.42,7.6,7.6,0,0,1-3.86-8.16,77.54,77.54,0,0,1,4.57-14c1.7-4.21,3.67-8.32,5.27-12.58,1.48-3.92.75-5.18-3.37-5.66a47.92,47.92,0,0,0-12.54.67c-18.71,2.78-36.9,7.83-55,13.06-25.68,7.42-51.16,15.45-76.26,24.67-3.3,1.22-6.51,2.64-9.76,4a30.85,30.85,0,0,1-3.62,1.23,7.45,7.45,0,0,1-9.55-5.74,8.8,8.8,0,0,1-.11-3.77,8.37,8.37,0,0,1,1-2.56,11.48,11.48,0,0,1,2.64-3.12,45.64,45.64,0,0,1,3.79-2.73l2.53-1.81c.27-.44.69-.29,1.08-.27a37,37,0,0,0,7.51-.15c4.25-.6,6.32-3.38,5.78-7.63a18.28,18.28,0,0,0-3.32-8,4.88,4.88,0,0,1-.92-1.92c-.07-.43-.18-.88.27-1.2a3.63,3.63,0,0,1,2,.32c1.32.42,2.32.58,2.62.67a26.46,26.46,0,0,0,5.85.74,89.48,89.48,0,0,0,10.51,0c1.08,0,2.13-.4,3.22-.17.58.14.79.61,1,1.1a16.81,16.81,0,0,1,1.18,6.42,7.73,7.73,0,0,0,2.3,5.84,7.26,7.26,0,0,0,4.55,1.9,20.81,20.81,0,0,0,9.18-1.23,23.93,23.93,0,0,0,5.26-2.56,20.27,20.27,0,0,0,8.72-13.87C1301,1429.25,1229.68,1458.12,1299.71,1434.61Z" transform="translate(-1188.75 -1291.09)"/><path class="cls-3" d="M1514.48,1327.76c-.24.57-.82.72-1.29,1a12.75,12.75,0,0,0-6.08,7.5,5.26,5.26,0,0,0-.14,1.17c-.26.56,0,1.18-.19,1.74v.75c.24.54-.09,1.15.2,1.69.33,4,4.15,8.37,8.36,8.61a9.73,9.73,0,0,0,3.23,0c3.72-.1,7.43-3.17,7.85-6.5a6.09,6.09,0,0,0,0-2.62,5.28,5.28,0,0,0-5-4.33c-1.29-.21-1.29-.21-1.69.24a6.74,6.74,0,0,0,1.08.46,3.63,3.63,0,0,1,3,2.68,3.5,3.5,0,0,1,0,1.64c-.84,2.91-3,4.2-5.8,4.61a1.87,1.87,0,0,1-1.17,0,10.58,10.58,0,0,1-2.91-1,5.55,5.55,0,0,1-2.4-3.58,8.85,8.85,0,0,1,0-2.86,12.42,12.42,0,0,1,7.12-8.7,12.56,12.56,0,0,1,1.34-.48,21.59,21.59,0,0,1,10.22,9.35,17.68,17.68,0,0,1,.93,14.24,23.59,23.59,0,0,1-6.4,8.66,15.66,15.66,0,0,1-4.2,2.71,24.77,24.77,0,0,1-8.65,2.56,9.08,9.08,0,0,0-2.27.17,3.61,3.61,0,0,1-1.39,0,9.24,9.24,0,0,0-2.29-.17,24.15,24.15,0,0,1-15.08-7.28,19.1,19.1,0,0,1-5-10.13,4.67,4.67,0,0,0-.2-1.53,5.89,5.89,0,0,1,.27-3.14c1-9.38,8.2-15.32,16.64-17.28A26,26,0,0,1,1514.48,1327.76Z" transform="translate(-1188.75 -1291.09)"/><path class="cls-4" d="M1543.9,1329.59l.16-.76a3.12,3.12,0,0,1,.07-1.14,25.81,25.81,0,0,1,1.28-5.18,9.44,9.44,0,0,1,7.17-5.67,5.21,5.21,0,0,1,5.25,2.2,3.36,3.36,0,0,1,0,1.91,10.65,10.65,0,0,1-2.82,3.64c.13.11.18.19.23.18,2.24-.21,5.26-2.9,5.66-5a2.81,2.81,0,0,0-.33-1.85,7,7,0,0,0-5.37-3.89c-.45-.27-1,0-1.44-.2h-1.23c-.54.25-1.16-.08-1.7.2l-3.57.75a.63.63,0,0,1-1-.29c-.89-2.43-2-4.71-4.4-6a2.3,2.3,0,0,0-1.34-.43,6.69,6.69,0,0,0-2.71,0,3.13,3.13,0,0,0-2.92,2.21c-.41,1.43.54,2.27,1.49,3.09.31.12.42,0,.31-.3a2.61,2.61,0,0,1,.93-3.29,2,2,0,0,1,1.43,0c1.89.58,3.39,1.57,3.88,3.65a5.35,5.35,0,0,1,0,2.11c-.77,4.17-2.9,7.79-4.53,11.62-.49,1.17-.85,2.39-1.25,3.59-.16.47-.3.75-.78.26a18.74,18.74,0,0,0-9.68-5.13,1.82,1.82,0,0,1-.43-.19c-2.6-5.17-3.74-10.49-1.58-16.11a20.27,20.27,0,0,1,8.1-9.78c.4-.26.79-.53,1.18-.8a7.47,7.47,0,0,1,2.85-1.64,26.59,26.59,0,0,1,7.23-1.78c1.7,0,3.4,0,5.1,0,5.09.59,9.85,2,13.88,5.37a17.53,17.53,0,0,1,6.37,11.69,24.13,24.13,0,0,1-2,12.27,7.4,7.4,0,0,1-.78,1.19c-1.85,1.7-3.7,3.41-5.56,5.1a17.36,17.36,0,0,1-10.58,4.24c-2.06.18-4.13.3-6.2.44a5.89,5.89,0,0,1-.74-2.34,3.68,3.68,0,0,1,0-1.65l0-.69C1544,1330.61,1543.67,1330.06,1543.9,1329.59Z" transform="translate(-1188.75 -1291.09)"/><path class="cls-3" d="M1569.14,1363.86a7.75,7.75,0,0,1-3,4.29,4.53,4.53,0,0,1-4.71.58c-1-.39-2-.85-3.07-1.29,0,2.15,2.22,3.87,5.18,4.12a9.24,9.24,0,0,0,3.19,0,3.9,3.9,0,0,0,2.44-1.14,9.71,9.71,0,0,0,3.34-6.26,5.62,5.62,0,0,0,0-2.45,7.28,7.28,0,0,0-3-5.17,16,16,0,0,0-8.06-3.44c-.38,0-.76-.17-1.14-.25-.53-.29-1.14,0-1.68-.2h-3.15c-.49.21-1-.05-1.51.19a14.74,14.74,0,0,0-7,2.59,13.43,13.43,0,0,0-1.59,1.42c-.65.66-.26-.23-.43-.3a22.13,22.13,0,0,1,12.47-10.53c4.24-1.52,8.6-1.45,13-1a9.91,9.91,0,0,1,3.14.67c7.24,3.41,12.78,8.23,13.94,16.71,0,1.19,0,2.39,0,3.57-.88,7.8-7.44,15.28-14.65,16.73-10.22,3-20.33-.06-26.31-8a12.24,12.24,0,0,1-2.57-5.84c.14-2.67,1.6-4.71,3.25-6.62a15.5,15.5,0,0,1,10-5.36,19,19,0,0,1,4.06,0,19.9,19.9,0,0,1,4.48,1.52,7.11,7.11,0,0,1,3.48,4A2.42,2.42,0,0,1,1569.14,1363.86Z" transform="translate(-1188.75 -1291.09)"/><path class="cls-5" d="M1409.81,1330.32a42.37,42.37,0,0,0-5.73-.63c2.07-5.29,5.85-9.17,10.4-12.37,8.38-5.9,17.77-7.93,27.84-7a35.94,35.94,0,0,1,24,12,28.83,28.83,0,0,1,7.1,15.18,9.5,9.5,0,0,1,.06,1.31,28.88,28.88,0,0,1-2.54,13.72c-4.06,8.66-10.92,14.14-19.81,17.28-.49.17-1,.4-1.49.06a8.09,8.09,0,0,1-1.38-1.91c-.26-1,.62-1,1.14-1.16a35.46,35.46,0,0,0,8.45-4.2,26.6,26.6,0,0,0,11-15.09c2.26-8.25.38-15.67-4.86-22.26s-12.13-10-20.27-11.15a32.68,32.68,0,0,0-26.1,7.28,28.72,28.72,0,0,0-6.61,8.14C1410.69,1330,1410.54,1330.57,1409.81,1330.32Z" transform="translate(-1188.75 -1291.09)"/><path class="cls-6" d="M1508.23,1367.21h1.36c.79-.28,1.64.08,2.43-.21a23.56,23.56,0,0,0,17.18-10.41c.71-1,.85-2.42,1.93-3.23a19.27,19.27,0,0,1-9.34,15,26.77,26.77,0,0,1-31.81-2.81c-5.22-4.81-7-10.8-5.28-17.73a6.32,6.32,0,0,1,1.18-2.58c0,1.08,0,2.16,0,3.24.24.48,0,1,.19,1.49,1.78,8.43,7.2,13.43,15.14,16a15.94,15.94,0,0,0,4.57,1C1506.59,1367.28,1507.44,1366.93,1508.23,1367.21Z" transform="translate(-1188.75 -1291.09)"/><path class="cls-7" d="M1543.93,1295.77a29.48,29.48,0,0,0-9.9,3.11,8.61,8.61,0,0,1,3.28-3.85,21.51,21.51,0,0,1,10.24-3.69c9.32-1.19,16.81,2,21.86,9.92,4.67,7.37,4,14.91-.29,22.27a5.68,5.68,0,0,1-2.39,2.44,47.78,47.78,0,0,0,2.23-7.15,18.28,18.28,0,0,0-11.26-20.91,36,36,0,0,0-8.29-2.17A31.35,31.35,0,0,0,1543.93,1295.77Z" transform="translate(-1188.75 -1291.09)"/><path class="cls-6" d="M1587.13,1362.21a24.36,24.36,0,0,0-2.33-6.7c-1.73-3.21-4.44-5.37-7.41-7.28q-2-1.24-3.91-2.51a24.36,24.36,0,0,1,13.46,5.67,16.52,16.52,0,0,1,1.57,23.92,22.75,22.75,0,0,1-15.73,7.42,28.3,28.3,0,0,0,7.34-4.1,20,20,0,0,0,7-12.37A17.7,17.7,0,0,0,1587.13,1362.21Z" transform="translate(-1188.75 -1291.09)"/><path class="cls-8" d="M1449.59,1369.89a28.59,28.59,0,0,0,7.39-3,32.91,32.91,0,0,0,8.06-6.28,29,29,0,0,0,7.65-14.82c.46-2.31.42-4.66.74-7a24,24,0,0,1-.28,9c-2.49,11.69-9.05,19.91-20.6,23.78-.49.17-1,.28-1.5.42A9.77,9.77,0,0,1,1449.59,1369.89Z" transform="translate(-1188.75 -1291.09)"/><path class="cls-9" d="M1409.81,1330.32c.87-.2.91-1.07,1.25-1.64,4.63-7.86,11.62-12.45,20.35-14.39a33.06,33.06,0,0,1,22.2,2.51,30.12,30.12,0,0,1,9.23,6.68,25.94,25.94,0,0,1,7,15.09c.75,7.17-1.49,13.37-5.95,18.89-3.75,4.65-8.65,7.55-14.17,9.56-.55.2-1.34.11-1.5,1a20.45,20.45,0,0,1-2.65-3.81c-.24-1,.58-.9,1.08-1.05a27.81,27.81,0,0,0,10.2-5.41,21.78,21.78,0,0,0,7.84-14.13c.84-6.61-1.34-12.32-5.79-17.11a26.31,26.31,0,0,0-18.05-8.34,27.61,27.61,0,0,0-19.83,6.25,22.79,22.79,0,0,0-5,5.88c-.4.63-.61,1.41-1.34,1.79Z" transform="translate(-1188.75 -1291.09)"/><path class="cls-10" d="M1414.62,1332.05c3.81-7.53,10.11-11.77,18.14-13.71a23.19,23.19,0,0,1,5.78-.69,28.65,28.65,0,0,1,11.6,2.35,26.37,26.37,0,0,1,9.15,6.39,21.91,21.91,0,0,1,5.72,12.35c.87,7.72-2.16,13.92-7.71,19a25.88,25.88,0,0,1-10.66,5.69c-.43.12-1,.09-1.08.75a31.76,31.76,0,0,1-2.89-4.12c.34-.7,1-.67,1.64-.82,5.7-1.52,10.41-4.45,13.41-9.68,4-6.89,2.74-14.58-2.45-20.25a21,21,0,0,0-14.35-6.85c-8.12-.64-14.86,2.14-19.93,8.64a24.55,24.55,0,0,0-1.57,2.55c-.21.36-.35.85-.94.74Z" transform="translate(-1188.75 -1291.09)"/><path class="cls-11" d="M1418.48,1334.38c1.14-1.19,1.67-2.77,2.68-4.06a21.32,21.32,0,0,1,9.14-6.7,21,21,0,0,1,9.09-1.67c8.1.55,14.84,3.69,18.89,11.07a16,16,0,0,1,.77,14.47c-2.84,6.72-8.13,10.4-15,12.08-.46.12-.9.32-1.36.47a38.92,38.92,0,0,1-2.91-4.06,3.24,3.24,0,0,1,1.9-.59c6.22-1.15,10.88-4.24,13-10.47,1.9-5.58-.88-11.65-4.63-14.49a17.89,17.89,0,0,0-22.5.16,13.74,13.74,0,0,0-4.1,5.67c-.2.48-.23,1.28-1.15,1Z" transform="translate(-1188.75 -1291.09)"/><path class="cls-12" d="M1422.27,1337.28c.51,0,.61-.44.76-.82,2.38-6.06,7.1-9,13.32-10a17.32,17.32,0,0,1,13.86,3.74,13.67,13.67,0,0,1,5.22,9.31,13.29,13.29,0,0,1-4.34,11.71,16,16,0,0,1-9.68,4.49c-.55.06-1.1.17-1.65.26a23.76,23.76,0,0,1-2.62-3.37c.58-.52,1.3-.29,1.95-.32,4.16-.22,7.68-1.67,10.29-5a10.31,10.31,0,0,0-1.58-14,13.61,13.61,0,0,0-17.81,0,10.34,10.34,0,0,0-3.52,5.86c-.12.49,0,1.29-1,1.08Z" transform="translate(-1188.75 -1291.09)"/><path class="cls-13" d="M1435.28,1350.42l-7.49-8.11a6.39,6.39,0,0,0,.2-1.3,9.23,9.23,0,0,1,4.74-8,11.68,11.68,0,0,1,15.57,3.13,9.14,9.14,0,0,1-1.92,12C1443,1350.81,1439.3,1351.23,1435.28,1350.42Z" transform="translate(-1188.75 -1291.09)"/><path class="cls-14" d="M1435.28,1350.42c.38-.36.83-.23,1.25-.16a11.12,11.12,0,0,0,10.19-2.82,8.57,8.57,0,0,0,1.08-11.41c-3.56-5-11.12-5.67-15.8-2.1a8.77,8.77,0,0,0-3.69,7.36c0,.42.14.93-.52,1l-2.32-2.19c.46,0,.58-.4.65-.74,1.09-5.38,4.65-8.27,9.74-9.45a13.12,13.12,0,0,1,12.51,3.35,10.43,10.43,0,0,1,1,14.45c-2.8,3.44-6.49,4.82-10.81,4.87h-1.44A13.47,13.47,0,0,1,1435.28,1350.42Z" transform="translate(-1188.75 -1291.09)"/><path class="cls-15" d="M1561.18,1356.89h-4.06A8.09,8.09,0,0,1,1561.18,1356.89Z" transform="translate(-1188.75 -1291.09)"/><path class="cls-16" d="M1566.71,1371.54a4.66,4.66,0,0,1-3.19,0Z" transform="translate(-1188.75 -1291.09)"/><path class="cls-17" d="M1518.57,1350.22a4.81,4.81,0,0,1-3.22,0Z" transform="translate(-1188.75 -1291.09)"/><path class="cls-18" d="M1519.71,1337c-.25,0-.54,0-.55-.29s.28-.2.45-.18c.6,0,1.24-.19,1.79.23C1520.84,1336.88,1520.22,1336.55,1519.71,1337Z" transform="translate(-1188.75 -1291.09)"/><path class="cls-19" d="M1511.52,1339c0,1,0,1.91,0,2.86A4,4,0,0,1,1511.52,1339Z" transform="translate(-1188.75 -1291.09)"/><path class="cls-20" d="M1537.88,1308a3.36,3.36,0,0,1,2.71,0Z" transform="translate(-1188.75 -1291.09)"/><path class="cls-21" d="M1526.42,1341.1a3,3,0,0,1,0,2.62Z" transform="translate(-1188.75 -1291.09)"/><path class="cls-22" d="M1572.48,1361.69a3,3,0,0,1,0,2.45C1572.49,1363.32,1572.48,1362.5,1572.48,1361.69Z" transform="translate(-1188.75 -1291.09)"/><path class="cls-23" d="M1543,1315.42v-2.11A2.37,2.37,0,0,1,1543,1315.42Z" transform="translate(-1188.75 -1291.09)"/><path class="cls-24" d="M1557.85,1321c0-.64,0-1.28,0-1.91A1.78,1.78,0,0,1,1557.85,1321Z" transform="translate(-1188.75 -1291.09)"/><path class="cls-25" d="M1554.46,1316.84h-1.88A2,2,0,0,1,1554.46,1316.84Z" transform="translate(-1188.75 -1291.09)"/><path class="cls-26" d="M1543.65,1331.76v1.65A1.58,1.58,0,0,1,1543.65,1331.76Z" transform="translate(-1188.75 -1291.09)"/><path class="cls-27" d="M1558.58,1352.63c.57,0,1.16-.2,1.68.2C1559.7,1352.77,1559.1,1353,1558.58,1352.63Z" transform="translate(-1188.75 -1291.09)"/><path class="cls-28" d="M1507,1341.6c-.41-.52-.2-1.12-.2-1.69C1507.19,1340.43,1506.92,1341,1507,1341.6Z" transform="translate(-1188.75 -1291.09)"/><path class="cls-29" d="M1523.81,1341.79v-1.64A1.52,1.52,0,0,1,1523.81,1341.79Z" transform="translate(-1188.75 -1291.09)"/><path class="cls-28" d="M1506.78,1339.16c0-.59-.21-1.19.19-1.73C1506.92,1338,1507.18,1338.62,1506.78,1339.16Z" transform="translate(-1188.75 -1291.09)"/><path class="cls-30" d="M1550.85,1314c.53-.4,1.13-.2,1.7-.2C1552,1314.2,1551.42,1313.93,1550.85,1314Z" transform="translate(-1188.75 -1291.09)"/><path class="cls-31" d="M1539.12,1309.66l-1.43,0A1.08,1.08,0,0,1,1539.12,1309.66Z" transform="translate(-1188.75 -1291.09)"/><path class="cls-32" d="M1569.14,1363.86v-1.41A1.13,1.13,0,0,1,1569.14,1363.86Z" transform="translate(-1188.75 -1291.09)"/><path class="cls-33" d="M1553.92,1352.82c.46-.36,1-.2,1.51-.19C1555,1353,1554.42,1352.77,1553.92,1352.82Z" transform="translate(-1188.75 -1291.09)"/><path class="cls-34" d="M1553.78,1313.79c.49,0,1-.19,1.44.2C1554.74,1313.94,1554.21,1314.18,1553.78,1313.79Z" transform="translate(-1188.75 -1291.09)"/><path class="cls-35" d="M1543.9,1329.59a2.11,2.11,0,0,1-.2,1.48C1543.75,1330.58,1543.5,1330,1543.9,1329.59Z" transform="translate(-1188.75 -1291.09)"/><path class="cls-36" d="M1544.13,1327.69a2.21,2.21,0,0,1-.07,1.14A1,1,0,0,1,1544.13,1327.69Z" transform="translate(-1188.75 -1291.09)"/><path class="cls-37" d="M1516.84,1346.4H1518A.85.85,0,0,1,1516.84,1346.4Z" transform="translate(-1188.75 -1291.09)"/><path class="cls-38" d="M1546.33,1314.45a1.32,1.32,0,0,0,1,.29C1546.84,1315.05,1546.47,1315.16,1546.33,1314.45Z" transform="translate(-1188.75 -1291.09)"/><path class="cls-39" d="M1536.76,1313c.21.19.44.48.19.68s-.37-.19-.5-.38Z" transform="translate(-1188.75 -1291.09)"/><path class="cls-40" d="M1508.23,1367.21c-.81-.07-1.65.23-2.43-.2A5.4,5.4,0,0,1,1508.23,1367.21Z" transform="translate(-1188.75 -1291.09)"/><path class="cls-40" d="M1512,1367c-.78.44-1.62.14-2.43.21A5.54,5.54,0,0,1,1512,1367Z" transform="translate(-1188.75 -1291.09)"/><path class="cls-41" d="M1486.09,1349.94c-.39-.45-.14-1-.19-1.49A2.14,2.14,0,0,1,1486.09,1349.94Z" transform="translate(-1188.75 -1291.09)"/><path class="cls-42" d="M1543.93,1295.77a14.64,14.64,0,0,1,5.48,0Z" transform="translate(-1188.75 -1291.09)"/><path class="cls-43" d="M1587.13,1362.21a7.83,7.83,0,0,1,0,4Z" transform="translate(-1188.75 -1291.09)"/><path class="cls-44" d="M1194.78,1491.15a40.27,40.27,0,0,1-4.43-.46c-1.47-.33-1.92-1.12-1.38-2.54a12.32,12.32,0,0,1,.86-1.7c3.12-5.56,6.52-11,9.4-16.66a15,15,0,0,1,2.51-3.63c.71-.74,1.24-.82,1.85.13a24.32,24.32,0,0,1,1.72,3c2.69,6,5.09,12,7.29,18.18.65,1.81.4,2.22-1.48,2.65a14.82,14.82,0,0,1-3,.38C1203.53,1490.65,1198.9,1490.71,1194.78,1491.15Z" transform="translate(-1188.75 -1291.09)"/><path class="cls-44" d="M1459.9,1513.7c-2.4,0-4.79,0-7.18,0a6.24,6.24,0,0,1-1.43-.13c-1-.23-1.37-.75-.79-1.6,2.89-4.31,6-8.32,11.74-8.93a9.45,9.45,0,0,1,5.79,1,7,7,0,0,1,3.23,7.18,2.26,2.26,0,0,1-2,1.73,41,41,0,0,1-6,.28l-3.34.17Z" transform="translate(-1188.75 -1291.09)"/><path class="cls-45" d="M1446.8,1341.1a6.68,6.68,0,0,1-3.26,5.75,8.67,8.67,0,0,1-10.56-1,6.63,6.63,0,0,1,1-10.4,8.5,8.5,0,0,1,11.81,2.11A6.76,6.76,0,0,1,1446.8,1341.1Z" transform="translate(-1188.75 -1291.09)"/><path class="cls-46" d="M1438.92,1337.5c2.11,0,4,1.82,3.95,3.67a4,4,0,0,1-4.11,3.52c-2.09-.1-3.91-1.78-3.89-3.61A4,4,0,0,1,1438.92,1337.5Z" transform="translate(-1188.75 -1291.09)"/><polygon class="cls-1" points="96.29 122.03 110.06 111.34 118.24 119.03 102.49 125.9 96.29 122.03"/><polygon class="cls-2" points="78.67 148.49 110.96 143.52 114.33 154.29 105.36 160.21 96.29 163.89 91.1 165.27 82.59 165.27 79.6 160.44 76.84 155.6 78.67 148.49"/><path class="cls-2" d="M1232.54,1471.77c10.16-1.1,22.78-10.18,21.85-20.93-.49-5.77-4.91-12.29-10.15-12.78-5.61-.51-9.85,6.13-14.69,13.7-3.12,4.88-9,14-5.75,18.17C1225.81,1472.51,1230.42,1472,1232.54,1471.77Z" transform="translate(-1188.75 -1291.09)"/></svg>