<svg id="Camada_1" data-name="Camada 1" xmlns="http://www.w3.org/2000/svg" viewBox="0 0 1897.88 823.13"><defs><style>.cls-1{fill:#c0bfc0;}.cls-2{fill:#a8a8a8;}.cls-3{fill:#797878;}.cls-4{fill:#75ac22;}.cls-5{fill:#0594e4;}.cls-6{fill:#00391c;}.cls-7{fill:#01391d;}.cls-8{fill:#363335;}.cls-9{fill:#fb820a;}.cls-10{fill:#74aa24;}.cls-11{fill:#75ac25;}.cls-12{fill:#fd830a;}.cls-13{fill:#5c5a5b;}.cls-14{fill:#787677;}.cls-15{fill:#5f5c5e;}.cls-16{fill:#4a4749;}.cls-17{fill:#999899;}.cls-18{fill:#626061;}.cls-19{fill:#c4dba2;}.cls-20{fill:#d5d5d5;}.cls-21{fill:#989798;}.cls-22{fill:#ddeacb;}.cls-23{fill:#ccc;}.cls-24{fill:#5b595b;}.cls-25{fill:#565355;}.cls-26{fill:#e9e9e9;}.cls-27{fill:#e6f0d8;}.cls-28{fill:#656364;}.cls-29{fill:#737172;}.cls-30{fill:#90bd4e;}.cls-31{fill:#575557;}.cls-32{fill:#f0f5e7;}.cls-33{fill:#545153;}.cls-34{fill:#5a5859;}.cls-35{fill:#fda852;}.cls-36{fill:#d6d5d6;}.cls-37{fill:#e8e7e8;}.cls-38{fill:#6b696a;}.cls-39{fill:#d4d4d4;}.cls-40{fill:#504e50;}.cls-41{fill:#aacc79;}.cls-42{fill:#9fd5f4;}.cls-43{fill:#969696;}.cls-44{fill:#bccfaf;}.cls-45{fill:#b3b1b2;}.cls-46{fill:#8c8a8c;}.cls-47{fill:#a9a8a9;}.cls-48{fill:#a5a4a4;}.cls-49{fill:#fdd5ad;}.cls-50{fill:#7e7c7d;}.cls-51{fill:#fd9a35;}.cls-52{fill:#8b8a8b;}.cls-53{fill:#a2a0a0;}.cls-54{fill:#b6b5b6;}.cls-55{fill:#b3d287;}.cls-56{fill:#8e8c8e;}.cls-57{fill:#aaa;}.cls-58{fill:#d3e4bb;}.cls-59{fill:#b1d082;}.cls-60{fill:#767676;}.cls-61{fill:#b7d38c;}.cls-62{fill:#1d1d1d;}.cls-63{fill:#81c9f1;}.cls-64{fill:#8f8d8f;}.cls-65{fill:#8bcef2;}.cls-66{fill:#969596;}.cls-67{fill:#f97e0a;}.cls-68{fill:#f5790a;}.cls-69{fill:#f0740a;}.cls-70{fill:#ed6f0b;}.cls-71{fill:#e86a0b;}.cls-72{fill:#ea6c0b;}.cls-73{fill:#7aa651;}.cls-74{fill:#7da853;}.cls-75{fill:#7aa552;}.cls-76{fill:#83b148;}.cls-77{fill:#83b04b;}.cls-78{fill:#75a150;}.cls-79{fill:#739f51;}.cls-80{fill:#87b34b;}.cls-81{fill:#77a156;}.cls-82{fill:#5e894f;}.cls-83{fill:#7dad41;}.cls-84{fill:#85b04f;}.cls-85{fill:#739f4f;}.cls-86{fill:#83b33d;}.cls-87{fill:#82ae52;}.cls-88{fill:#79a64c;}.cls-89{fill:#83af4d;}.cls-90{fill:#82af4d;}.cls-91{fill:#86b448;}.cls-92{fill:#7ead42;}.cls-93{fill:#83b43d;}.cls-94{fill:#79a551;}.cls-95{fill:#81ad4e;}.cls-96{fill:#85b24c;}.cls-97{fill:#66934d;}.cls-98{fill:#719e4b;}.cls-99{fill:#7eaa50;}.cls-100{fill:#7fab4d;}.cls-101{fill:#73a148;}.cls-102{fill:#77a34f;}.cls-103{fill:#6e9a4f;}.cls-104{fill:#025481;}.cls-105{fill:#012d45;}.cls-106{fill:#f4dc80;}.cls-107{fill:#316b3c;}.cls-108{fill:#c9ad62;}.cls-109{fill:#f3da7d;}.cls-110{fill:#989765;}.cls-111{fill:#817d4c;}.cls-112{fill:#8f7531;}.cls-113{fill:#2c6a35;}.cls-114{fill:#ec3237;}.cls-115{fill:#be3538;}.cls-116{fill:#f4dc81;}.cls-117{fill:#98c84d;}.cls-118{fill:#98c84e;}.cls-119{fill:#f3db81;}.cls-120{fill:#4b7417;}.cls-121{fill:#585955;}.cls-122{fill:#b1c790;}.cls-123{fill:#366842;}.cls-124{fill:#efd881;}.cls-125{fill:#f0d981;}.cls-126{fill:#4b6450;}.cls-127{fill:#48544a;}.cls-128{fill:#49684f;}.cls-129{fill:#94854e;}.cls-130{fill:#224127;}.cls-131{fill:#1a1111;}.cls-132{fill:#465649;}.cls-133{fill:#131212;}.cls-134{fill:#272724;}.cls-135{fill:#485e4c;}.cls-136{fill:#a3585a;}.cls-137{fill:#485f4d;}.cls-138{fill:#cc585b;}.cls-139{fill:#455848;}.cls-140{fill:#1f1f1a;}.cls-141{fill:#9c926e;}.cls-142{fill:#435848;}.cls-143{fill:#150e0e;}.cls-144{fill:#a0595a;}.cls-145{fill:#bc5457;}.cls-146{fill:#55503e;}.cls-147{fill:#797052;}.cls-148{fill:#ad585a;}.cls-149{fill:#b55456;}.cls-150{fill:#c04f51;}.cls-151{fill:#847240;}.cls-152{fill:#6f6f6d;}.cls-153{fill:#729d51;}.cls-154{fill:#81ac52;}.cls-155{fill:#7aa64e;}.cls-156{fill:#7aa64f;}.cls-157{fill:#84b04f;}.cls-158{fill:#81ae4c;}.cls-159{fill:#86ac69;}.cls-160{fill:#77a351;}.cls-161{fill:#81ad50;}.cls-162{fill:#fefefe;}.cls-163{fill:#dbdadb;}.cls-164{fill:#605d5f;}.cls-165{fill:#b9b9b9;}.cls-166{fill:#acabac;}.cls-167{fill:#828081;}.cls-168{fill:#939192;}.cls-169{fill:#e5650b;}.cls-170{fill:#010100;}.cls-171{fill:#020201;}.cls-172{fill:#010101;}.cls-173{fill:#0694e3;}.cls-174{fill:#f67c0b;}.cls-175{fill:#073d1f;}.cls-176{fill:#043c1d;}.cls-177{fill:#8c8b5f;}.cls-178{fill:#023b1d;}.cls-179{fill:#525042;}.cls-180{fill:#68942f;}.cls-181{fill:#918f61;}.cls-182{fill:#979664;}.cls-183{fill:#1795d4;}.cls-184{fill:#575445;}.cls-185{fill:#545243;}.cls-186{fill:#67654d;}.cls-187{fill:#4c4a40;}.cls-188{fill:#959363;}.cls-189{fill:#615f4a;}.cls-190{fill:#4b483f;}.cls-191{fill:#605d49;}.cls-192{fill:#989764;}.cls-193{fill:#5d5b48;}.cls-194{fill:#4d4b40;}.cls-195{fill:#555344;}.cls-196{fill:#5a5846;}.cls-197{fill:#585646;}.cls-198{fill:#535143;}.cls-199{fill:#85a340;}.cls-200{fill:#595746;}.cls-201{fill:#545143;}.cls-202{fill:#4d4a40;}.cls-203{fill:#d88b2b;}.cls-204{fill:#949262;}.cls-205{fill:#6e6d50;}.cls-206{fill:#4e4b40;}.cls-207{fill:#4396ae;}.cls-208{fill:#727051;}.cls-209{fill:#535042;}.cls-210{fill:#3b3837;}.cls-211{fill:#565344;}.cls-212{fill:#73aa22;}.cls-213{fill:#0891d6;}.cls-214{fill:#ed760b;}.cls-215{fill:#4a8428;}.cls-216{fill:#158299;}.cls-217{fill:#053e1e;}.cls-218{fill:#0e4820;}.cls-219{fill:#053f1e;}.cls-220{fill:#49842d;}.cls-221{fill:#0890d4;}.cls-222{fill:#0f0a0a;}.cls-223{fill:#b15759;}.cls-224{fill:#331d1e;}.cls-225{fill:#9d5253;}.cls-226{fill:#090606;}.cls-227{fill:#5a393a;}.cls-228{fill:#e1610b;}.cls-229{fill:#e86b0b;}.cls-230{fill:#c1871b;}.cls-231{fill:#65932c;}.cls-232{fill:#3a682b;}</style></defs><title>logo</title><path class="cls-1" d="M1897.23,819.39l1.4,0v16.43l-1.38,0a4.36,4.36,0,0,1-1.25-4C1896.37,827.71,1894.73,823.34,1897.23,819.39Z" transform="translate(-0.75 -109.41)"/><path class="cls-2" d="M266.54,109.41a.84.84,0,0,0,0,.66,5.17,5.17,0,0,1-6.82,0,6.2,6.2,0,0,1,.06-.62Z" transform="translate(-0.75 -109.41)"/><path class="cls-3" d="M1.45,822.48l-.36.07-.34-.13v-3.73l.78.07A2.57,2.57,0,0,1,1.45,822.48Z" transform="translate(-0.75 -109.41)"/><path class="cls-4" d="M1318.69,241.83c3.06,0,5.68-1.56,8.51-2.38a104.67,104.67,0,0,1,31.55-4.48,10.47,10.47,0,0,0,5.74-.21c10.82,1.41,21.08,4.49,30.4,10.3,2.42,1.51,4.87,3,7.19,4.66,1.81,1.3,2.83,1,3.53-1.11,3.35-10.22,9.73-18.88,14.69-28.28a68.22,68.22,0,0,0,6.47-17,8.74,8.74,0,0,0,0-6.17,13.77,13.77,0,0,0-10-9.38,19.47,19.47,0,0,1-3.75-1.47,5.25,5.25,0,0,0-5.15.1c-3.8,2.23-4.45,5.71-3.83,9.69a1.59,1.59,0,0,1-1.26,1,7.5,7.5,0,0,1-6.1-6.53,20.34,20.34,0,0,1,0-3.66c1.51-6.21,6.73-6.74,11.71-7.64,3.17,0,6.34-.11,9.51.08,10.44,1.41,17,7.88,21.55,16.8,2,3.83,2.45,4.17,6.65,3.33,4-.8,8.09-.94,12.12-1.55,2.18,0,4.38.25,6.52-.44a9.15,9.15,0,0,1,3.65,0c1.91.65,3.89.44,5.86.46a29,29,0,0,1,20.82,11.56,9.75,9.75,0,0,1-.24,12.13c-4.94,6.31-11.58,9.91-19.37,11.49a1.69,1.69,0,0,1-1.29-1c-.21-1.93,1.25-2.8,2.45-3.8a23.87,23.87,0,0,0,6.82-8.06,5.21,5.21,0,0,0-.16-5.14c-2.9-4.35-7.72-5.12-12.17-6.57a13,13,0,0,0-6.91,0,44.75,44.75,0,0,0-18.41,7.69c-5.19,3.83-8.33,9.07-10.32,15.09a32.43,32.43,0,0,1-1.45,4.61,3.54,3.54,0,0,0-.83,3.54,7,7,0,0,1-.64,3,10.83,10.83,0,0,0-.51,3.57,8.48,8.48,0,0,1-.26,1.6,14.19,14.19,0,0,0-.41,4.31,10.66,10.66,0,0,1-.28,2.17,8.38,8.38,0,0,0-.06,5.17c.23,2.64,1.73,4.88,2.31,7.41-3.29,2-2.59,5.38-2.51,8.27.19,7.27.77,14.52,1.2,21.77,1.08,1.73.46,3.66.63,5.5s-.5,3.93.62,5.76q.8,11.7,1.61,23.4c1.78.36,2.61-1.15,3.76-2a55.53,55.53,0,0,1,25.43-9.74,10.94,10.94,0,0,0,3.81-.47,12.3,12.3,0,0,1,2.34-.31,15.94,15.94,0,0,0,5.45-.57,47.32,47.32,0,0,1,11,0,19.06,19.06,0,0,0,6.11.57,11.24,11.24,0,0,1,2.39.29,21.93,21.93,0,0,0,4,.68c10.86,1.41,21.1,4.69,30.24,10.81,6.15,4.12,11,9.26,11.72,17.19,0,2.22,0,4.44,0,6.65.23,9.59-12.71,25-24.5,24.93-3.24-.57-6.5-.18-9.75-.28a37.09,37.09,0,0,1-14-3.26c-3.3-1.38-5.3-4.31-7-7.32-.53-.92-1-2.16-.13-3.13s2.07-.62,3.12-.29c3.42,1.08,6.48,3,9.94,4a9.75,9.75,0,0,0,3.86.51c11.58.45,19-5.62,24-15.4a4.45,4.45,0,0,0-.09-4.41c-4.36-9.09-12.76-12.3-21.63-14.72-2.86-.78-5.84-1.11-8.7-1.94a59.53,59.53,0,0,0-13.8,0c-3.51.84-7.11,1.22-10.62,2a61.06,61.06,0,0,0-34.77,22.33c-2.86,3.61-4.12,8.11-6,12.25-3.12,1.62-3.84,4.59-4.29,7.69-1.38,9.46-1.45,19,1.16,28.14a98.09,98.09,0,0,0,13.53,29,123,123,0,0,0,17.73,20.46,80.81,80.81,0,0,0,10.67,8.42,6.91,6.91,0,0,0,6.27.9c10.61-3,20.83-7.19,31.67-9.45,16.76-3.5,33.42-4.77,50,.78,9.72,3.25,18.34,8.46,26.39,14.63,14,10.75,26.88,22.93,41.11,33.42a220.21,220.21,0,0,0,49.62,27.63c25.55,10.15,52.18,15.56,79.41,18.5,6.27.67,12.5,1.84,17.86,5.7,2.3,1.65,2.32,2.92,0,4.46-4.85,3.27-10.37,4-16,4-16.79-.21-33.57-.56-50.36-.93-42.67-.95-85.34-.7-128,.29s-85.51,2.84-128.21,5.65c-24.32,1.59-48.64,3.06-73,4.77-28.52,2-57,4.29-85.55,6.36q-34.41,2.5-68.83,4.79c-29,2-58.06,4-87.1,5.64-19.37,1.1-38.74,2.61-58.16,1.85a97.32,97.32,0,0,1-37.35-9.13c-7.26-3.39-13.86-9.62-14.11-19.29a4.35,4.35,0,0,1,0-4.51c.84-10.15,5.93-18.42,11.53-26.52,3.32-4.79,6.34-9.8,9.47-14.73a85.74,85.74,0,0,0,10.88-27c.62-2.72.18-5.68.23-8.53-.82-.89-.41-2.28-1.3-3.15-2.14-11.11-10.17-16.68-19.75-20.53-13-5.22-26.76-6.54-40.55-6.88-31.48-.77-62.89.86-94.27,3.36q-41.81,3.35-83.41,8.54-41.77,5.18-83.37,11.62c-24.77,3.86-49.59,7.45-74.33,11.49-30.37,5-60.68,10.24-91,15.39-31.81,5.39-63.55,11.17-95.47,15.88-13.51,2-27,3.9-40.55,5.82-1.22.17-2.47.17-3.71.25-.28-2.12,1.59-3,2.66-4.14a64,64,0,0,0,7.49-10.16c2.38-3.83,4.82-4.44,8.76-2.3.54.29,1.06.64,1.59,1,11.3,6.73,19.11,6.2,29.42-1.93a48.12,48.12,0,0,0,15.3-21.54,10.67,10.67,0,0,0,.07-8c-.4-1-1.32-1.94-.33-3.08,18.65-6.61,37.12-13.66,55.3-21.49q23.46-10.11,45.88-22.4c11.87-6.53,23.4-13.6,34.76-21,12.06-7.82,23.72-16.22,35.13-24.94,10.43-8,20.44-16.48,30.63-24.75,9.89-8,19.94-15.85,29.63-24.11,10-8.52,20.29-16.69,30.77-24.58a445.42,445.42,0,0,1,38.06-25.89c12-7.26,24.18-14.35,36.89-20.34,20.31-9.57,41.44-16.35,64.17-16.94a10.37,10.37,0,0,0,1.1-.15c4-1.29,8.08-.69,12.14-.45,3.05.75,6.22.78,9.26,1.59,4.79,1.13,9.65,2,14.27,3.77a162.54,162.54,0,0,1,15.81,6.85c5.13,3.19,10.5,6,15.37,9.56,3.53,2.25,7.12,4.41,10.46,6.93,2.89,3,6.64,4.84,9.83,7.44a457.66,457.66,0,0,1,37.09,32.91c2.71,2.57,5.13,5.42,7.81,8,3.12,2.9,5.73,6.28,8.72,9.32,3.54,3.51,6.12,7.84,9.77,11.25,3.37,4,6.67,8.13,10.29,11.95a45.31,45.31,0,0,0,8.21,9.58,43.85,43.85,0,0,0,5.36,6.11c1.07,2.68,4.34,3.92,4.68,7.09,9.41,11.83,18.69,23.75,28.26,35.45,7.89,9.65,15.55,19.52,24.33,28.38a185.63,185.63,0,0,0,37.82,29.65,224.91,224.91,0,0,0,61.2,25,263.54,263.54,0,0,0,46,6.87c38.81,2.44,76.89-2.24,114.54-11.5,3.23-.79,3.2-1.84,1.66-4.05-4.34-6.25-7-13.37-10.23-20.18-1.5-3.18-1.79-6.94-2.63-10.44-.57-.73-.65-1.72-1.29-2.41-2-12.11-2.36-24.32,0-36.34,2.12-10.75,4.21-21.6,8.67-31.76a1.37,1.37,0,0,0,.11-.36c2.24-10.47,6.76-20.23,9.38-30.58.82-3.24,1.33-6.56,2-9.85.65-.67.71-1.68,1.33-2.37q1.2-6.28,2.41-12.55c.64-.68.7-1.69,1.32-2.38,3.18-14.57,2.9-29.3,2.61-44.1-.19-9.3-4.36-16.41-10.68-22.25A71.24,71.24,0,0,0,1362,247.27c-7.29-1.82-14.65-1.9-21.82.89-.78,1.16-2.14,1.15-3.27,1.59-9.64,3.75-18.31,8.79-24.29,17.63-1.35,2-1.64,4.44-3.14,6.31a4.11,4.11,0,0,0-1.39,2.56,8.81,8.81,0,0,1-.22,1,18.93,18.93,0,0,0,.16,7.86c2.69,6.82,7.78,10.94,14.66,13.05,1,.76,2.25.65,3.43.75a8.42,8.42,0,0,1,1.57.25,9.62,9.62,0,0,0,5.72-.05q2.67-.81,5.38-1.45c7-1.65,12.09-5.52,14.8-12.28a5,5,0,0,0,0-4.89c-1.53-5-5.89-6.11-10.15-7.41-1.83-.56-4.35-.21-4.77-3.05,1.92-1.82,4.29-.93,6.48-1.09,4.32.63,8.62,1.35,12.46,3.58,4.33,2.51,6.72,6.49,8.21,11.12.15,2.46.12,4.93,0,7.4C1362.88,302,1352,310.68,1339.5,312a11.26,11.26,0,0,0-4,.5,8.68,8.68,0,0,1-1.83.26c-3.58.07-7.17,0-10.75,0-13-.94-23.05-6.88-30-18-1.9-3.05-3.92-6.08-3.78-9.92a17.84,17.84,0,0,0-.38-5.15,6.41,6.41,0,0,1,0-2.31,17.09,17.09,0,0,0,.41-5c.57-8.29,5.59-14.11,11.09-19.56C1305.47,247.65,1312,244.56,1318.69,241.83Z" transform="translate(-0.75 -109.41)"/><path class="cls-5" d="M819.71,665.57c2.59-10.52,6.95-20.32,11.93-29.9,1.75-3.35,3.2-6.87,4.87-10.28,6-12.18,13.18-23.72,18.51-36.26,1.25-3,2.77-5.7,3-8.93.32-4.75-1.3-6.82-6.74-8.18-9.9-2.48-20-2.16-30-1.55-42.77,2.58-84.73,10.56-126.65,18.84-54.14,10.7-107.82,23.4-161.42,36.5q-69.7,17-139,35.68c-36.47,9.8-72.74,20.32-108.9,31.19-12.93,3.89-25.35,9.32-38.44,12.7-8.61,2.21-17.29,3.93-25.8-.29-13.11-6.49-19.69-18.54-13.51-33.09,2.62-6.16,7.75-10.62,13.55-14,7.42-4.39,14.9-8.67,22.36-13,.81-1.35,2.11-1.06,3.32-1a156.68,156.68,0,0,0,30.47-.42A34.38,34.38,0,0,0,289.3,640a18.7,18.7,0,0,0,9.58-18.32c-.92-8.43-4.63-15.6-9.6-22.25-1.48-2-3.24-3.78-4.7-5.76-1.8-2.44-3.65-5.15-1.25-8.34,2.55-.53,4.93.35,7.3,1,11,2.93,22.22,3.48,33.49,4.44,13.44,1.14,26.76-.49,40.13-.2,3.84.08,7.62-1.31,11.48-.46,3.34,1.7,4.45,5,5.58,8.17a23,23,0,0,1,1.19,6.45,6.22,6.22,0,0,0,1,4.29c1,3.13.41,6.4.83,9.61,1,7.93,6.21,12.46,12.65,15.9,4,2.14,8.52,2.84,13,3.11,22.92,1.41,44.23-4,63.3-16.68,8.71-5.76,15.27-14,20.25-23.42a65.4,65.4,0,0,0,4.71-12.48,8.35,8.35,0,0,0,.08-8.27,2.13,2.13,0,0,1,.31-2.17c24.31-4.3,48.52-9.07,72.71-14,28.79-5.86,57.61-11.61,86.41-17.48,25.88-5.28,51.8-10.37,77.81-15,26.88-4.82,53.83-9.19,80.92-12.72A745.59,745.59,0,0,1,906,509c14.17-.12,28.31.59,42,5.11,8.46,2.79,14.74,7.75,17.07,16.7a22,22,0,0,1,.18,4.82c-.81.9-.43,2.28-1.27,3.17-1.58,9.39-7.07,16.8-12.43,24.24q-6.62,9.22-13.54,18.23c-4.58,6-9.64,11.66-13.89,17.88-4.38,6.43-9.87,12.29-11.8,20.18-.69.65-.72,1.68-1.37,2.35-1.21,8,4.93,13.88,13.33,17.13,12.77,5,26.22,6.52,39.73,7.4,35.59,2.31,71.11.52,106.63-2,30.51-2.15,60.94-5.2,91.33-8.59,26.43-3,52.81-6.31,79.23-9.28,22.23-2.5,44.49-4.75,66.75-7,29.31-3,58.61-6,87.94-8.66q33.42-3,66.93-5.27c37.12-2.47,74.28-4.44,111.49-3.79,24.37.41,48.79.9,73,3.79,26.87,3.2,53.61,7.45,79.87,14.19,2.12.54,4.16,1.41,6.63,2.27-2.4,1.3-4.49,1.24-6.56,1.32-12.84.49-25.6-.91-38.38-1.73-15.54-1-31.09-.64-46.63-.26-18.41.45-36.81,1.13-55.21,1.91-22.49.95-45.06,1.23-67.44,3.37-31.81,3-63.77,4.17-95.52,7.89-35.16,4.11-70.43,7.39-105.45,12.7-41,6.22-81.91,13-122.8,19.85-42.86,7.2-85.6,15.11-128.67,21-28.94,3.93-58,7-87,10-24.74,2.53-49.45,5.33-74.33,6.21-21,.74-42,.78-62.66-4.22-7.21-1.75-14.13-4.21-19.53-9.92-5.21-5.51-7.47-11.61-5.73-19.07.23-1,.34-2,.5-2.94C819,667.26,819.06,666.25,819.71,665.57Z" transform="translate(-0.75 -109.41)"/><path d="M381.62,605.11a28.49,28.49,0,0,0-5.18-14.26c-4.53-5.44-7.85-11.75-12.4-17.18-6.37-7.61-13.31-14.44-22.9-17.92a24.9,24.9,0,0,0-9.47-1.8c-15.82.6-31.17-2.28-46.4-6.13-.93-.23-1.85-.81-3.06-.23,3.65,11.72,2.5,23.72,1.75,35.7a5.25,5.25,0,0,1-.69,2.48c-.17,3.45.53,6.26,3.44,8.81a31.5,31.5,0,0,1,7.08,9.23c3.59,7,7,14.19,6.06,22.48-1,8.53-6.09,13.57-13.93,16.31-6.67,2.33-13.59,2.79-20.54,2.84-7.31,0-14.63-.3-21.95-.47-12-1.05-24-1.8-36-3.28-7.81-1-15.58-2.54-22.66-6.55-5.63-3.18-8.63-7.95-10.08-14-.34-1.44-.4-2.95-.63-4.42-1.54-10,2.45-17.92,9.55-24.59a30,30,0,0,0,8.5-13.24c2.71-8.56,2.91-17.18,3-25.93,0-6-3.59-10.55-6.16-15.45-4.7-9-12.1-16.18-16-25.88-4.56-11.46-1.74-21.23,3.81-31.18,3.26-5.85,7.83-10.46,12.41-15.16,1.5-1.54,1-3.76.07-5.26-5-8.11.09-19.79,11-21.6a24.59,24.59,0,0,1,9.64.16c5.84,1.39,9.34-1.45,12.54-5.68,6.43-8.48,14.24-15.45,22.68-22,9.76-7.57,19.45-15.41,23.93-27.93a112.79,112.79,0,0,0,3.61-14.52,1.58,1.58,0,0,0,0-2.28,79,79,0,0,0-8.19-14.09c-1.26-1.81-2.72-2.22-4.65-2.4-9.65-.87-19.34-1.07-28.92-2.82-14.43-2.63-27.5-8.54-40.05-15.8a94.28,94.28,0,0,1-25.53-22.27c-2.3-2.81-5-5.26-7.37-8-1.28-1.52-2.29-.82-3.55-.21-4,2-8,4-12.44,4.63a10.3,10.3,0,0,1-2.59.17c-.94-.12-2.21,0-2.61-1.07-.5-1.35.75-2,1.64-2.57,4-2.37,8.51-3.34,13-4.26,2.87-.59,3.65-1.77,1.87-3.95-2.39-2.95-3-6.75-5.25-9.83-1.19-1.65-1.86-1.94-3.71-1.51-7.64,1.78-15.34,3.17-23.23,1.92a7.74,7.74,0,0,1-1.43-.3c-.19-.07-.29-.37-.58-.76,3.61-2.41,7.87-2.5,11.84-3.45,4.23-1,8.48-1.95,12.77-2.56,2.41-.35,2.64-1.27,2.33-3.41-.59-4.18-.82-8.41-1.2-12.62-.84-.88-.43-2.28-1.32-3.13-3.93-2.36-8.37-1.75-12.63-2.06-3.58-.25-7.19-.15-10.47-2-.79-.45-1.7-.77-1.6-1.75.12-1.25,1.33-.81,2.09-.94,5.79-1,11.32.82,16.89,1.82,7.07,1.25,7.08,1.42,8-5.68.89-6.71,2-13.32,4.62-19.64,4.68-11.52,13.21-18,25.3-20.41a293.51,293.51,0,0,1,76.66-5.2c6.4.38,12.76,1.18,19.69,1.83-3.66-5.11-6.75-9.88-10.34-14.24a96.51,96.51,0,0,1-5.57-7.91A114.45,114.45,0,0,1,244.35,158c-1.69-4.51-2.17-9.42-2.59-14.25a16.73,16.73,0,0,1,0-9.76c.72-4.94,1.31-9.77,4-14.33a18.9,18.9,0,0,1,14-9.66l6.82,0c9.9,1.09,17.66,6.57,24.85,12.74a298.23,298.23,0,0,1,33.75,34.24c6.07,7.2,12,14.62,19.22,20.84,2.55,2.2,4.88,3.43,8.56,2.39,10.21-2.89,20.05-6.94,30.45-9.28,16-3.6,31-.64,45.52,6,12.9,5.92,22.53,15.37,29.52,27.85a54.41,54.41,0,0,1,5.78,39.53c-2.41,10.92-8.79,19.8-16.89,27.51-5.19,4.93-9.91,10.35-14.91,15.48-5.51,5.65-9.92,12.12-14.16,18.72a43.43,43.43,0,0,0-4.42,8.36c-2.05,5.62-4.51,11.06-6.35,16.8-4,12.39-4.34,24.94-3.62,37.7.13,2.27,1.12,3.22,3.28,3.71a48.77,48.77,0,0,1,15.12,5.81c3,1.82,6.46,1.46,9.8,1.43,18.05-.12,36,.79,53.79,4.31,4.59.91,9.16,1.75,13,4.9A17.09,17.09,0,0,1,505.41,400c1.74,12.34-3.15,22.25-12.81,29.41-10,7.39-20.9,7-32,1.8a38.36,38.36,0,0,1-14.24-11.66c-2.09-2.68-4.84-1-7.19-.49-2.18.5-.44,2.5-.81,3.77.54.74.64,1.72,1.25,2.42,1.36,9.33,6.22,16.82,11.85,24.14,3.5,4.56,7.92,8.29,11,13.14,1.17,1.84,2.88,2.3,5,2.33a55.61,55.61,0,0,1,19.28,3.22,15.85,15.85,0,0,1,8.29,6.29c2.85,4.75,2.09,9.26,0,14.25-4.19,10.11-11.16,17.37-20.41,22.9-7.31,4.38-14.35,3.73-21.49-.07-1.74-.93-3.44-1.95-5.1-3-2.92-1.88-5.14-1.05-6.77,1.75a69.12,69.12,0,0,1-8.92,12.09c-.73.79-1.53,1.53-2.3,2.3-4.92,5.4-5.11,5.52-.58,12.26a86.92,86.92,0,0,0,26,25.15,14.2,14.2,0,0,0,11,1.76c8.75-1.74,17.19-1.52,25.15,3.23a16.22,16.22,0,0,1,6.95,7.61c.08.7.16,1.39.23,2.09a12.28,12.28,0,0,1,0,8.37c-1.52,10.81-7.34,19.58-14.53,27.12-20.1,21.08-46,27.23-73.94,26.44-9.05-.26-17.44-3.08-23.49-10.79-2.8-3.56-3.29-7.61-3.79-11.74a69.5,69.5,0,0,1-.21-7.08C381.91,607.91,382.68,606.21,381.62,605.11Z" transform="translate(-0.75 -109.41)"/><path class="cls-6" d="M1354.46,285.54c-2.74,8-9.11,11.56-16.78,13.44-1.42.35-2.86.62-4.3.93a14.82,14.82,0,0,1-5.86,0l-1.52-.12c-1.13-.88-2.61.1-3.75-.7-7-2.29-12.41-6.29-15-13.47a27.52,27.52,0,0,1,0-8.92c0-.27,0-.54.07-.81.76-.55.74-1.6,1.41-2.22,5.54-14.57,17.22-21.57,31.4-25.5,12.39,4.74,23.57,11.52,32.69,21.14a52.89,52.89,0,0,1,10.52,16.52c3.88,9.48,3.61,19,1.71,28.64-.48,2.44-1.7,4.74-2.58,7.11-10.59,18.64-26.32,30.86-46.54,37.68a167.76,167.76,0,0,1-19.78,5c-1.73.07-3.47-.11-5.15.5a9.9,9.9,0,0,1-1.8.27c-2.07.09-4.15-.06-6.23.18a20.48,20.48,0,0,1-8.25.36c-2.83-.9-5.77-.31-8.64-.55-1.2-.1-2.37-.44-3.55-.62s-2.33-.09-3.48-.28a113.86,113.86,0,0,1-34.2-10.94c-10.58-5.38-19.61-12.57-26.47-22.26-3.36-4.74-6.26-9.82-7.32-15.69-.15-.7-.24-1.42-.41-2.12a13.64,13.64,0,0,1-1.16-2.48,29.9,29.9,0,0,0-.82-4.69c-.43-3.29-.51-6.55.84-9.69A54.75,54.75,0,0,1,1227.22,264c14.59-13.24,32.08-19.45,51-22.4,13.46-2.1,27-2.42,40.44.27-2.84,3.55-7.56,3.82-11,6.33-6.05,4.35-11.61,9.07-14.89,16-1.19,2.51-3.11,4.74-2.67,7.8-.81,1.73.1,3.65-.59,5.39v2.34c.73,1.69-.28,3.59.62,5.26.34,6.6,4.33,11.57,8.46,15.86,6.27,6.5,14.18,10.57,23.54,11a46.4,46.4,0,0,0,12.29,0l1.31-.12c1.14-.74,2.59.21,3.7-.68,9.37-.76,22.36-8.09,25.39-19.44a18.92,18.92,0,0,0,0-8.17c-3-8-8.75-12.28-17.29-12.84a9.05,9.05,0,0,1-2.08-.64c-2.14-.71-4.34-.3-6.51-.27-1,0-.91.5-.26,1,2.76.88,5.5,1.82,8.28,2.63,3.77,1.09,6.47,3.22,7.5,7.14A11,11,0,0,1,1354.46,285.54Z" transform="translate(-0.75 -109.41)"/><path class="cls-7" d="M1408,180.3c-4.32.89-8.91,1.36-10.35,6.7a3,3,0,0,0,0,3.88c.25,3.24,3.11,4.22,5.14,5.93.4.05.81.6,1.12.29s0-.82-.14-1.22c-2.13-4.61,0-7.69,3.65-10.26a10.74,10.74,0,0,1,5.92-.15c4.13,1.88,8.89,2.43,11.93,6.56,1.15,1.54,1.41,3.31,2.41,4.8a17.44,17.44,0,0,1,0,6.6c-2.58,12.24-9.56,22.36-15.58,33-2.13,3.75-4.39,7.62-5.47,12-1.12,4.59-1.48,4.62-5.15,2a77.29,77.29,0,0,0-33-14.1c-1.21-.2-2.42-.49-3.63-.73-.33-.46-1.06-.17-1.33-.73-2.43-5.15-5.09-10.21-7.23-15.48-1.6-3.91-1.91-8.2-2.24-12.42-1-12.2,3.16-22.55,10.51-32.26,7.81-10.32,18.19-16.86,29.26-22.75a12.6,12.6,0,0,1,4.93-3.13,122.25,122.25,0,0,1,33.11-7.52c6.29-.08,12.57,0,18.85,0,21.66,1.88,42.35,6.82,59.48,21.13,14.31,12,21,27.37,18.63,46.23-1.27,10-4.24,19.37-10.07,27.71-6.18,4.57-12.42,9.07-18.52,13.74a71.5,71.5,0,0,1-36.26,14.59q-15.18,1.68-30.46,2.13c-2.53-1.81-2.52-4.67-3-7.31a11.21,11.21,0,0,1,0-5.12c0-.72.11-1.43.16-2.15.82-1.45-.11-3.14.63-4.6l.09-1.51c.86-1.14-.09-2.6.67-3.76l.77-2.95c.08-1-.09-2.12.69-3,3.14-17.18,14.4-25.59,30.76-28.49a22.6,22.6,0,0,1,7.34,0c2.68,1.11,5.72,1.1,8.27,2.69a12.87,12.87,0,0,1,4.47,4.14,10.48,10.48,0,0,1,0,5.95c-1.78,5-6.47,7.42-9.75,11.1-.51,1-.21,1.29.83.89,7.05-2.06,13.45-5.11,18.28-11,3.32-4,3.25-8.48-.15-12.47A27.69,27.69,0,0,0,1474.63,199c-1.93-1-4.07.13-6-.64h-3.81c-2.21.78-4.58-.32-6.77.63-4.25.57-8.61.76-12.73,1.83-3.53.92-4.9-.44-6.23-3.29-3.26-7-7.94-12.58-15.2-15.81-1.75-.77-3.75-.1-5.28-1.38A31.73,31.73,0,0,0,1408,180.3Z" transform="translate(-0.75 -109.41)"/><path class="cls-6" d="M1431.15,369.86c.34-7.11,4.48-12.34,9-17.18a61.2,61.2,0,0,1,34.28-18.91c2.54-.48,5.11-.83,7.66-1.24a83.7,83.7,0,0,1,14.85,0c8.69,1.56,17.24,3.46,24.49,9,2.9,2.22,4.58,5.25,6.27,8.32a7.9,7.9,0,0,1,0,4.39c-3.39,9.86-13.34,16.47-24.71,16.43-1.13-.86-2.6.11-3.74-.69-3.18,0-5.59-2.15-8.44-3.1-1.48-.49-2.85-1.35-4.52-1.33,1.89,8.63,8.82,11.43,20.18,12.65,3.51.82,7.09,0,10.62.44,9-1.39,15.24-6.45,19.79-14.14,1.77-3,3.68-5.75,3.46-9.38a17.43,17.43,0,0,0,0-7.64c-.32-7.2-5.18-11.65-10.31-15.35-7.33-5.29-15.84-8.36-24.67-10.45-2-.49-4.27.38-6.12-1-1.12-.86-2.57.09-3.71-.67l-2.19-.08c-1.92-.93-4,.14-6-.64h-12c-1.75.7-3.68-.21-5.42.6l-2,.14c-1.15.69-2.58-.2-3.7.64a53.89,53.89,0,0,0-25.11,9.74,35.54,35.54,0,0,1-2.91,2.22c-1.67.93-.64-.87-1.09-1.2,10.75-16.07,26-25.92,44.11-31.69,21.48-6.83,43.23-6.28,65.07-2,10.51,3.37,19.86,9.08,28.92,15.11,10.36,6.89,18,16.26,21.67,28.4a10.39,10.39,0,0,0,1.38,3,30.51,30.51,0,0,1,1.12,5.27c.08,3.8,0,7.6,0,11.4-1.49,10.94-6.53,20.19-13.8,28.28A73.35,73.35,0,0,1,1545.86,412a22.46,22.46,0,0,1-4.65,1.09c-26.3,6.3-52,5-76.42-7.26-11-5.49-20.8-12.87-28.11-22.88C1434,379.16,1431.53,374.82,1431.15,369.86Z" transform="translate(-0.75 -109.41)"/><path class="cls-8" d="M1676,753.76c.32,7.83.45,15.66,1.55,23.44.57,4,2.45,6.57,6.56,7.36a27.37,27.37,0,0,1,3.88,1.25c6.11,2.19,6.34,2.72,5.48,9.14-.22,1.64-.68,2.43-2.37,2.59s-3.42.81-5.14.88c-4,.15-5.84,2.05-5.48,6.05-1.49,2.39.21,5.3-1.26,7.69,0,3.89,0,7.77,0,11.66,1.3,3.65.3,7.42.62,11.13.14,1.56-.4,3.22.63,4.67q.75,7,1.48,14.08a12.48,12.48,0,0,0,2.43,6.78c1.53,1.95,1.53,4.37,1.51,6.77-.05,7.33-1,14.77.67,22,1.44,6.22,2.3,12.68,5.85,18.35,3.65,5.83,3,9.2-1.65,14.54-2.17,2.49-4.21,5.1-6.31,7.65-3,3.71-7.63,3.64-11.11.36-3.93-3.7-4.66-8.25-4.3-13.17.34-4.58.93-9.15,1.48-13.71a33.89,33.89,0,0,0-1.35-14.74c-1.52-4.66-2.92-5.21-7.68-3.53-5.6,2-10.8,4.86-16.23,7.19-21,9-42.25,9.29-63.13.08-9.06-4-15.25-11.36-18.78-21-3-8.21-3.25-16.48-2.07-24.79,1-6.95,4.91-12.92,8.85-18.6,1.79-2.59,3.34-5.36,5-8,5.58-8.84,14.28-13.57,22.66-18.86,12.11-7.65,26.1-10.27,39.45-14.39,6.59-2,13.89-2.09,20.78-3.67,1.8-.41,2.45-1,2.61-2.85a178.44,178.44,0,0,0-1.3-43.52c-1-6.52-1.82-13.78-8.12-18.69-2.93-2.28-.12-10.4,3.78-12.81,4.69-2.9,10-4.08,15.17-5.77a2.34,2.34,0,0,1,2.69.78,9.1,9.1,0,0,0,4.79,2.71c3.9,1.11,3.23,3.42,2.27,6.17-1.54,4.41-3.81,8.61-3.91,13.44a3.57,3.57,0,0,0-.62,2.1q0,13.6,0,27.2A3.52,3.52,0,0,0,1676,753.76Z" transform="translate(-0.75 -109.41)"/><path class="cls-8" d="M1.45,822.48l.08-3.72c9.9-8.17,18.15-17.91,26.17-27.83,4.75-5.86,8.53-12.55,13.62-18.06,6.88-7.45,10.39-17,16.43-24.83C63.66,740.33,70,733,75.92,725.26c3.41-4.43,6.31-9.25,9.53-13.83,6.19-8.84,11.87-18,19-26.23A90.63,90.63,0,0,0,114.08,671c4-6.94,7.31-14.31,12.22-20.69,3.21-4.18,7.27-7.31,12.57-8.49,1.91-.43,3.26-.36,3.35,2.28.36,10.88,6.15,19.81,10.6,29.24q2.19,4.62,4.41,9.22c5,10.39,10.18,20.69,16,30.69,3.48,6,6.32,12.38,9.79,18.38,4.73,8.17,9.1,16.54,13.88,24.68,3.19,5.43,6.09,11.08,9.11,16.64,3.59,6.63,8,12.71,11.79,19.21,3,5.25,6,10.6,7.82,16.43,1.67,5.43,1.23,6.13-3.89,7.77a103.68,103.68,0,0,1-14.31,3.92c-5.85,1-7,.3-7.09-5.76-.09-5.62-.18-11.2-2.24-16.52a157.59,157.59,0,0,0-9.69-20.69c-1.92-3.38-3.43-7-5.46-10.36a51.08,51.08,0,0,0-5.35-7,7.26,7.26,0,0,0-7-2.45,39,39,0,0,1-14.8-.05c-8.46-1.43-16.87.09-25.25,1a100.85,100.85,0,0,1-12.28.56c-15.67-.28-31.29.13-46.81,2.77-8.61,1.46-14.11,6.15-18.27,13.66-5.11,9.24-10,18.58-14.82,27.95-1.9,3.69-2,8-3.89,11.82-1.36,2.71-2.69,5.41-4.13,8.09-1.8,3.36-3.95,4.2-7.43,3.62C15.64,825.78,8.37,825,1.45,822.48Z" transform="translate(-0.75 -109.41)"/><path class="cls-8" d="M500.09,874.7c.38,4.59.85,9.22.17,13.78-.8,5.38-2.65,10.39-7.1,14-1.8,1.46-3.76,2.19-6.06,1.33-3.8-1.43-7.61-2.6-10.58-5.79-3.5-3.77-2.75-8-1.28-11.76,3.22-8.24,6.38-16.42,6.91-25.36.88-14.91,1.44-29.81.27-44.74-.19-2.39-.83-3.16-3.09-2.3a16,16,0,0,0-3.79,1.46c-5.83,4.25-12.53,4.48-19.25,4-16.86-1.1-33.68-2.77-49.48-9.38-11-4.62-19.33-11.89-23.85-23.54a39.44,39.44,0,0,1-1.79-24.28c2.64-10.71,8.81-19.39,17.59-26.2a235.5,235.5,0,0,1,22.56-15.2c6.43-3.9,13.89-5.08,21.13-6.61,10.44-2.2,20.89-4.28,31.23-6.94,3.09-.79,6.39-.79,9.61-1,1.74-.13,3.24-.36,3.61-2.43a5.23,5.23,0,0,0,0-5.32c-.62-6.55-.58-6.46,5.61-9.13a54.25,54.25,0,0,1,10.28-3c3-.64,4.31,1.31,5.56,3.1s.81,4-.54,5.86c-2.74,3.78-2.69,4.32,1.93,5.27,3.26.66,5.23,2,5.53,5.38a3.14,3.14,0,0,1-.11,3.77c-7.42,2.62-10.24,8.07-9.89,15.67a42.82,42.82,0,0,1-.67,6.63c-.85.88-.48,2.25-1.25,3.17-2.86,29.25-2,58.64-3.25,88-1.23,2.69-.37,5.54-.63,8.3-.24,2.52.57,5.13-.63,7.57.1,9.4-.68,18.8,0,28.2.73,1,.57,2.18.6,3.31C499.61,871.9,499.11,873.41,500.09,874.7Z" transform="translate(-0.75 -109.41)"/><path class="cls-8" d="M1020,729.9c-.36,4.79-2.9,8.61-6,12-3.57,3.92-7.59,1.31-11.17-.17-6.14-2.54-11.87-6-18.28-8-9.57-2.92-19.35-2.57-29.19-2.13-15.06.67-28.91,6.24-43.1,10.39-6.18,1.81-10.08,6.72-14.23,11.2-5.37,5.79-10.77,11.6-15.18,18.15a89,89,0,0,0-8,14.3c-5.66,13.11-7.89,26.88-4.94,41a59.26,59.26,0,0,0,13.7,27C904.4,877.43,932.38,886,962,891c17.87,3.07,35.66,1.61,53.3-2.34,4.22-1,6.34.4,7.49,4.48,1.37,4.87,1.06,9.84.73,14.82-.17,2.41-1.64,2.59-3.58,2.57-10.58-.14-21.09-1.27-31.6-2.3-20.14-2-40.25-4.16-59.91-9.21-14.53-3.73-28.6-8.8-41.33-16.81-10.51-6.6-19.77-14.7-26.77-25.22-3.91-5.87-7.28-11.84-8.49-18.86-.64-.68-.69-1.69-1.34-2.37-1.3-8-2-16.19,0-24.08,2.12-8.56,4.58-17.09,9.29-24.81a70.91,70.91,0,0,0,4.86-9.8c5.6-13.56,15.56-23.16,27.08-31.78,9.92-7.41,21.18-12,32.19-17.15a21.84,21.84,0,0,0,3.56-1.94c4.28-3.13,9.17-3.9,14.29-4.27,12.35-.88,24.47-4.09,37-3.34a242.49,242.49,0,0,1,39.81,5.35,7.31,7.31,0,0,1,1.33.63,4,4,0,0,1,.72,2.94A3.8,3.8,0,0,1,1020,729.9Z" transform="translate(-0.75 -109.41)"/><path class="cls-8" d="M1897.23,819.39q0,8.26,0,16.52a68,68,0,0,0-1.9,6.8c-2.35,13.11-9.11,23.59-18.57,32.75-17.72,17.17-38.85,25.25-63.38,24.69a132.87,132.87,0,0,0-19.32.94c-9.3,1.14-18.27-1.31-27-4.29-8.3-2.83-16.22-6.4-22.81-12.53a54,54,0,0,1-10.85-14.06c-4.61-8.46-3.93-17.3-2-26,2.29-10.23,5.81-20.2,11.78-29,5.38-7.91,12.77-13.79,21-18.54,23.17-13.4,48.59-15.31,74.54-14.18,9,.39,17.82,1.61,26.16,5.1A50.43,50.43,0,0,1,1888,806.26C1890.93,810.72,1894.77,814.57,1897.23,819.39Z" transform="translate(-0.75 -109.41)"/><path class="cls-8" d="M1518.51,809.83c.31,4.58-.17,9.2.74,13.75.36,1.8.65,3.35,3,3.53,1.37.1,2.33,1.3,3.45,2.08.87.61,1.26.67.34,1.78-5.06,6.09-6.25,13.2-6.09,21,.24,11.28.79,22.59-.65,33.86-.77,6,1.56,11.78,1.67,17.74,1.08,1.4.1,3.35,1.25,4.73a6.33,6.33,0,0,1,.12,1.49c-.44,2.8,1.72,6.25-.86,8.37-5.31,4.36-10.82,9.11-18.33,8.24-8-.93-8.39-7.23-5.46-14.37,2-4.95,4.86-9.62,6-14.93,1.33-6.45-1.33-9.1-7.75-7.4-4.27,1.14-8.37,2.92-12.54,4.44-11.23,4.11-22.65,7.3-34.78,6.67a44.46,44.46,0,0,1-28.23-11.37c-4.76-4.28-5.29-12.88-2.95-19.13,4.28-11.43,13.84-17.29,23.24-23,16.19-9.91,34-15.6,52.82-18.38,8-1.18,10-3.86,10.27-11.79.45-13.32-7.25-21.5-17.86-27.25-12.83-6.94-26.81-7.49-41-5.36a12.61,12.61,0,0,0-5.41,2.24c-3.19,2.35-6.68,2.85-10.48,3-3.43.12-3.63-1.72-3.4-4.26.4-4.41,3.12-7.07,7-8.19,18.5-5.31,37.25-7.83,56.24-3.07,11.11,2.78,19.56,9.1,24.48,20a59.22,59.22,0,0,1,3.86,12.55C1518.05,807.57,1517.66,809,1518.51,809.83Z" transform="translate(-0.75 -109.41)"/><path class="cls-8" d="M1066.06,855.35c1.93,11.83,9.58,19.3,19.42,24.82,17.18,9.65,36,10.32,55,9.13,8.43-.53,16.79-1.2,24.74-4.66,4-1.72,5.24-.52,6,4.08,1,5.8-3.32,12.58-9,14.3-7.81,2.36-15.79,1.58-23.71,1.28-17.78-.66-35.43-2.25-52.45-8-11.62-4-21.91-9.91-29.43-19.78-1.93-2.54-3.92-5.33-4.79-8.59-1.8-6.77-4.5-13.45-3.54-20.61,1.36-10.07,3.88-19.67,9.43-28.57a90.34,90.34,0,0,1,17-19.94c11.62-10.28,25-16.55,40.56-18.08,9.13-.91,18.2-3.07,27.43-1.67,7.56,1.14,14.69,3.67,20.16,9.21a18.45,18.45,0,0,1,5,7.58c2.2,7.56,4.65,15.05,5.54,22.94.79,7-1.81,10.31-8.87,10.63-8.24.36-16.33-2-24.52-1.79-20.6.67-41.24.18-61.82,2.1-10.39,1-15.26,8.57-14.12,18.1.2,1.73.46,3.45.7,5.17C1065.38,853.66,1065.45,854.66,1066.06,855.35Z" transform="translate(-0.75 -109.41)"/><path class="cls-8" d="M811.49,747.78a18.62,18.62,0,0,0,2.53,1.43c4.55,1.73,5.17,2.95,1.75,6.41-2.78,2.81-3.25,6-3.3,9.38-.14,8.33-.2,16.66,0,25a74.16,74.16,0,0,1-1,13.73,6.57,6.57,0,0,0,0,6c1.09,5.6,1.55,11.32,3.53,16.75.43,1.2.14,2.67.19,4-.84.87-.43,2.28-1.32,3.13-2.64,7.49-13.87,12.19-20.87,8.74-4.67-2.31-5.85-9-2.41-13.72,3.88-5.35,6.87-10.84,5.42-17.92-.48-2.34-1.13-2.8-3.27-2.61a22,22,0,0,0-6.8,1.72c-10.74,4.64-21.84,8.07-33.48,9.2-10.65,1-21-.26-30.33-6.2-3.75-2.38-6.73-5.27-7.69-9.8-.65-.67-.7-1.69-1.34-2.36-1-11.12,4.07-19.26,12.75-25.56C744,762,764.31,754.33,786.3,750.62c8.12-1.37,10.38-4.5,10.16-12.64-.33-12-7.47-19.39-17.27-24.46a60,60,0,0,0-33.14-6.22,31.06,31.06,0,0,0-13.18,4.48c-3.11,1.81-6.3,1.72-9.71,1.05-1.92-.38-2.3-1.35-1.8-2.78,1.42-4.14,3.46-7.92,8.11-9.13,13.89-3.63,28-5.84,42.37-4.65,10.49.86,20.08,4.1,27.51,11.88a26.44,26.44,0,0,1,4.92,6.8,57.89,57.89,0,0,1,5.92,21.57c.8,1.1.58,2.37.62,3.6C811.09,742.67,810.16,745.32,811.49,747.78Z" transform="translate(-0.75 -109.41)"/><path class="cls-8" d="M672.78,730.67c-1.35,7.85-2.68,15.7-1.61,23.71.43,3.26.56,6.68,3,9.25,4.65,4.85,2.22,9.57-.37,14.09s-2.07,9.17-.42,13.45c1.38,3.58,2.16,7.48,4.62,10.69,1.09,1.44-1.26,14.95-2.5,16.38-1.58,1.82-3.87,2.22-6,2.46a48.47,48.47,0,0,1-7.81.1c-4.29-.22-5.49-2.63-4.45-6.85a49.31,49.31,0,0,0,1.59-13.64c-.19-4.67-2.77-6.57-7.38-5.39-4.45,1.14-8.37,3.51-12.32,5.79-9.36,5.4-18.09,12-28.29,15.82-12.67,4.77-25.46,6.68-38-.36a28.41,28.41,0,0,1-10.65-10.83c-6.57-11.39-4.81-23.68-4.12-35.86.63-11.15,4.59-21.73,5.77-32.79.55-.74.65-1.72,1.26-2.43,1.21-8.72,3.07-17.41,1.32-26.27-.27-1.37.42-1.77,1.35-2.22,8-3.85,15.93-4.92,24.22-.73,2,1,1.62,1.76.9,3.25-1.87,3.85-5.84,5.91-8,9.61a16.78,16.78,0,0,0-1.74,3.06c-2.24,6.89-4.17,13.84-5.82,20.92A159.21,159.21,0,0,0,573.55,776a78,78,0,0,0,.76,11.52c2.19,16.26,19.08,25.68,35.35,19.82a118.48,118.48,0,0,0,34.47-18.87c8.06-6.5,12-15.2,12.25-25.57,1.35-1.88-.07-4.33,1.27-6.22q0-11.54,0-23.09c-1.48-2.37.26-5.28-1.28-7.64-.33-4.8-.88-9.48-4.21-13.38a5.26,5.26,0,0,1-.54-6.24c1.14-2.24,3-1.24,4.57-1.28,5.23-.15,10.24-1.6,15.36-2.36a43.38,43.38,0,0,1,4.42-.34c2.36-.11,3.47,1.19,3.29,3.42a35.69,35.69,0,0,1-2.27,11c-1.48,3.61-2,7.63-2.86,11.47C673.45,729,673.4,730,672.78,730.67Z" transform="translate(-0.75 -109.41)"/><path class="cls-9" d="M919,249.82a37,37,0,0,1-9-1.47c-.24-2.7,1.27-4.77,2.66-6.8,9.73-14.23,22.53-25.06,37.48-33.44,19.94-11.19,41.43-17.18,64.14-19.17a194.3,194.3,0,0,1,46,1.65c6.37.95,12.36,3.41,18.78,3.87a137.84,137.84,0,0,1,41.64,19.37c4.55,3.09,9.21,6,12.75,10.39,4.59,5,9.48,9.78,13.35,15.46,9.42,13.79,15.1,28.81,14.36,45.69a74.65,74.65,0,0,1-11,35.9c-10.17,16.73-24.44,28.89-41.4,38.19a141,141,0,0,1-33.9,13.29c-1.19.3-2.35.91-3.62.32a15,15,0,0,1-5.12-6c.91-2.05,3-2.1,4.7-2.57,15-4.05,29.21-9.93,42-18.91,13.78-9.7,25.26-21.51,31.63-37.37,9.24-23,6-44.77-8.5-64.59-16.94-23.12-40.88-35.35-68.09-42a152,152,0,0,0-38.79-4.55c-24.31.44-47.71,5.24-69.34,16.77-15.35,8.18-28.59,18.91-38,33.86C921,248.65,920.7,250.15,919,249.82Z" transform="translate(-0.75 -109.41)"/><path class="cls-8" d="M338,704.52c3.48,0,7,.06,10.44,0a10.57,10.57,0,0,1,10.38,14.12c0,.12-.06.28-.15.33-1.92,1.27.28,4.73-2.51,5.25a16.09,16.09,0,0,1-9.77-1.44c-14.39-6.62-29.65-8.21-44.59-3.84-12.27,3.59-24.27,9.18-32.66,19.62a27.23,27.23,0,0,0-5.47,13.5c-.94,7.2-1.12,14.49.75,21.5,2.63,9.88,8.14,18.06,17,23.41,21.93,13.16,45.16,12.65,68.89,6.1a4.42,4.42,0,0,0,1.68-.75c2.76-2.36,5.18-1.88,7.57.64,3.14,3.3,4.11,7.47,2.73,10.62-1.1,2.49-2.76,3.53-5.42,4.07C333,822.52,309.32,823,286,814.94c-12-4.15-22.24-11.11-29.09-21.92-6-9.47-7.21-20.28-6.57-31.39a48.64,48.64,0,0,1,6.18-21.07,55.83,55.83,0,0,1,16.75-18.07c17.38-12.37,37.05-17.06,58-17.35,2.24,0,4.48,0,6.71,0Z" transform="translate(-0.75 -109.41)"/><path class="cls-8" d="M1234.27,853.89c-1,7.51-2,15-1,22.64.56,4.8,3,8.77,4.5,13.16,1.77,5.34,1,7.43-4.21,9.57a31,31,0,0,1-15.26,2.5c-5-.55-6.56-2.51-5.82-7.45.42-2.73.67-5.5,2.67-7.89,1.21-1.45,1-3.76,1.17-5.76a512.63,512.63,0,0,0-.91-79.73c-1-1.13-.23-2.83-1.27-3.93-.47-3.81-.9-7.62-1.4-11.42s0-6.34,3.76-8.66a21.5,21.5,0,0,1,15.14-3c4.29.59,5.82,2.92,5.25,7.29a42.48,42.48,0,0,1-2.7,9c-1.74,4.79-2.05,9.91-2.36,15a32.58,32.58,0,0,0,0,14.24c.45,2.17.13,5.35,2,6.09,2.46.94,3.82-2.11,5.39-3.75,2.92-3.06,5.1-6.68,8-9.77,7.6-7.94,17.32-11.5,27.46-14.34,4.75-1.33,9.5-2.86,14.48-3.15,4-.23,6.52,1.79,7,5.4.17,1.22-7,14.69-8.14,14.89a16,16,0,0,1-9.52-.94c-9.94-4.6-17.75-.59-24.92,5.79-9.59,8.53-16,19-18.13,31.81C1234.91,852.17,1234.83,853.16,1234.27,853.89Z" transform="translate(-0.75 -109.41)"/><path class="cls-8" d="M1343.24,802.36c-.29,4.22-.63,8.43-.85,12.65a26.13,26.13,0,0,0,.23,4.84c.32,2.3.74,5.34,3.05,5.72,2.09.34,4-1.74,5.24-4,7.27-13.23,19.64-19.34,33.31-23.51a80.69,80.69,0,0,1,18.65-3.28c2.62-.17,3.44.8,3.59,3.27.39,6.67-2.66,11.72-7.17,16.2-1.32,1.31-2.81.85-4.19.56a71.64,71.64,0,0,1-7.16-2c-8.08-2.61-14.88.26-21,5.16-8.29,6.63-13.83,15.18-17.86,25-2.62,6.42-3.58,13-4.53,19.68a21.07,21.07,0,0,0,0,11.28c.69,5.34,1.24,10.59,4.53,15.3,2.93,4.18,1.51,7.62-3.83,9.79a32.51,32.51,0,0,1-16.32,2.53c-4.88-.6-7.07-4.11-5-8.53,2.49-5.39,3.39-11.06,3.74-16.89,1.23-2.44.39-5.05.63-7.58.19-2-.44-4.17.63-6.12q0-15.88,0-31.76c-1.18-2.42-.38-5-.62-7.51-.14-1.53.4-3.15-.63-4.56-.48-10.74-2.35-21.35-3.23-32.06a3.42,3.42,0,0,1,0-3.77c1.76-9.89,14.73-10.84,21-8.22,2.57,1.07,2.27,3.4,2,5.45-.85,6.4-1.85,12.78-2.8,19.17C1343.67,800.09,1344.09,801.49,1343.24,802.36Z" transform="translate(-0.75 -109.41)"/><path class="cls-10" d="M1309.51,364.09l1.56-.09c1.63-.92,3.52.16,5.16-.66,12.11-2.36,24.06-5.4,34.77-11.69,11.4-6.69,21.68-14.8,28-26.85.8-1.5,2.18-2.27,3.42-3.23-1.31,12-6.56,22.06-14.69,30.88-14.86,16.1-34.15,23-55,26.41a122,122,0,0,1-61.66-5.63c-12.22-4.34-23.49-10.44-32.77-19.5-8.34-8.13-14.18-17.88-15-30-1.21-3.09-.33-6.31-.59-9.47a4.06,4.06,0,0,1,.65-2.6,30.33,30.33,0,0,1,6.06-15.5c0,3.36,0,6.73,0,10.09.74,1.48-.12,3.16.61,4.64l1.26,1.52a1.75,1.75,0,0,0,.22,2.26,55,55,0,0,0,8.51,16.94,71.78,71.78,0,0,0,26.21,21.17,99.68,99.68,0,0,0,30.91,9.83,7.59,7.59,0,0,1,1.72.7c1.16.55,2.38.22,3.57.23l3.13.49c3,.86,6.08-.23,9,.63l8.18-.4C1305.13,364.33,1307.33,364.67,1309.51,364.09Z" transform="translate(-0.75 -109.41)"/><path class="cls-11" d="M1518.66,236.28c2.62-6.58,5.61-13,7.75-19.76a51,51,0,0,0-7.77-44c-6.19-8.3-14.37-14.48-23.71-19-13.75-6.73-28.46-9.87-43.57-11.41a146.41,146.41,0,0,0-20.09.08c-8.68,1.3-17.41,2.33-25.74,5.32-4,1.42-7.87,2.92-11.8,4.39,2.76-6.77,8.63-10.55,14.67-13.33,26.22-12.06,53.42-14.61,81.19-6.24A78.19,78.19,0,0,1,1525,154.86c12.88,14,18.32,30.24,14.38,48.92a55.84,55.84,0,0,1-16.65,30A24,24,0,0,1,1518.66,236.28Z" transform="translate(-0.75 -109.41)"/><path class="cls-10" d="M1541.21,413c10.15-3.4,20.24-7,29-13.27A69.85,69.85,0,0,0,1589.18,380c3.59-5.69,5.47-11.89,7.14-18.24a53.19,53.19,0,0,0,0-12.61,11.76,11.76,0,0,1-.85-5.25c-.72-.59-.7-1.65-1.39-2.26-3.28-10.25-9.67-18.45-17.68-25.27-6.39-5.44-14.13-9-21.51-12.93-3.57-1.91-7.18-3.76-10.76-5.64,20.23,1.8,39.07,7.53,55.08,20.45a54.41,54.41,0,0,1,14.83,18.95,44.74,44.74,0,0,1,4,14.84,10.38,10.38,0,0,1,0,7.54c-1,12.3-7.2,21.78-16.08,29.85C1584.71,405.06,1564,411.65,1541.21,413Z" transform="translate(-0.75 -109.41)"/><path class="cls-12" d="M1071.17,373.07c5.41-1.76,10.82-3.49,16.22-5.29a129,129,0,0,0,39.83-21.88,93.84,93.84,0,0,0,26.07-32.48,53.31,53.31,0,0,0,5.52-18c.43-4.29,1.63-8.45,1.48-12.86A75.3,75.3,0,0,0,1149.61,246a89.84,89.84,0,0,0-14.7-19c-.8-.78-1.65-1.55-1.49-2.84,2.79,1.19,4.5,3.62,6.52,5.71a87.79,87.79,0,0,1,14.77,20.78c3.94,7.53,6.8,15.61,7.11,24.32,1,1.11.25,2.79,1.26,3.91a102.22,102.22,0,0,1,0,14.11c-.91,1-.56,2.29-.65,3.47a3.82,3.82,0,0,1-.63,2.58c-1.63,14.81-8,27.6-16.82,39.32-17.32,22.95-40.81,35.67-68.55,41.36C1074.81,377.45,1072.22,375.87,1071.17,373.07Z" transform="translate(-0.75 -109.41)"/><path class="cls-12" d="M1079,194.46c-4.55.53-8.72-1-12.88-2.46-2.86-1-5.87-.68-8.78-1a207.74,207.74,0,0,0-42.17-1.07A167.6,167.6,0,0,0,972.6,199c-17,6.06-32.38,14.67-45.47,27.3-6.79,6.56-13,13.49-17.12,22l-12.62-.49c3-7.39,8-13.49,13.48-19a128,128,0,0,1,30-21.67A163.83,163.83,0,0,1,991.13,190c26.22-4.52,52.35-4.32,78.35,1.61C1072.71,192.37,1075.85,193.51,1079,194.46Z" transform="translate(-0.75 -109.41)"/><path class="cls-13" d="M1676,753.76c-1.56-.31-1.36-1.56-1.36-2.65q0-12.89,0-25.76c0-1.17-.36-2.61,1.4-3Q1676,738.06,1676,753.76Z" transform="translate(-0.75 -109.41)"/><path class="cls-14" d="M498.85,839c-.53-4.65,0-9.3,0-14,0-.95.27-1.69,1.3-1.92q0,6.9-.1,13.79C500,837.82,499.89,838.65,498.85,839Z" transform="translate(-0.75 -109.41)"/><path class="cls-15" d="M1231.81,819.46a1.65,1.65,0,0,1-1.42-1.82q0-5.29,0-10.59a1.6,1.6,0,0,1,1.38-1.83Z" transform="translate(-0.75 -109.41)"/><path class="cls-16" d="M1328.85,862.49c0,3.82.08,7.65.13,11.47,0,1-.08,2-1.39,2.23.05-3.76.1-7.51.14-11.27C1327.74,863.94,1327.72,863,1328.85,862.49Z" transform="translate(-0.75 -109.41)"/><path class="cls-17" d="M1679.23,835.74c0-4-.5-8,0-11.92,2,.74,1.13,2.46,1.2,3.76.14,2.78,0,5.56.06,8.34C1680,836.3,1679.59,836.3,1679.23,835.74Z" transform="translate(-0.75 -109.41)"/><path class="cls-18" d="M1344.51,874c-.23.06-.63.25-.69.17-1.43-1.82-.93-9.64.72-11.45Z" transform="translate(-0.75 -109.41)"/><path class="cls-19" d="M1203.38,314c0,3.27,0,6.55,0,9.82-2.52-1.12-1.12-3.36-1.37-5.08a27.27,27.27,0,0,1,.08-4.69A.79.79,0,0,1,1203.38,314Z" transform="translate(-0.75 -109.41)"/><path class="cls-20" d="M241.78,134l0,9.76C239.69,141.57,239.69,136.22,241.78,134Z" transform="translate(-0.75 -109.41)"/><path class="cls-21" d="M1328.87,822.54l0,8.19c-2.54-2.48-1-5.57-1.25-8.38C1328.08,822,1328.52,822,1328.87,822.54Z" transform="translate(-0.75 -109.41)"/><path class="cls-22" d="M1618,359.56c0-2.52,0-5,0-7.54A5.53,5.53,0,0,1,1618,359.56Z" transform="translate(-0.75 -109.41)"/><path class="cls-23" d="M656.36,726c2.45,2.21,1.1,5,1.28,7.64C655,731.44,656.6,728.55,656.36,726Z" transform="translate(-0.75 -109.41)"/><path class="cls-24" d="M1679.24,812.16c.19-2.6-1.55-5.52,1.26-7.69C1680.23,807.06,1681.45,809.89,1679.24,812.16Z" transform="translate(-0.75 -109.41)"/><path class="cls-25" d="M811.49,747.78c-2.92-2.11-.9-5.07-1.34-7.61.52-.31,1-.33,1.28.3Z" transform="translate(-0.75 -109.41)"/><path class="cls-26" d="M657.65,756.7c-.22,2.12,1,4.53-1.27,6.22C656.65,760.82,654.93,758.31,657.65,756.7Z" transform="translate(-0.75 -109.41)"/><path class="cls-27" d="M1432.11,302.61v-5.83c2.71,1.57,1,4.07,1.29,6.14C1432.87,303.22,1432.41,303.23,1432.11,302.61Z" transform="translate(-0.75 -109.41)"/><path class="cls-28" d="M811.47,809.76c-2.22-2-2.26-4,0-6Z" transform="translate(-0.75 -109.41)"/><path class="cls-29" d="M486.91,698.43c2.19,1.78,2.3,3.56,0,5.32Z" transform="translate(-0.75 -109.41)"/><path class="cls-30" d="M1432.11,302.61l1.29.31c0,1.7,0,3.41,0,5.12C1430.91,306.7,1432.26,304.48,1432.11,302.61Z" transform="translate(-0.75 -109.41)"/><path class="cls-31" d="M1522.22,908.3c-2.47-1-1.13-3.07-1.25-4.73C1523.15,904.68,1522.05,906.66,1522.22,908.3Z" transform="translate(-0.75 -109.41)"/><path class="cls-32" d="M1025.73,559.6c0,1.5,0,3,0,4.51C1023.61,562.6,1023.61,561.09,1025.73,559.6Z" transform="translate(-0.75 -109.41)"/><path class="cls-33" d="M1328.87,822.54l-1.28-.19v-3.69C1329.83,819.36,1328.77,821.14,1328.87,822.54Z" transform="translate(-0.75 -109.41)"/><path class="cls-34" d="M1679.23,835.74l1.28.18c0,1.23,0,2.47,0,3.7C1678.27,838.92,1679.32,837.14,1679.23,835.74Z" transform="translate(-0.75 -109.41)"/><path class="cls-23" d="M811.43,740.47l-1.28-.3c0-1.22,0-2.43,0-3.65C812.41,737.27,811.47,739,811.43,740.47Z" transform="translate(-0.75 -109.41)"/><path class="cls-35" d="M1163.08,278.94c-2.19-.73-1.23-2.48-1.26-3.91C1163.83,275.82,1163.1,277.5,1163.08,278.94Z" transform="translate(-0.75 -109.41)"/><path class="cls-36" d="M515.17,709.69l.11-3.77C517.34,707.23,517.7,708.5,515.17,709.69Z" transform="translate(-0.75 -109.41)"/><path class="cls-37" d="M1324.35,782.83c0,1.26,0,2.51,0,3.77C1322.2,785.35,1322.15,784.09,1324.35,782.83Z" transform="translate(-0.75 -109.41)"/><path class="cls-38" d="M1214.1,797c2.17.74,1.35,2.45,1.27,3.93C1213.36,800.13,1214.16,798.42,1214.1,797Z" transform="translate(-0.75 -109.41)"/><path class="cls-39" d="M498.82,870.8l.06-3.62c2.24.75,1.23,2.5,1.22,3.94C499.58,871.4,499.12,871.39,498.82,870.8Z" transform="translate(-0.75 -109.41)"/><path class="cls-40" d="M498.82,870.8l1.28.32c0,1.2,0,2.39,0,3.58C497.82,874,498.9,872.21,498.82,870.8Z" transform="translate(-0.75 -109.41)"/><path class="cls-41" d="M1056.54,479.67c1.83.48,1.48,1.85,1.3,3.15C1056.09,482.31,1056.48,480.93,1056.54,479.67Z" transform="translate(-0.75 -109.41)"/><path class="cls-42" d="M964,538.76c-.05-1.25-.49-2.65,1.27-3.17C965.43,536.9,965.81,538.28,964,538.76Z" transform="translate(-0.75 -109.41)"/><path class="cls-43" d="M143.42,257.9c2.2.31,1.34,1.9,1.32,3.13C143,260.53,143.36,259.15,143.42,257.9Z" transform="translate(-0.75 -109.41)"/><path class="cls-44" d="M1363.43,234.81c.6,0,1.19-.06,1.33.73-2,0-4.08.41-6-.57Z" transform="translate(-0.75 -109.41)"/><path class="cls-45" d="M1518.51,809.83c-1.7-.52-1.41-1.87-1.31-3.14C1519,807.18,1518.75,808.51,1518.51,809.83Z" transform="translate(-0.75 -109.41)"/><path class="cls-46" d="M1020,727.66c0-1-.09-2-.14-3.06,2.46,0,1.16,1.86,1.4,2.95A.77.77,0,0,1,1020,727.66Z" transform="translate(-0.75 -109.41)"/><path class="cls-47" d="M813.87,833.66c0-1.25-.35-2.6,1.32-3.13C815.49,831.88,815.64,833.17,813.87,833.66Z" transform="translate(-0.75 -109.41)"/><path class="cls-48" d="M503.36,735.16c-.17-1.29-.51-2.64,1.25-3.17C504.72,733.25,505.28,734.69,503.36,735.16Z" transform="translate(-0.75 -109.41)"/><path class="cls-49" d="M1161.83,299.1v-2.89c.33-.6.78-.59,1.29-.25C1163.23,297.23,1163.69,298.64,1161.83,299.1Z" transform="translate(-0.75 -109.41)"/><path class="cls-50" d="M1343.24,802.36c-.2-1.31-.49-2.66,1.31-3.13C1344.67,800.5,1344.94,801.84,1343.24,802.36Z" transform="translate(-0.75 -109.41)"/><path class="cls-51" d="M1163.12,296l-1.29.25c0-1.24-.65-2.71,1.28-3.16C1163.11,294,1163.12,295,1163.12,296Z" transform="translate(-0.75 -109.41)"/><path class="cls-52" d="M1234.27,853.89c-.35-1.22,0-2.08,1.3-2.4C1235.74,852.62,1235.77,853.67,1234.27,853.89Z" transform="translate(-0.75 -109.41)"/><path class="cls-53" d="M1066.06,855.35c-1.42-.25-1.55-1.21-1.3-2.39C1066.14,853.25,1066.34,854.17,1066.06,855.35Z" transform="translate(-0.75 -109.41)"/><path class="cls-54" d="M1020,727.66l1.26-.11c.18,1.12.15,2.13-1.3,2.35C1020,729.15,1020,728.41,1020,727.66Z" transform="translate(-0.75 -109.41)"/><path class="cls-55" d="M1397.57,345.26c.25,1.18,0,2.09-1.33,2.37C1396,346.47,1396.19,345.52,1397.57,345.26Z" transform="translate(-0.75 -109.41)"/><path class="cls-56" d="M672.78,730.67a1.69,1.69,0,0,1,1.34-2.37C674.36,729.48,674.16,730.4,672.78,730.67Z" transform="translate(-0.75 -109.41)"/><path class="cls-57" d="M565.09,734.26c.17,1.12.3,2.22-1.26,2.43C563.49,735.49,563.71,734.57,565.09,734.26Z" transform="translate(-0.75 -109.41)"/><path class="cls-58" d="M1203.38,314l-1.28.05c-.12-1.1,0-2.08,1.35-2.3Z" transform="translate(-0.75 -109.41)"/><path class="cls-59" d="M1376.09,456.52c1.4.28,1.56,1.23,1.29,2.41C1375.91,458.68,1375.9,457.66,1376.09,456.52Z" transform="translate(-0.75 -109.41)"/><path class="cls-60" d="M439.65,425.29c-1.42-.29-1.61-1.21-1.25-2.42C440,423.06,439.82,424.18,439.65,425.29Z" transform="translate(-0.75 -109.41)"/><path class="cls-61" d="M1401.3,330.33c.25,1.18,0,2.1-1.32,2.38C1399.74,331.54,1399.93,330.6,1401.3,330.33Z" transform="translate(-0.75 -109.41)"/><path class="cls-62" d="M272.62,366.22c.74.13,1.39.36,1.28,1.3-.08.74-.67.87-1.26,1Z" transform="translate(-0.75 -109.41)"/><path class="cls-63" d="M819.71,665.57c.23,1.18,0,2.09-1.35,2.36C818.11,666.75,818.37,665.85,819.71,665.57Z" transform="translate(-0.75 -109.41)"/><path class="cls-64" d="M713.1,800.71c1.28.31,1.61,1.16,1.34,2.36A1.67,1.67,0,0,1,713.1,800.71Z" transform="translate(-0.75 -109.41)"/><path class="cls-65" d="M910.94,621.64c-.28-1.22.07-2.06,1.37-2.35C912.52,620.46,912.25,621.35,910.94,621.64Z" transform="translate(-0.75 -109.41)"/><path class="cls-66" d="M850.47,835.79c1.32.3,1.61,1.18,1.34,2.37A1.68,1.68,0,0,1,850.47,835.79Z" transform="translate(-0.75 -109.41)"/><path class="cls-67" d="M919,249.82a84.92,84.92,0,0,1,15.69-19.52,108.48,108.48,0,0,1,17.07-13c14.14-8.95,29.59-14.39,45.78-17.86a101.58,101.58,0,0,1,21.65-2.7c3.58,0,7.1-.86,10.72-.76,21.57.62,42.52,4.1,62.46,12.74a111.36,111.36,0,0,1,39.9,28.49,72.35,72.35,0,0,1,17.53,37.49c2.46,15.82-1.5,30.37-9.53,43.71-9.08,15.07-22.16,26.08-37.58,34.49a144,144,0,0,1-33.15,12.85,34.88,34.88,0,0,0-3.48,1.31,24.8,24.8,0,0,1-8.2-9.6c0-2.29,1.91-2.28,3.36-2.62,15.93-3.71,30.91-9.7,43.88-19.79,17.26-13.43,29-30.28,28.66-53.08-.22-15.46-6.92-28.57-17.29-39.84-15.15-16.48-34.47-25.23-55.82-30.35a120.16,120.16,0,0,0-29.57-3.37c-30.76.44-59.3,8-82.92,29.1-4.47,4-8.06,8.79-11.62,13.58-.84,1.13-1.37,2.8-3.33,2.46Z" transform="translate(-0.75 -109.41)"/><path class="cls-68" d="M933.2,253.54c3.73-4.59,7.15-9.49,11.25-13.72,11-11.34,24.31-19.1,39.12-24.35a140.1,140.1,0,0,1,40.63-7.67,137.61,137.61,0,0,1,47.49,6c18,5.54,34,14.48,46.56,28.8,11.11,12.69,17.61,27.37,16.48,44.48-.82,12.54-5.77,23.73-13.62,33.6-14.19,17.81-33.07,28-54.68,33.83-2.87.78-6.27.46-8.58,3-2.64-.5-3-3.3-4.69-4.8-2.3-2-3.93-4.78-5.85-7.23,1.18-2.26,3.54-2.07,5.51-2.5,11.73-2.58,23.08-6.21,33.19-12.85,11.5-7.55,21.12-16.7,26.4-30,6.42-16.12,3.53-30.93-6-44.49-8.91-12.74-21.41-21.22-36-26.68a110.93,110.93,0,0,0-47.17-7.24c-24.23,1.75-46.18,9.3-63.88,26.82-2.68,2.65-4.53,5.9-6.71,8.91-1,1.33-1.62,3.24-3.89,2.87Z" transform="translate(-0.75 -109.41)"/><path class="cls-69" d="M948.8,260.3c1.9-.77,2.64-2.62,3.6-4.15,8.59-13.63,21.52-21.55,35.94-27.6a105.17,105.17,0,0,1,50.2-7.75c25.51,2.2,48.72,10.39,66,30.52,8.24,9.6,12.89,21.05,12.24,33.8-.61,12.05-5.42,22.7-13.58,31.8-14.24,15.9-32.73,23.5-53.07,27.63-1,.2-1.88.58-2.82.87-3.71-3.3-6.61-7.27-9.53-11.24-1.81-1.65-.21-2.06,1-2.4,2.87-.83,5.87-1,8.78-1.65,14.47-3.12,27.78-8.57,38.19-19.58,9.62-10.16,13.74-22.13,10.49-35.92-2.17-9.22-7.56-16.72-14.91-22.66-13.63-11-29.51-16.05-46.84-16.89a87.19,87.19,0,0,0-37.9,6.42c-12.7,5.22-22.83,13.43-29.7,25.46-.68,1.19-1,2.93-2.91,2.93Z" transform="translate(-0.75 -109.41)"/><path class="cls-70" d="M963.94,269.89c3.55-6,7.25-11.72,12.36-16.61,10.26-9.8,22.76-14.72,36.27-17.67a81.57,81.57,0,0,1,21.82-1.49c20.33,1.08,38.77,7.08,52.94,22.41,8.32,9,12.33,19.68,10.36,32.36-1.82,11.63-8,20.26-16.83,27.44-12.12,9.9-26.52,14-41.62,16.27-1,.16-2.14-.05-1.46,1.58-3.66-2.36-5.69-6.33-9-9.09-.54-3.47,2.17-3,4-3.07a68.2,68.2,0,0,0,22.22-4.32c9.39-3.48,17.66-8.59,23.32-17.15,9-13.59,7-26.66-3.29-38.55-6.6-7.62-15.3-11.84-24.75-14.49-16-4.5-32-4-47.48,2.42-11.1,4.63-20.25,11.57-24.78,23.35-.6,1.56-.87,4.25-3.87,3.41Z" transform="translate(-0.75 -109.41)"/><path class="cls-71" d="M1021.37,316.93c-5.28-4-9.63-9-14.62-13.37-7.51-6.54-14.91-13.21-22.81-19.29,1.07-10.57,5.52-19.21,14.57-25.16,10.8-7.11,22.73-9.48,35.54-8.93a52.71,52.71,0,0,1,28.27,9.35c6.44,4.43,11.13,10.33,12.86,18.14,2.39,10.81-1.49,19.67-9.42,26.73-9,8-19.75,11.74-31.75,12.09C1029.8,316.61,1025.55,316,1021.37,316.93Z" transform="translate(-0.75 -109.41)"/><path class="cls-72" d="M1021.37,316.93c-.7-1.76.58-1.45,1.53-1.46,3.48,0,7,0,10.44,0,12.4,0,23.53-4,32.51-12.38,10.83-10.08,12.66-25,2.3-36.77-9-10.21-20.64-14.34-33.84-15.06-9.51-.51-18.78.42-27.57,4.49-10.33,4.77-18.6,11.28-20.71,23.37-.31,1.78-1.37,3.44-2.09,5.15-3.12-2.67-7.09-4.26-9.71-7.58,1.93-.17,2.24-1.89,2.74-3.18,6.46-16.69,20.28-24.14,36.35-28a71.32,71.32,0,0,1,42.34,2.64c15.82,5.94,27.08,16.17,29.57,33.56.88,6.13-1.6,12.22-4.85,17.58-7.82,12.91-20.31,18.79-34.33,22.06-4.56,1.06-9.2,1.94-14,1.58-1.58-.12-3,.09-3.26,2.14C1026.33,322.39,1023.42,320,1021.37,316.93Z" transform="translate(-0.75 -109.41)"/><path class="cls-73" d="M1496.9,332.56l-14.85,0A35.23,35.23,0,0,1,1496.9,332.56Z" transform="translate(-0.75 -109.41)"/><path class="cls-74" d="M1334.41,311.79a22.23,22.23,0,0,1-12.29,0Z" transform="translate(-0.75 -109.41)"/><path class="cls-75" d="M1338.68,270.66a3.26,3.26,0,0,1-2.7-1.45c3.43.18,6.51-.72,9.47.69C1343.21,270.3,1340.8,269.15,1338.68,270.66Z" transform="translate(-0.75 -109.41)"/><path class="cls-76" d="M1517.05,378.67c-3.56.2-7.13.89-10.62-.44C1510,378.4,1513.54,377.65,1517.05,378.67Z" transform="translate(-0.75 -109.41)"/><path class="cls-77" d="M1408,180.3a16.46,16.46,0,0,1,10.65,0Z" transform="translate(-0.75 -109.41)"/><path class="cls-78" d="M1307.25,276.69v8.92A12.57,12.57,0,0,1,1307.25,276.69Z" transform="translate(-0.75 -109.41)"/><path class="cls-79" d="M1364.82,283.38a9.51,9.51,0,0,1,0,8.17Z" transform="translate(-0.75 -109.41)"/><path class="cls-80" d="M1471.5,207.85h-7.34A9.06,9.06,0,0,1,1471.5,207.85Z" transform="translate(-0.75 -109.41)"/><path class="cls-81" d="M1540.29,347.51a9.14,9.14,0,0,1,0,7.64Q1540.3,351.33,1540.29,347.51Z" transform="translate(-0.75 -109.41)"/><path class="cls-82" d="M1397.59,190.88c-2.34-1.3-2.31-2.59,0-3.88C1397.6,188.29,1397.59,189.58,1397.59,190.88Z" transform="translate(-0.75 -109.41)"/><path class="cls-83" d="M1458,199c2.15-1.33,4.49-.61,6.77-.63C1462.66,199.68,1460.29,198.73,1458,199Z" transform="translate(-0.75 -109.41)"/><path class="cls-84" d="M1427.62,203.43v-6.6A7.5,7.5,0,0,1,1427.62,203.43Z" transform="translate(-0.75 -109.41)"/><path class="cls-85" d="M1484.29,220.63c0-2,0-4,0-5.95A5.56,5.56,0,0,1,1484.29,220.63Z" transform="translate(-0.75 -109.41)"/><path class="cls-86" d="M1327.52,299.9h5.86A6,6,0,0,1,1327.52,299.9Z" transform="translate(-0.75 -109.41)"/><path class="cls-87" d="M1433.4,236.34c0,1.06.48,2.22-.69,3C1431.78,238.08,1431.35,236.93,1433.4,236.34Z" transform="translate(-0.75 -109.41)"/><path class="cls-88" d="M1487.3,319.29c2,0,4.11-.68,6,.64C1491.3,319.69,1489.18,320.6,1487.3,319.29Z" transform="translate(-0.75 -109.41)"/><path class="cls-83" d="M1468.62,198.35c2,0,4.11-.6,6,.64C1472.63,198.73,1470.5,199.67,1468.62,198.35Z" transform="translate(-0.75 -109.41)"/><path class="cls-89" d="M1413.28,185.47l-5.92.15A5.55,5.55,0,0,1,1413.28,185.47Z" transform="translate(-0.75 -109.41)"/><path class="cls-90" d="M1469.83,319.9c1.7-1.2,3.59-.6,5.42-.6C1473.56,320.57,1471.64,319.72,1469.83,319.9Z" transform="translate(-0.75 -109.41)"/><path class="cls-91" d="M1354.46,285.54v-5.11A4.79,4.79,0,0,1,1354.46,285.54Z" transform="translate(-0.75 -109.41)"/><path class="cls-92" d="M1290.12,284.94c-1.29-1.62-.61-3.48-.62-5.26C1290.75,281.31,1289.91,283.19,1290.12,284.94Z" transform="translate(-0.75 -109.41)"/><path class="cls-92" d="M1289.5,277.34c0-1.82-.66-3.71.59-5.39C1289.93,273.75,1290.75,275.66,1289.5,277.34Z" transform="translate(-0.75 -109.41)"/><path class="cls-93" d="M1430.39,254.31c0,1.71,0,3.41,0,5.12A4.85,4.85,0,0,1,1430.39,254.31Z" transform="translate(-0.75 -109.41)"/><path class="cls-94" d="M1431.18,247.56c0,1.57.43,3.18-.63,4.6C1430.71,250.62,1429.93,249,1431.18,247.56Z" transform="translate(-0.75 -109.41)"/><path class="cls-95" d="M1475.37,232.62c-.67,1-1.64.64-2.53.73-.18-1.49.88-1.42,1.7-1.62C1474.82,232,1475.09,232.32,1475.37,232.62Z" transform="translate(-0.75 -109.41)"/><path class="cls-96" d="M1527.66,354.27v-4.39A3.55,3.55,0,0,1,1527.66,354.27Z" transform="translate(-0.75 -109.41)"/><path class="cls-97" d="M1403.71,195.88c.89.38.52,1.72,1.94,1.83-1.73,1-2.29-.05-2.92-.9Z" transform="translate(-0.75 -109.41)"/><path class="cls-74" d="M1308.73,273.66c.18,1.16,0,2.06-1.41,2.22C1307.33,274.85,1307.22,273.74,1308.73,273.66Z" transform="translate(-0.75 -109.41)"/><path class="cls-98" d="M1431.94,242.29c.06,1.31.4,2.66-.67,3.76C1431.4,244.78,1430.79,243.38,1431.94,242.29Z" transform="translate(-0.75 -109.41)"/><path class="cls-99" d="M1464.08,320.68c1.07-1.13,2.43-.66,3.7-.64C1466.7,321.17,1465.32,320.53,1464.08,320.68Z" transform="translate(-0.75 -109.41)"/><path class="cls-100" d="M1322.25,299.08c1.28.05,2.66-.42,3.75.7C1324.73,299.62,1323.32,300.28,1322.25,299.08Z" transform="translate(-0.75 -109.41)"/><path class="cls-101" d="M1339.42,311c-1.07,1.15-2.42.74-3.7.68C1336.79,310.54,1338.17,311.14,1339.42,311Z" transform="translate(-0.75 -109.41)"/><path class="cls-102" d="M1499.21,370c1.29,0,2.65-.39,3.74.69C1501.69,370.56,1500.28,371.21,1499.21,370Z" transform="translate(-0.75 -109.41)"/><path class="cls-103" d="M1495.48,320c1.28,0,2.64-.45,3.71.67C1497.94,320.55,1496.55,321.15,1495.48,320Z" transform="translate(-0.75 -109.41)"/><path class="cls-104" d="M498.86,585.08c0-2.79,0-5.58,0-8.37A6.36,6.36,0,0,1,498.86,585.08Z" transform="translate(-0.75 -109.41)"/><path class="cls-105" d="M381.62,605.11c2.2.73,1.31,2.47,1.28,3.92C380.91,608.24,381.68,606.54,381.62,605.11Z" transform="translate(-0.75 -109.41)"/><path class="cls-106" d="M342.74,300.52a15,15,0,0,0,5.34-1.4c10.87-4.47,22.64-6.1,33.52-10.52,5.89-2.4,10.07,1,14.63,3.59A137.92,137.92,0,0,0,411.31,300c2,.84,3.17,1.84,1.81,4.42a186.33,186.33,0,0,0-11.2,26.51c-1.24,3.6-1.43,7.55-2.11,11.34-2.07,11.39-2.23,22.88-1.74,34.41.73,1.74,1.24,3.43-1.1,4.4-13.78.75-27.57,1.29-41.34,2.29a304.28,304.28,0,0,1-51.4-.88c-9.25-.9-18.33.54-26.58,5.27-3.17,1.81-6.18,3.91-10.26,6.51,2-4.19,3.7-7.39,5.22-10.59a44.64,44.64,0,0,0,3.55-12.28c.38-2.3,1.09-2.68,3.13-1.85,3.77,1.53,7.55,3.09,11.42,4.28,14.06,4.32,27.41,2.9,39.71-5.45a33,33,0,0,0,9.09-9.94,73.17,73.17,0,0,0,9.86-25.12,5.74,5.74,0,0,1,.1-.74c.61-1.79,2.69-4.05,1.22-5.29-1.66-1.38-4.09.65-6.05,1.4a261.74,261.74,0,0,1-56,14.63,163.8,163.8,0,0,1-59-1.87,35.91,35.91,0,0,1-4.18-1.49c-.16-2.46,2.06-2.83,3.48-3.85,2.88-2.07,5.46-4.66,9.09-5.5,2.61,1.3,4.24,4,7.29,5.21.52-2-.59-3.2-1.5-4.43-1.09-1.48-2.42-2.83-2.46-4.85,3.13-4.7,7.17-8.62,10.94-12.77a2.35,2.35,0,0,1,2.1-.45c5,2.53,9,6.54,13.25,10.05a14,14,0,0,0,3.62,2.55c.8.31,1.77.82,2.39-.05s-.09-1.67-.65-2.3a77.4,77.4,0,0,0-8.6-8.19c-2.92-2.44-6.32-4.35-8.64-7.5,3.67-5.32,7.89-10.22,12-15.23a3.32,3.32,0,0,1,2.66-1.08c5.46.74,10.26,3.56,15.55,4.89,3,.74,5.9,1.73,9.46,1.79-.81-1.9-2.32-2.13-3.59-2.51-5.56-1.69-11-3.86-16.52-5.57-1.5-.46-3.2-.76-3.9-2.53,2.3-5.77,5.87-10.86,8.8-16.3a30.78,30.78,0,0,0,3.82-13.49c.3-7.05-2.68-11.61-9.44-14a80.16,80.16,0,0,0-21.82-4.36c-11.87-.71-23.82-.52-35.56-2.88a72.86,72.86,0,0,1-23.59-8.86,29.63,29.63,0,0,1-10.84-11.52c-1.08-2-2.24-4.25-.64-6.63,15.41-3.17,31.05-3.72,46.69-3.59,24.36.2,48.61,1.92,72.57,6.5,10,1.9,19.86,4.14,30.2,6.31-2.77,2.74-5.94,4.68-8.59,7.23A86.12,86.12,0,0,0,313,237.5c-5.23,7.23-10.1,14.8-10.71,24.16a9.91,9.91,0,0,0,0,7.58c.84,10,7.77,15.2,15.72,19.19,8.21,4.13,17.2,5.87,26.33,7,.3,1.34-1.06,1.42-1.6,2.1A1.82,1.82,0,0,0,342.74,300.52Z" transform="translate(-0.75 -109.41)"/><path class="cls-107" d="M314.32,549.91c-9.06-.07-17.72-2.35-27.3-4.91,5-1.92,9.92-1.33,13.74-4.07.39-1.62-.89-1.07-1.54-1.09-2.32-.07-4.64,0-7-.05-.8,0-2.13.45-1.89-1.26l2.37-2.8a5.81,5.81,0,0,0-.06-6c-.58-.89-1.13-1.79-1.75-2.65-.34-.48-.8-1.06-1.43-.76s-.51,1.21-.54,1.9a7.32,7.32,0,0,1,0,6.75c-2.3,3.9-6.54,4-10.22,5.18-1.13.35-1.66-.72-2.32-1.47-5.56-6.36-10.1-13.62-16.81-18.94a76.22,76.22,0,0,1-12.5-12.31c0-3.57,3.1-5.15,4.88-7.5,9.34-12.32,20-23.66,27.7-37.18a5.31,5.31,0,0,1,2.63-2.53c7.1.07,13.87,2.28,20.84,3.19,6.62.86,13.22,1.76,19.9,2.11,2.59.14,5.17.55,7.75.83,2.2.83,4.58-.25,6.78.63l2.2.14a141,141,0,0,0,20,0l4.41-.12c2.71-.87,5.56.19,8.28-.62,6.5-.77,13-1.6,19.49-2.29a269,269,0,0,0,36.42-6.31c2.87-.71,5.77-1.29,8.68-1.86,1.88-.37,3.09-.19,3.55,2.35,1.16,6.53,4.79,12.32,5.36,19.16a43.11,43.11,0,0,1-3,20.5,58.75,58.75,0,0,1-9.23,15.81,85.59,85.59,0,0,1-22.84,19c-14.43,8.46-30.15,13.4-46.56,16.19-3.63.62-7.31,1.34-11.06,1-1.72.8-3.65-.2-5.37.64l-3.73.07a126.1,126.1,0,0,1-20.29,0l-3.65-.11C318.36,549.7,316.22,550.86,314.32,549.91Z" transform="translate(-0.75 -109.41)"/><path class="cls-106" d="M291.29,427.68c3.76,1,6.33,2.6,10,1.94-1.76,3.18-4.76,2.33-6.64,3.65a6.47,6.47,0,0,1-2.45.71c-1.37.25-1.66.66-1.23,2.22.51,1.91,1.52,1.26,2.4.9,5-2,10.48-2.84,15-6a5.4,5.4,0,0,1,3.23-.63c12.92-.5,25.85-.82,38.76-1.51,13.25-.7,26.48-1.87,39.67-3.4,9.6-1.11,19.22-2.09,28.81-3.23,2.2-.27,2.66.72,2.26,2.48-.85,3.71.46,6.19,3.29,8.84a57.63,57.63,0,0,1,11.26,15c1.47,2.74.54,5.2-2.45,5.78-19.29,3.78-38.59,7.67-58.21,9.26-11.15.9-22.37.55-33.56,0-13.26-.65-26.49-1.64-39.65-3.39-25.26-3.36-50.09-8.42-73.52-18.89-1.12-.51-2.06-1.46-3.21-1.84-1.79-.59-1.19-1.69-.64-2.56,4.67-7.35,10.78-13.3,17.43-18.89,8.16-6.86,16.61-13.31,25.18-19.61,10.15-7.46,21.18-12.52,34.16-12.13,15.15.46,30.28,1.61,45.46.81,18.49-1,37-2,55.48-2.61,16.76-.57,33.55-1.39,50.3.29.25,0,.5,0,.74.07,8.12,1.4,9.85,4.09,6.7,11.66a54.88,54.88,0,0,1-4.77,8.7c-3.77,5.78-9.48,7.29-15.31,8.62a578.54,578.54,0,0,1-59.91,10.45A359.65,359.65,0,0,1,333,426.72c-11.68-.15-23.38-.11-35.07-.12A13.08,13.08,0,0,0,291.29,427.68Z" transform="translate(-0.75 -109.41)"/><path class="cls-108" d="M254.58,314c-2.48-.12-3.06,2.16-4.33,3.51-2.83,3-5.56,6.11-8.33,9.17-1.85,1.11-2.33-.67-3.13-1.57-3.62-4-7.43-7.88-11.7-12.5,1,5.53,4.47,8.58,6.87,12.23,1.4,2.12,3.59,3.71,4.18,6.35A70.64,70.64,0,0,0,225.53,340c-13.35-2.14-24.95-7.8-33.49-18.38a24.49,24.49,0,0,1-5.4-15.42c0-5.6,0-11.19-.11-16.78,0-1.8.21-4.49-1.89-4.72-2.54-.29-2.69,2.62-2.92,4.4-.95,7.33,0,14.63.73,21.92.13,1.21.3,2.42.49,4-4.91-1.14-8.2-4.3-11.73-7-3.37-2.59-4.91-6.63-7.41-9.92-.81-1.07-.07-1.59,1-2.14,2.27-1.15,4.41-2.59,6.88-4.07-3.49-2-6,.47-8.68,1.19-2.4.66-3.49.49-4.24-2.13s-1.53-5.63-3.37-8.08c-1-1.37-1.38-2.73,1.42-3.55,3.89-1.14,8.59-.77,11.3-4.79.28-.88-.08-1.16-.93-1-2.91.56-5.82,1.2-8.75,1.68-5.37.87-5.82.64-6.74-4.41-.67-3.66-1-7.38-1.52-11.06-.3-1.94.48-2.42,2.25-2.15a28.4,28.4,0,0,0,9.33.15c-2.63-2.23-5.68-2.07-8.39-2.69-2.16-.49-2.9-1.51-2.9-3.52,0-7.81,2.46-15,5.85-21.84,1.82-3.7,2.54-8,5.92-10.87,2.8,1.82,4.86,4.72,8.2,5.94s5.27-.08,4.73-3.57c-.42-2.78-.8-5.67-2.79-7.92-1.39-1.58-.51-2,1-2.35a37.3,37.3,0,0,1,8.79-1.26c.4,7.36,4.81,12.3,10.39,16.17,8.72,6,18.65,9,29.07,10.54,11.06,1.63,22.23,1.44,33.34,2.26A65.47,65.47,0,0,1,277.63,244c6.37,2.92,8.13,9.07,7.31,16.73-.67,6.23-3.81,11.51-6.8,16.69-2,3.48-3.43,7.43-6.36,10.38-1.56,1.21-3.09.17-4.6-.1-3.14-.57-6.09-2.17-9.89-1.73,3,1.56,5.95,2.24,8.68,3.38,1.63.68,3.73.76,4.48,2.86-3.62.92-4.57,4.57-6.73,6.91-2.59,2.81-4.47,6.29-7.59,8.7-1.47.92-2.25-.46-3.18-1.06a96.15,96.15,0,0,0-12.23-6.66c3.7,4.52,7.85,7.47,11.68,10.76C253.36,311.67,254.94,312.16,254.58,314Z" transform="translate(-0.75 -109.41)"/><path class="cls-109" d="M197,576.7c1.3-7.85,2.33-15.69,1.78-23.73s-4.79-14.28-9.66-20.14-9.45-11.24-12.24-18.41a33.54,33.54,0,0,1-1.55-20.62c1.4-5.75,3.52-11.42,7.82-15.89,2-2.11,4-2.87,7-1.47,7.16,3.33,14,7.29,20.79,11.22a256.64,256.64,0,0,1,30.41,20,111.74,111.74,0,0,1,12.83,12c4.75,5.1,10.08,9.59,14.65,14.93,6.95,8.13,11.29,17,11.55,27.77a107.6,107.6,0,0,1-1,17.49c-.71,5-1.08,5.26-5.92,4.12-7-1.64-14.07-3.1-20.89-5.29-15.43-4.95-30.63-3.64-45.84.7-3.78,1.08-7.56,2.14-11.66,3.29.23-1.44.41-2.5.58-3.56C196.34,578.41,196.4,577.4,197,576.7Z" transform="translate(-0.75 -109.41)"/><path class="cls-106" d="M176.84,611.11c1.58-11.73,9.58-18.24,19.37-22.71,22.85-10.44,46.2-10,69.48-1.59,9.55,3.45,18.53,8.84,24.39,17.1,5.19,7.3,8.29,16.25,4.94,25.58-2.15,6-7.82,8.22-13.37,9.92a52.45,52.45,0,0,1-16.94,2.1c-15.29-.42-30.6,0-45.87-1.28-8.41-.7-16.76-1.69-24.89-4.21-10.16-3.15-15.72-10-17.12-20.38A4.34,4.34,0,0,1,176.84,611.11Z" transform="translate(-0.75 -109.41)"/><path class="cls-110" d="M461.61,229.48c0,18.74-6.89,30.87-18.69,41.19-5.12,4.48-8.79,2.28-12.94.26-9.23-4.47-17.36-10.72-25.79-16.49a95.69,95.69,0,0,1-17.69-15.33c-4.7-5.31-9.21-10.8-13.57-16.4-5.95-7.63-10.55-16.14-15.08-24.64-2.17-4.1-3.53-8.62-5.22-13-.5-1.27-.57-2.39,1.2-2.82,9-2.2,17.32-6.48,26.49-8.27,18-3.53,35.15-1.49,51,7.7a59.88,59.88,0,0,1,23.07,23.71C459,213.94,462,222.67,461.61,229.48Z" transform="translate(-0.75 -109.41)"/><path class="cls-106" d="M384.53,615c0-3.81,0-6.79,0-9.77-.11-6.94-3.07-12.82-6.43-18.73a94.73,94.73,0,0,0-12.75-17.28c-4.59-5-10-9-15.17-13.27a5.86,5.86,0,0,1-1.58-1.91,208.62,208.62,0,0,0,24-3.7c15.64-3.45,30.57-8.78,44.3-17.15,2.14-1.3,3.63-1.36,5.77.59a67.36,67.36,0,0,1,9.2,10.25,74.37,74.37,0,0,0,20,19.1,2.85,2.85,0,0,1,1.72,2.26c-10.12.35-20.32-.44-30.11,2.87-9.5,3.22-18.44,7.26-24.85,16,3.69-.55,6.07-2.85,8.52-4.63,12.75-9.27,27.25-11.83,42.53-11.72l7.83.07a29.9,29.9,0,0,0,9-1.39c9.6-2.87,18.91-1.43,26,6,2.57,2.69,5,6.68,2.93,11.63C491,594.58,491.26,594.57,480,593c-14.47-2.05-29-1.82-43.5-.57-11.53,1-21.88,5.74-31.9,11.18C398,607.15,391.58,611,384.53,615Z" transform="translate(-0.75 -109.41)"/><path class="cls-111" d="M292.36,177.24c3.72-1.86,7.36-3.78,11.1-5.52,6-2.78,12.13-4.87,18.87-4.89a5.83,5.83,0,0,1,5,2.51c5.41,7.26,12.78,12.6,18.78,19.28a38.5,38.5,0,0,1,6,7.83c2.25,4.31,4.62,8.57,6.8,12.93,1,1.92,1.75,3.87-1.51,4.84a6.24,6.24,0,0,0-3.53,3c-1.3,3.07-3.12,2.44-5.26,1.38-7.47-3.69-13.88-8.9-20-14.41-4.93-4.44-9.85-8.9-14.46-13.69-1.28-1.33-1.66-4.13-4-4-4.93.32-9.82,1-14.4,3.15-6.32,3-10.78,8.06-15.06,13.29-1.82,2.22-2.83,1.47-4.27-.21-4.45-5.2-8.49-10.69-12.53-16.24-6.31-8.68-11.69-17.89-15-28-3.69-11.17-5.12-23-.55-34.27,2.81-7,9.22-10,18.65-6.79,9.18,3.11,16.8,8.79,24.16,14.77a210.56,210.56,0,0,1,22.94,22.26c3.07,3.38,3.1,3.61-1.47,5.22-8.23,2.91-15.17,7.47-19.8,15.06A2.22,2.22,0,0,0,292.36,177.24Z" transform="translate(-0.75 -109.41)"/><path class="cls-112" d="M457.63,596.09a230.05,230.05,0,0,1,27.89,1.55c3.88.49,4.48,1.82,2.46,5-12.3,19.26-30.52,28.67-52.59,31.81-12.61,1.79-25,1.59-36.85-3.7a25,25,0,0,1-9.86-8.09c-1.69-2.24-1-4,1.17-5.17,9.57-5.4,19.39-10.32,29.19-15.27C427.51,597.9,441.92,595.63,457.63,596.09Z" transform="translate(-0.75 -109.41)"/><path class="cls-113" d="M238,499.24c-5-3.32-10-6.77-15.07-9.95a213.14,213.14,0,0,0-33.12-16.61c-2.63-1.05-2.72-1.29-.81-3.82,3-4,5.65-2.83,9.09-1.41,9.56,3.95,19,8.31,29,11.4-.71-2-.69-2.08-7.41-5.71-2.78-1.5-5.68-2.76-9-4.37,2.84-.73,5.05-.07,7.64.6a26.93,26.93,0,0,0-14.53-11.92c-2.3-.85-2.46-1.61-.93-3.32,1.89-2.1,3.66-4.31,5.49-6.47.46-.9,1.38-1.16,2.19-1.58,5.18-4.58,10.75-5,17.08-2.28,13.86,5.88,28.63,8.94,42.92,13.51a8.93,8.93,0,0,1,1.28.63c-6.56,4.29-10.84,10.67-15.29,16.86-5.69,7.92-10.84,16.23-17.32,23.57A2.79,2.79,0,0,1,238,499.24Z" transform="translate(-0.75 -109.41)"/><path class="cls-106" d="M464.49,390.79c0-6.1,0-6,5.93-5.35,9.05,1,17.74,2.95,25.31,8.48,6.44,4.69,7.71,14.56,3.44,21.35-5.31,8.46-12.55,13.68-22.19,15.5-10.46,2-18.82-3.32-23.72-10.74-2.3-3.49-1.69-6.72,1.08-9.43,4-3.87,7.55-7.78,9.31-13.31C464.4,394.92,464.05,392.7,464.49,390.79Z" transform="translate(-0.75 -109.41)"/><path class="cls-106" d="M493.13,482.42c-1.11,6.08-3.2,11.34-7.35,15.57-5.52,5.64-11.46,10.78-19.37,12.77-6.4,1.61-15.2-2.45-18.93-8a5.06,5.06,0,0,1-.8-4.45c1.75-6.15,5-11.63,8.33-17,1.89-3.06,4.43-5.72,6.37-8.76a8,8,0,0,1,5.89-4c6.73-.77,13.33-.41,19.4,3.22C490.85,474.31,492.1,478.33,493.13,482.42Z" transform="translate(-0.75 -109.41)"/><path class="cls-114" d="M307.33,370.79c-2.22,0-2.77-1.47-1.6-2.86,1.3-1.55,1.66-3.58,3.38-5.15-3.57.12-5.41,2-6.49,4.81a5.31,5.31,0,0,1-6.37,3.65c-4.18-.69-7.9-2.66-11.64-4.51-2.58-1.27-.75-2.8-.17-4.24,1-3.19,3.88-4.44,6.44-6,3.06-1.93,6.16-3.79,9.76-4.6a37.06,37.06,0,0,0,4.22-1.25,12.84,12.84,0,0,1,2.9-.34c.6,0,1.21,0,1.81,0,3.28,0,6.56,0,9.83,0A12.53,12.53,0,0,1,325,351a6.14,6.14,0,0,1,3.53,1.55c7.79,1.53,8.16,2,3.44,8.18-4.36,5.75-10.52,8.91-17.7,10A16,16,0,0,1,307.33,370.79Z" transform="translate(-0.75 -109.41)"/><path class="cls-115" d="M325,352c-1.63.19-3-1.62-4.71-.66-1.25-1.2-2.81-.58-4.24-.74h-6.41a22.18,22.18,0,0,0-3.91.16,4.26,4.26,0,0,0-1.93.85,12.34,12.34,0,0,0-3,.79,23.79,23.79,0,0,0-10.13,5c-2.77.69-4.48,3-6.69,4.5l-.76.66c-1.21.75-2.66,0-3.88.61a2.55,2.55,0,0,1-2.72-.68c-2.87-3.6-5.67-7.24-7.49-11.53-.46-1.08,0-1.69,1.08-1.77,1.48-.09,3-.09,4.46-.14,1.45-.76,3.13.13,4.6-.6l2.69-.15c1.52-.7,3.23.08,4.76-.59,5.09-.79,10.25-1.33,15.28-2.43,13.27-2.89,27-4.33,39.14-11.13,3.26-.47,1.82,1.63,1.65,3l-.12.74c-.68.7-.77,1.72-1.35,2.48-.24,4.21-2.12,7.71-4.68,10.92-2.45.83-5,.17-7.46.38C327.76,352.17,326.32,351.29,325,352Z" transform="translate(-0.75 -109.41)"/><path class="cls-116" d="M401.74,263.86c0-2.62-1.79-4.75-2.21-7.5,4.49,1.41,7.53,4.75,11.27,6.94,6.35,3.73,13.54,5.83,19.49,10.3,2.8,2.11,3.56,4.48,1.45,7.19a119.91,119.91,0,0,0-7.55,10.13c-.83,1.33-1.89,1.41-3.41.74-5.65-2.49-10.38-6.44-15.55-9.67-5.54-3.45-5.44-3.63-3.73-10.19.49-1.86,1-3.7,1.56-5.55C402.46,265.54,402.38,264.55,401.74,263.86Z" transform="translate(-0.75 -109.41)"/><path class="cls-116" d="M430.71,420c1.17-.08,2.32-.1,2.69,1.32.79,3,2.8,5.53,3.54,8.68a51.37,51.37,0,0,0,14.83,25.7,77.31,77.31,0,0,1,8,9.45,3.78,3.78,0,0,1-.54,5.59c-2.76,2.4-5.55,4.8-7.23,8.17-.3.59-.41,1.59-1.47,1.33-.87-.21-.93-1-1.09-1.75-1-4.77-1.55-9.61-2.72-14.4-1.47-6-5.4-10.49-7.95-15.77-3.1-6.38-7.9-11.53-12.75-16.67-2.5-2.66-2.35-6.27-.9-9.48C426.16,420,428.68,420.3,430.71,420Z" transform="translate(-0.75 -109.41)"/><path class="cls-117" d="M282.31,460.24C276.38,471,268.86,480.54,261,489.9c-4.8,5.71-9.28,11.69-13.9,17.55l-3.69-3.13c-.42-3.41,2.41-5.21,4-7.41,8.37-11.32,17.26-22.24,25.84-33.41,1.35-1.76,1.56-5.17,5.2-4.1Z" transform="translate(-0.75 -109.41)"/><path class="cls-118" d="M238,499.24c.76-2.13,2.42-3.6,3.76-5.34,4.47-5.81,8.77-11.77,12.79-17.89a142.39,142.39,0,0,1,12.95-16.39,5.08,5.08,0,0,1,4.28-1.68l2.21.28c.61,2.66-1.67,3.91-2.91,5.54-7.48,9.82-15,19.58-22.43,29.47-1.75,2.35-3.11,5-5,7.33-.82,1-1.45,2.45-3.2,1.54Z" transform="translate(-0.75 -109.41)"/><path class="cls-119" d="M351.6,224c13.47,2.17,25.4,5.88,31.65,19.13-4.71-1.78-9.55-3.58-14.37-5.42-3.66-1.39-7.42-2.6-10.92-4.34S353.55,227.6,351.6,224Z" transform="translate(-0.75 -109.41)"/><path class="cls-119" d="M207.67,446.92l-13.25,11.93c-1.72,1.55-2.11,1-2.67-1.14C189,447,198.61,438.93,209.36,441c3.9.75.86,2.79.4,4.29A3.73,3.73,0,0,1,207.67,446.92Z" transform="translate(-0.75 -109.41)"/><path class="cls-120" d="M240.48,502.1c3.26-1,4.18-4.32,5.73-6.7,4.48-6.89,9.81-13.11,14.57-19.77C265,469.7,269.58,464,274,458.22l4.49,1.18c-1.08.19-2.11.23-2.8,1.43-5.16,8.93-12.38,16.32-18.44,24.57-4.63,6.3-9.87,12.15-13.84,18.92Z" transform="translate(-0.75 -109.41)"/><path class="cls-121" d="M360.61,272.91A85.14,85.14,0,0,1,338,277.3c2.94-2.2,5.67-4.59,9.28-5.64,2.25-.65,2.69-1.74-.32-3,3.23-1,5.9-1.86,8.61-2.61,4.57-1.28,4.57-1.25,5.65,3.27C360.6,270.42,361.42,271.8,360.61,272.91Z" transform="translate(-0.75 -109.41)"/><path class="cls-122" d="M368.3,241.39c7.86,2,15.52,3.67,19.52,11.59C380.3,255.21,371.61,250.24,368.3,241.39Z" transform="translate(-0.75 -109.41)"/><path class="cls-123" d="M214.27,467.22c-6.09-.91-12.18-1.79-18.26-2.77-.57-.09-1.55-.15-1.48-1.26.12-1.81,5.78-5.29,7.25-4.4,4.21,2.54,8.39,5.12,12.59,7.68Z" transform="translate(-0.75 -109.41)"/><path class="cls-124" d="M403.27,381.11c.83-5.56,3.18-6.72,8.23-4.47a59,59,0,0,1,5.82,3.46C412.32,381.36,407.87,381.19,403.27,381.11Z" transform="translate(-0.75 -109.41)"/><path class="cls-125" d="M360.7,216.16c.86.27,1.82.42,2.35,1.39a24.2,24.2,0,0,1,1.51,2.51c.62,1.55,3.21,3.06,2.47,3.9-1.42,1.62-3.52-.58-5.43-.61-.78,0-1.53-.71-2.33-1-1.31-.5-3.23-.63-2.9-2.55C356.74,217.62,358.86,217,360.7,216.16Z" transform="translate(-0.75 -109.41)"/><path class="cls-126" d="M359.81,467.12a63.48,63.48,0,0,1-20,0Z" transform="translate(-0.75 -109.41)"/><path class="cls-127" d="M323.92,550.7l20.29,0A58.84,58.84,0,0,1,323.92,550.7Z" transform="translate(-0.75 -109.41)"/><path class="cls-128" d="M290.36,538.53c3.14,1.93,6.62.44,9.9.93.66.1,1.61-.21,1.66.85,0,.58-.69.53-1.16.62-3.37-1.54-6.93-.32-10.38-.75-.57-.07-1.68.49-1.52-.8C289,538.67,289.78,538.68,290.36,538.53Z" transform="translate(-0.75 -109.41)"/><path class="cls-129" d="M302.27,269.24a5.53,5.53,0,0,1,0-7.58Z" transform="translate(-0.75 -109.41)"/><path class="cls-130" d="M289,535v-6.75A4.36,4.36,0,0,1,289,535Z" transform="translate(-0.75 -109.41)"/><path class="cls-131" d="M283.91,361.87a9.92,9.92,0,0,1,6.23-4.69.77.77,0,0,1,1,.09l-6.72,5.22C284.26,362.28,284.09,362.07,283.91,361.87Z" transform="translate(-0.75 -109.41)"/><path class="cls-132" d="M292.67,529.75c2.43,2,2.35,4,.06,6Z" transform="translate(-0.75 -109.41)"/><path class="cls-133" d="M397,381.08c1.79-1.11.56-3,1.1-4.4,2,.5,1.39,2.1,1.25,3.33S398,381.18,397,381.08Z" transform="translate(-0.75 -109.41)"/><path class="cls-134" d="M176.84,611.11c0,1.51,0,3,0,4.53C174.69,614.12,174.71,612.61,176.84,611.11Z" transform="translate(-0.75 -109.41)"/><path class="cls-135" d="M372.5,466.38c-2.67,1.4-5.53.33-8.28.62C366.9,465.68,369.73,466.44,372.5,466.38Z" transform="translate(-0.75 -109.41)"/><path class="cls-136" d="M328.38,351.37l8.19-.08c-2.53,1.77-5.42.19-8.07.87a.6.6,0,0,1-.22-.51C328.3,351.46,328.34,351.37,328.38,351.37Z" transform="translate(-0.75 -109.41)"/><path class="cls-137" d="M337.58,467c-2.26-.25-4.63.72-6.78-.63C333.08,466.43,335.42,465.68,337.58,467Z" transform="translate(-0.75 -109.41)"/><path class="cls-138" d="M307.33,370.79l7-.06C312,371.66,309.66,372,307.33,370.79Z" transform="translate(-0.75 -109.41)"/><path class="cls-139" d="M314.32,549.91c2,.3,4.1-.69,5.95.68C318.27,550.52,316.18,551.26,314.32,549.91Z" transform="translate(-0.75 -109.41)"/><path class="cls-140" d="M207.67,446.92a2,2,0,0,1,2.09-1.62l.76.78a2.26,2.26,0,0,1-2.19,1.58Z" transform="translate(-0.75 -109.41)"/><path class="cls-141" d="M342.74,300.52c-1.09.15-1.49-.38-1.5-1.42s.44-1.55,1.48-1.55C342.72,298.54,342.73,299.53,342.74,300.52Z" transform="translate(-0.75 -109.41)"/><path class="cls-142" d="M347.94,550.6c1.66-1.33,3.57-.46,5.37-.64C351.64,551.2,349.75,550.55,347.94,550.6Z" transform="translate(-0.75 -109.41)"/><path class="cls-143" d="M328.38,351.37l.12.79a1.24,1.24,0,0,1,.05.43L325,352C325.94,350.76,327.24,351.51,328.38,351.37Z" transform="translate(-0.75 -109.41)"/><path class="cls-144" d="M342.72,337.15c-.18-1.21.48-2.88-1.65-3,.61-.75,1.59-1.19,2.1-.36A2.76,2.76,0,0,1,342.72,337.15Z" transform="translate(-0.75 -109.41)"/><path class="cls-145" d="M341.25,340.37c0-1.08-.3-2.3,1.35-2.48C342.75,339,342.85,340.16,341.25,340.37Z" transform="translate(-0.75 -109.41)"/><path class="cls-146" d="M401.74,263.86a1.69,1.69,0,0,1,1.32,2.39C401.67,266,401.49,265,401.74,263.86Z" transform="translate(-0.75 -109.41)"/><path class="cls-147" d="M197,576.7c.3,1.21,0,2.07-1.33,2.38C195.43,577.9,195.65,577,197,576.7Z" transform="translate(-0.75 -109.41)"/><path class="cls-148" d="M279.2,348.42c-1.4,1.21-3.06.45-4.6.6C276,347.94,277.63,348.35,279.2,348.42Z" transform="translate(-0.75 -109.41)"/><path class="cls-149" d="M286.65,347.68c-1.46,1.2-3.16.45-4.76.59C283.36,347.17,285,347.62,286.65,347.68Z" transform="translate(-0.75 -109.41)"/><path class="cls-150" d="M279.27,363.14c1.15-1.09,2.57-.48,3.88-.61C282,363.83,280.59,363.11,279.27,363.14Z" transform="translate(-0.75 -109.41)"/><path class="cls-151" d="M167.2,273.5c.68-.66,1.51-.87,2,.05.38.75-.49.81-1,.92Z" transform="translate(-0.75 -109.41)"/><path class="cls-152" d="M360.61,272.91c.17-1.22-.44-2.56.6-3.63C361.18,270.52,362,271.89,360.61,272.91Z" transform="translate(-0.75 -109.41)"/><path class="cls-153" d="M1294.75,364.7c-3-.24-6.11.76-9-.63C1288.73,364.08,1291.8,363.52,1294.75,364.7Z" transform="translate(-0.75 -109.41)"/><path class="cls-154" d="M1309.51,364.09c-2.16,1.12-4.36.81-6.58.21Z" transform="translate(-0.75 -109.41)"/><path class="cls-155" d="M1316.23,363.34c-1.58,1.3-3.45.39-5.16.66C1312.68,362.92,1314.48,363.28,1316.23,363.34Z" transform="translate(-0.75 -109.41)"/><path class="cls-156" d="M1210.17,310.93c-1.24-1.41-.46-3.08-.61-4.64C1210.61,307.73,1210.23,309.35,1210.17,310.93Z" transform="translate(-0.75 -109.41)"/><path class="cls-157" d="M1211.65,314.71c-1.82-.58-1.9-1.33-.22-2.26C1211.51,313.2,1211.58,314,1211.65,314.71Z" transform="translate(-0.75 -109.41)"/><path class="cls-158" d="M1282.57,363.58a3,3,0,0,1-3.57-.23Z" transform="translate(-0.75 -109.41)"/><path class="cls-159" d="M1431.27,142.19c3.07-1.45,6.32-.59,9.46-.57,3.54,0,7.14-.76,10.63.49Z" transform="translate(-0.75 -109.41)"/><path class="cls-160" d="M1596.34,349.13a24.29,24.29,0,0,1,0,12.61Z" transform="translate(-0.75 -109.41)"/><path class="cls-161" d="M1594.1,341.62c1.54.09,1.39,1.23,1.39,2.26C1594.05,343.73,1593.91,342.77,1594.1,341.62Z" transform="translate(-0.75 -109.41)"/><path class="cls-162" d="M1664.08,819.46c1.11,14.38,1.91,28.75,1.24,43.22-.52,11.43-6.1,17.86-16.83,20.57-15,3.79-30.09,5.72-45.26,1.7-11-2.92-19.75-8.8-24.19-20.12-3.82-9.73-3-19,.21-28.64,3.59-10.76,10.26-19.23,18.81-26.06,13.9-11.1,30.17-15.33,47.86-14.7,4.81.17,9.31,1,13.43,3.55,1.54,1,2.68,1.94,2.71,4,0,3,.5,5.94.78,8.91.74,1,.57,2.18.6,3.31C1663.58,816.66,1663.06,818.18,1664.08,819.46Z" transform="translate(-0.75 -109.41)"/><path class="cls-163" d="M1664.08,819.46c-2.22-.74-1.26-2.49-1.25-3.94a.83.83,0,0,1,1.28.31Z" transform="translate(-0.75 -109.41)"/><path class="cls-164" d="M1664.11,815.83l-1.28-.31c0-1.2,0-2.39,0-3.59C1665.07,812.64,1664.08,814.4,1664.11,815.83Z" transform="translate(-0.75 -109.41)"/><path class="cls-162" d="M76,742.38c1-4.94,4.7-8.28,7.23-12.28,3-4.79,6.72-9.17,10-13.78,5-6.87,10.25-13.55,14.67-20.77,3.19-5.2,6.59-10.24,9.94-15.33a26.44,26.44,0,0,1,6.2-6.62c4.85-3.64,5.47-3.68,9,1.14a106.21,106.21,0,0,1,8.55,13.56c4.73,9.06,9,18.38,13.56,27.52,4.15,8.24,8.33,16.46,11.54,25.15,1.18,3.18.27,4.69-3,5.72-6.65,2.1-13.49,2.15-20.29,2.28-12.93.24-25.84.25-38.75,1.39a101.58,101.58,0,0,1-23.8-1.12c-2-.3-3.89-.8-4.86-2.87A3.67,3.67,0,0,1,76,742.38Z" transform="translate(-0.75 -109.41)"/><path class="cls-165" d="M76,742.38l0,4C73.84,745.06,73.9,743.73,76,742.38Z" transform="translate(-0.75 -109.41)"/><path class="cls-162" d="M483.15,781.45c-.53,7.56-1.13,15.12-1.52,22.69-.1,1.89-.91,2-2.3,1.7a5.25,5.25,0,0,1-2.13-.6c-3.73-3.11-7.15-1.55-11.17-.2-6.86,2.31-14.08.53-21.09-.09-10.56-.94-20.77-3.68-29.94-9.17-15.83-9.47-23.54-21.92-17.61-40.35,2.25-7,7.17-12.75,12.61-17.65,16.08-14.5,35.6-20,56.75-20.69,6.27-.2,12.27.89,16.79,6.22a10.89,10.89,0,0,1,2.6,5.9c1.49,11.18.37,22.34-.4,33.5-.33,4.71-.85,9.4-1.29,14.11C483.25,778.14,484.33,780.12,483.15,781.45Z" transform="translate(-0.75 -109.41)"/><path class="cls-166" d="M483.15,781.45c.05-1.65-1-3.61,1.3-4.63C484.37,778.46,485.33,780.39,483.15,781.45Z" transform="translate(-0.75 -109.41)"/><path class="cls-162" d="M1749.37,842.4c-.42-8.08,3.13-18.22,9.93-26.73,8.35-10.45,19.17-17.21,33.27-16.89,2.13.05,4.36-.77,5.21-2.24,2.63-4.5,7.12-4.7,11.23-5.26,15.48-2.11,30.52-.15,44.56,6.8a43.28,43.28,0,0,1,19.23,18.09c4.69,8.51,8.16,17.2,5.72,26.94-1.51,6-4.73,11.52-8.38,16.53q-4.68,6.42-9.92,12.49c-7.75,9-17.19,14.65-28.82,16.41s-23.22,2.86-34.91,1.9c-11.24-.92-21.08-5.69-30.47-11.7C1753.81,870.93,1749.47,859.33,1749.37,842.4Z" transform="translate(-0.75 -109.41)"/><path class="cls-162" d="M1464.86,889.73c-11.4-.15-20.2-1.93-27.66-7.62-6-4.55-9.12-11.67-3.79-19.52,5.62-8.26,13.23-13.26,22.7-15.76,7.63-2,14.52-6.43,22.59-7,5-.36,10.07-1.54,15.18-.32,6.48,1.55,10.22,5.21,10.69,11.82,1.19,16.38-8.29,31.45-26.46,36.25C1473.05,888.92,1467.94,889.9,1464.86,889.73Z" transform="translate(-0.75 -109.41)"/><path class="cls-162" d="M1074.3,816.39c1.9-4.74,6-7.6,9.45-11,6.78-6.87,14.3-12.66,23.85-15.32,11.37-3.16,22.6-3.93,33.75,1,7.27,3.18,11.52,8.48,12.26,16.45a5.85,5.85,0,0,1,.06,5.37c-.6,4.37-4,5.31-7.5,5.88-8.62,1.42-17.35.64-26,1-12.78.5-25.55,1.49-38.35,1.22-2.64,0-5.53.34-7.57-2.08A2.07,2.07,0,0,1,1074.3,816.39Z" transform="translate(-0.75 -109.41)"/><path class="cls-167" d="M1153.67,812.8l-.06-5.37C1155.76,809.2,1156,811,1153.67,812.8Z" transform="translate(-0.75 -109.41)"/><path class="cls-168" d="M1074.3,816.39c0,.8-.06,1.61-.08,2.41-.8,0-1.35-.26-1.32-1.17S1073.61,816.56,1074.3,816.39Z" transform="translate(-0.75 -109.41)"/><path class="cls-162" d="M757.55,808.55c-7.73-.28-15.53-1.72-22.89-6-9.76-5.68-10.44-18.37-.91-25.38,11.83-8.7,25.38-13.46,39.59-16.2,7.11-1.38,14.24-.84,20.57,3.8a9.48,9.48,0,0,1,3.9,6.8c.76,5.73.31,11.14-3.87,15.93-2.69,3.09-4.22,7.15-6.63,10.51-4.15,5.76-10.59,7.66-17,9.32A52.55,52.55,0,0,1,757.55,808.55Z" transform="translate(-0.75 -109.41)"/><path class="cls-169" d="M1062.44,282.91c-.24,9.21-5,15-12.16,18.78-14.22,7.52-28.73,7.62-42.2-1.26-14.21-9.38-13.67-24.62.16-34.41a35.48,35.48,0,0,1,21-6.26c11.76.08,22.81,3.13,30.24,13.56C1061.69,276.41,1062,280,1062.44,282.91Z" transform="translate(-0.75 -109.41)"/><path class="cls-170" d="M254.58,314c-5.43-4.59-11.06-9-15.53-14.68,6.59,1.12,11.64,5.23,17.08,8.53,6.12,4.41,12.1,9,17.19,14.58.24.27.59.47.75.78.63,1.26,2.11,2.67,1,3.95-.83,1-2.5.23-3.85-.07-2.88-.66-4.25-3.25-6.42-4.8C261.22,319.71,258,316.74,254.58,314Z" transform="translate(-0.75 -109.41)"/><path class="cls-171" d="M270.45,292.19c-5.13-2.38-10.77-3.6-15.63-6.79,6-1.46,11.35,1.43,17,2.38l21.59,7.46c.69.24,1.39.48,2.07.76,1.14.46,2,1.4,1.78,2.54-.34,1.57-1.77.87-2.79.74-8-1-15.38-4.17-22.9-6.83A8.08,8.08,0,0,0,270.45,292.19Z" transform="translate(-0.75 -109.41)"/><path class="cls-171" d="M238.14,331.14c-4.88-5.95-10.43-11.5-12.08-19.52,3.86,2,6.36,5.35,9.28,8.29,2.21,2.23,3.82,5,6.58,6.72.87,3.1,4.1,4.84,4.68,8.11.14.81.78,1.78-.21,2.32a2.12,2.12,0,0,1-2.37-.51C242,334.77,240.1,333,238.14,331.14Z" transform="translate(-0.75 -109.41)"/><path class="cls-172" d="M260.66,249.82a29.91,29.91,0,0,1,8.75,1.34c1.85.64,2.28,1.84.72,2.88-5.06,3.4-10.48,5.37-16.74,3.47-1.91-.58-3.21-1.64-3.17-3.54s1.63-2.88,3.47-3.31A21.3,21.3,0,0,1,260.66,249.82Z" transform="translate(-0.75 -109.41)"/><path class="cls-4" d="M437.58,223.61c-2,1.74-5,3.36-.45,5.7.84.43,1.08,1.61,1.11,2.66.09,3.11-.81,6.43,2.4,8.94-3.56-.32-4.82-3.14-6.54-4.93-5.71-5.89-12.55-10.37-18.59-15.82-1.25-1.13-2.72-2.09-2.38-3.83.3-1.58,2.1-1.36,3.37-1.77,1.1-.36,2.63-.27,3-1.78s-1.17-2-2-2.82a137.32,137.32,0,0,0-21.84-15.83,9.88,9.88,0,0,1-3.79-3.9L402,194.52c5.71,2.44,11.94,1.78,17.87,2.93a16.37,16.37,0,0,1,6.22,2.31,2.11,2.11,0,0,1,1.06,1.43,20.25,20.25,0,0,1,.17,3.65,12.9,12.9,0,0,1-.67,4.13,2.6,2.6,0,0,1-1.25,1.94,5.76,5.76,0,0,0-1.34,3.74,3.64,3.64,0,0,0,0,4.53c.3,3,2.76,4.16,4.7,5.8a1.59,1.59,0,0,0,2.32,0c2.36-2.78,6.24-2.82,8.86-5.07.86-1.64,2-3,4-3a3.75,3.75,0,0,1,1.06.19,1.39,1.39,0,0,1,.93,1.2c-.32.74-.81,1.17-1.67.93-1.18.52-3.85.17-1.59,2.71.13.86,1,1,1.5,1.48a1.58,1.58,0,0,1,.21,2.29,1.33,1.33,0,0,1-2.21-.14C441,224.07,439.15,224.14,437.58,223.61Z" transform="translate(-0.75 -109.41)"/><path class="cls-173" d="M422.48,231.15c-6.21-5.06-13.55-8.52-19.57-13.91-1.41-1.27-3.33-2.29-3-4.24s2.49-1.67,4-2.05c.83-.21,2-.27,2.08-1.24.12-1.4-1.19-2.22-2.17-2.8-5.52-3.26-11.1-6.41-16.71-9.5-2.7-1.49-5.48-2.84-8.29-4.14-.94-.44-2.06-.67-1.58-2,.41-1.11,1.54-.86,2.54-1,4.44-.58,7.54,1.51,10.78,4.27,6.09,5.19,13.73,8.18,19.95,13.29,1.29,1.06,2.93,2,2.5,3.71s-2.42,1.32-3.85,1.56c-1.17.2-2.81-.36-3.29,1.09s1.14,2,1.94,2.88c4.77,5.22,11.06,8.57,16.29,13.22C424.11,231.68,423.37,231.55,422.48,231.15Z" transform="translate(-0.75 -109.41)"/><path class="cls-174" d="M425.38,210.91c.12-.73.25-1.47.37-2.2a4.35,4.35,0,0,1,2.77-.93c1-.09,2.11-.18,2.42-1.35.36-1.37-.62-2-1.68-2.55-.44-.22-.9-.41-1.33-.67-.79-.46-.93-1.41-1.55-2l-.3-1.45c3.69-.2,7.05.26,8.5,4.39a3.46,3.46,0,0,1,.06,3.94C432.57,211.85,430.22,212.56,425.38,210.91Z" transform="translate(-0.75 -109.41)"/><path class="cls-175" d="M445,217.64l-.62,0c-.53-.51-1.33-.7-1.65-1.45,1.92-2.41,4.23-3.24,7.09-1.71,1.7.92,3.26,2,2.62,4.29s-2.68,2.36-4.48,2.49a3.57,3.57,0,0,1-3.65-2l1.41-.93c.51-.53,1.35-.57,1.79-1.18-.26-1-.56,0-.84,0C446.13,217.53,445.42,217.22,445,217.64Z" transform="translate(-0.75 -109.41)"/><path class="cls-176" d="M437.58,223.61c3-2.14,4.43.42,5.93,2.29,2.13-2.09-2-2.3-.84-4,2.64.56,3.78,2.13,3.2,4.82-.43,2.07-2,2.4-3.69,2.17C439.16,228.5,437,227.18,437.58,223.61Z" transform="translate(-0.75 -109.41)"/><path class="cls-177" d="M426.39,257.21a6.78,6.78,0,0,1-4.55-3c1.05-2.76,2.74-4.48,6-3.71l2.26,1.51C432.12,256.08,428.28,256,426.39,257.21Z" transform="translate(-0.75 -109.41)"/><path class="cls-178" d="M433.18,213.25c2.61-1.62,5.1-2,7.31.67-2.62,1.6-2.2,3.23.55,5-2.15,1-3.94.49-5.65.61C432.22,218.27,431.82,216.07,433.18,213.25Z" transform="translate(-0.75 -109.41)"/><path class="cls-179" d="M385.12,201.15c.93.11,1.95-.24,3,.74l-11.52,7c-.13-2,1.09-2,1.86-2.39,1.5-.66,1.53-1.66.54-2.55-2.5-2.23-.86-3.27,1.05-4.33a.54.54,0,0,1,.64.14c.71,1-.75,2.74.71,3.24S383.89,201.82,385.12,201.15Z" transform="translate(-0.75 -109.41)"/><path class="cls-180" d="M436,219.23h4.68c-1.79-1.27-3.83-1.39-3.57-3.21s1.78-2.16,3.38-2.1c1.18.31,1.33,1.63,2.19,2.25a1.46,1.46,0,0,1,1.65,1.45c-2.16-.56-2.55,2.28-4.41,2.29l-3.9-.06c-.24-.13-.32-.26-.25-.4S435.92,219.23,436,219.23Z" transform="translate(-0.75 -109.41)"/><path class="cls-181" d="M385.12,201.15c-.48,2.32-2.4,3.58-4.22,3.07-2.28-.63-.84-3-.84-4.6C382.25,198.47,384.06,198.58,385.12,201.15Z" transform="translate(-0.75 -109.41)"/><path class="cls-182" d="M421.17,244.56a1.39,1.39,0,0,1,1.4.71c1.12,1.39.2,2.3-.78,3.18a1,1,0,0,1-.48.54,2.88,2.88,0,0,1-1.85.73c-1.78-.38-3.06-1.49-2.62-3.26C417.36,244.34,419.25,244.15,421.17,244.56Z" transform="translate(-0.75 -109.41)"/><path class="cls-183" d="M422.48,231.15a1.73,1.73,0,0,0,1.61-.82c3.24,2.47,6.47,4.94,9,8.22.31.78-.05.9-.72.72Z" transform="translate(-0.75 -109.41)"/><path class="cls-184" d="M404.65,225.89c-6,2-6,2-3.81,6.61-1.95-1.21-4.11-2-3.18-4.41C398.8,225.17,401.55,225.9,404.65,225.89Z" transform="translate(-0.75 -109.41)"/><path class="cls-185" d="M421.79,248.45c.3-1,1.07-2,.78-3.18,2.48.64,4.1-1.65,6.34-2C426.73,245.39,425.14,248.15,421.79,248.45Z" transform="translate(-0.75 -109.41)"/><path class="cls-186" d="M421.17,244.56c-1.4.48-3.38.15-3.73,2.18-.25,1.46.78,2.17,2.18,2.34.57,1.66-.05,2-1.56,1.41-.66-1.66-3.48-2.79-1.69-5C417.5,244,419.22,243,421.17,244.56Z" transform="translate(-0.75 -109.41)"/><path class="cls-187" d="M375.53,187c1-.38,1.92-.43,1.07,1-1.55,2.6-3.24,5.12-5.14,8.08-.44-2.08,1.37-3.2,1-4.75.57-1.36.8-2.93,2.34-3.67A4.27,4.27,0,0,0,375.53,187Z" transform="translate(-0.75 -109.41)"/><path class="cls-188" d="M375.42,187.9l-3,3.47a6.78,6.78,0,0,0-2.87-2,.62.62,0,0,1,.06-1C371.55,188,373.39,186.61,375.42,187.9Z" transform="translate(-0.75 -109.41)"/><path class="cls-189" d="M392,217.2a1.25,1.25,0,0,1-1.63.26c1.67-1.88-2.41-2.67-.89-4.31,1.11-1.2,2.62-1.07,3.92,0a4.47,4.47,0,0,0-.9,2.63C392.37,216.27,392.19,216.73,392,217.2Z" transform="translate(-0.75 -109.41)"/><path class="cls-190" d="M426.39,257.21c1.57-1.49,4.57-1.95,3.69-5.18,2.67,1,2.34,2.45.44,3.84A6.62,6.62,0,0,1,426.39,257.21Z" transform="translate(-0.75 -109.41)"/><path class="cls-191" d="M415.86,243.06l-3.6,3c-1-.93.75-2.38-1.13-2.95-1.69-.5-.27-1.15.28-1.64C413,241.83,414.58,242,415.86,243.06Z" transform="translate(-0.75 -109.41)"/><path class="cls-192" d="M415.86,243.06c-1.55-.34-3.59.72-4.45-1.58,1.49-2.93,2.9.4,4.35.05a1,1,0,0,1,.11,1.51Z" transform="translate(-0.75 -109.41)"/><path class="cls-193" d="M387.48,210.21l6.15-3.08c-1.66,2.72-3.66,3.5-5.27,4.52-1.32.83-.7-.85-.85-1.47Z" transform="translate(-0.75 -109.41)"/><path class="cls-194" d="M413.92,237.49c-2.62-1.19-4.84,0-7.09,1C408.87,236.18,411,234.42,413.92,237.49Z" transform="translate(-0.75 -109.41)"/><path class="cls-195" d="M427.82,250.52c-3-.35-4.15,2.21-6,3.71C422.09,250.36,423.92,249.22,427.82,250.52Z" transform="translate(-0.75 -109.41)"/><path class="cls-196" d="M392.08,220c2-3.16,4.83-3.48,8.08-2.29l0,0c-2.8.24-5.66.32-7.4,3.08A1.43,1.43,0,0,1,392.08,220Z" transform="translate(-0.75 -109.41)"/><path class="cls-4" d="M436,219.23c0,.21,0,.42,0,.62-4.08-.84-5.18-3.39-2.84-6.6C432.79,215.87,432.63,218.38,436,219.23Z" transform="translate(-0.75 -109.41)"/><path class="cls-191" d="M415.87,243c0-.5-.07-1-.11-1.51l1-.26c1.12-.25-.35-2.51,1.61-2.07.31.07.79.42.79.64,0,1.21-1.14,1.73-1.76,2.56C417.15,242.79,416.41,242.84,415.87,243Z" transform="translate(-0.75 -109.41)"/><path class="cls-193" d="M387.51,210.18c-1.33,0-3,.37-3.53-1.29s.79-2.41,2-3.06c.24.17.33.34.25.52s-.15.27-.23.27c-1.83,2.13.24,2.69,1.44,3.59Z" transform="translate(-0.75 -109.41)"/><path class="cls-197" d="M392.79,223.63c.17.17.47.33.5.52.24,1.46,2.39,1.48,2.29,3.1,0,.21-.6.61-.78.54-1.61-.57-1.79-2.24-2.56-3.47a3.1,3.1,0,0,1-.22-.71C392.28,223.28,392.54,223.28,392.79,223.63Z" transform="translate(-0.75 -109.41)"/><path class="cls-198" d="M392,217.2c0-.58-.05-1.15-.07-1.73a3.81,3.81,0,0,1,2.18-1.72l2.83-.32C395.83,215.67,393.43,215.8,392,217.2Z" transform="translate(-0.75 -109.41)"/><path class="cls-199" d="M424,219.18c-2.25-1.51-2.25-3,0-4.53Z" transform="translate(-0.75 -109.41)"/><path class="cls-200" d="M400.16,217.69c2,.31,3.69,1,4.07,3.29-1.48-.95-3.15-1.66-4-3.33Z" transform="translate(-0.75 -109.41)"/><path class="cls-200" d="M381.18,196.94c-1.5-1-2.81-2.31-4.92-1.82C378.51,194.14,380.29,194.42,381.18,196.94Z" transform="translate(-0.75 -109.41)"/><path class="cls-201" d="M418.06,250.49a1.35,1.35,0,0,0,1.56-1.41l1.69-.09c-.44,1.35-1.16,2.55-2.61,2.84S417.09,251.51,418.06,250.49Z" transform="translate(-0.75 -109.41)"/><path class="cls-202" d="M404.53,233.24c1-1.67,2.7-2.22,4.6-3.53-.79,2.72-2.56,3.28-4.39,3.77Z" transform="translate(-0.75 -109.41)"/><path class="cls-203" d="M434.64,208.09l-.06-3.93C436.85,205.44,436.84,206.75,434.64,208.09Z" transform="translate(-0.75 -109.41)"/><path class="cls-204" d="M394.15,213.75a2.18,2.18,0,0,1-2.18,1.72c-1.09-1.78-.46-2.45,1.47-2.29Z" transform="translate(-0.75 -109.41)"/><path class="cls-205" d="M375.42,187.9c-2-.49-3.81.53-5.73.74q-.39-.24-.3-.54c.05-.21.12-.31.19-.31a15,15,0,0,1,5.95-.76C375.49,187.32,375.46,187.61,375.42,187.9Z" transform="translate(-0.75 -109.41)"/><path class="cls-206" d="M369.58,187.79c0,.28.07.56.11.85a4.2,4.2,0,0,0-.11.71,5.5,5.5,0,0,0-4.17-.72C366.71,187.5,368.19,187.9,369.58,187.79Z" transform="translate(-0.75 -109.41)"/><path class="cls-201" d="M386,206.62c0-.26,0-.53,0-.79l3.85-1.37A4.51,4.51,0,0,1,386,206.62Z" transform="translate(-0.75 -109.41)"/><path class="cls-207" d="M432.34,239.27l.72-.72a3.77,3.77,0,0,1,1.36,2.42C433,241.19,432.86,240,432.34,239.27Z" transform="translate(-0.75 -109.41)"/><path class="cls-208" d="M397.24,210.53c-1.47.5-2.11.5-2.56,0a.45.45,0,0,1,.33-.77A11.77,11.77,0,0,1,397.24,210.53Z" transform="translate(-0.75 -109.41)"/><path class="cls-209" d="M374.93,199.1c.59.15,1.11.47,1.16,1.14,0,.43-.37.57-.73.37a2.69,2.69,0,0,1-1-.86C374.1,199.34,374.51,199.15,374.93,199.1Z" transform="translate(-0.75 -109.41)"/><path class="cls-210" d="M392.79,223.63l-.77,0,.06-3.63.72.75C392.79,221.7,392.79,222.66,392.79,223.63Z" transform="translate(-0.75 -109.41)"/><path class="cls-211" d="M404.74,233.48c-.51.89-1.1,1.63-2.51,1.06a3.64,3.64,0,0,1,2.3-1.29Z" transform="translate(-0.75 -109.41)"/><path class="cls-212" d="M247.12,468.56a13.38,13.38,0,0,0-5.27-1.55c-1,.7-1.8.78-2.28-.56-.42-1.09-1.46-1.22-2.37-1.54-1.67-.57-4.47-.22-2.37-3.53.7-1.09-.75-1.55-1.71-1.81-4-1.09-8-2.18-12.06-3.55,4.93.79,9.39-2.14,14.28-1.54,2,.94,2.49,3,3.57,4.6-.4.75-2.24.36-1.77,1.3.77,1.52,1.68,3.13,3.63,3.75,1.66.53,2.14-.41,2.66-1.54.68-.18.94.08.8.76.74,1.87,3.43,2.13,3.67,4.42C248.08,468.47,247.88,468.79,247.12,468.56Z" transform="translate(-0.75 -109.41)"/><path class="cls-213" d="M235.18,466.29c-1.79.16-3.38-.63-5.06-1-2.88-.69-4-1.67-.76-3.84-5-1.76-10-2-15.44-3,1.16-1.34,2.13-2.19,3.37-1.68,4.06,1.66,8.45,1.86,12.58,3.1,1.31.39,3.3.71,1.21,2.84-1,1,.23,1.53,1,1.87a33,33,0,0,0,3.13,1.09c.22.14.29.28.22.42S235.25,466.29,235.18,466.29Z" transform="translate(-0.75 -109.41)"/><path class="cls-214" d="M238.91,459.08c-3.22,0-1.9-3.43-3.57-4.6,1.77-.43,3.51-.59,4.64,1.2C240.92,457.15,240.23,458.25,238.91,459.08Z" transform="translate(-0.75 -109.41)"/><path class="cls-215" d="M244.23,463.35l-.8-.76-2.06-1.47c-1.22-.87-.78-1.29.42-1.5,1.25.23,2.22,1.84,3.74.76l.19-1.77c1.15-.29,2.76-1.94,2.81,1a4.51,4.51,0,0,0-2.83,3q.28.28.15.48c-.09.13-.18.19-.26.19Z" transform="translate(-0.75 -109.41)"/><path class="cls-216" d="M239.57,466.45c.64.68,1.48.53,2.29.56.33.33.91.63,1,1,.13.82-.66.54-1,.46-1.27-.31-2.65-.4-3.67-1.41-.25-.15-.34-.31-.26-.47s.15-.26.24-.26Z" transform="translate(-0.75 -109.41)"/><path class="cls-217" d="M248.53,459.57c-.42-1.82-1.89-.58-2.81-1,1.19-1.93,2.72-1.4,3.83-.17C250.37,459.33,249.16,459.42,248.53,459.57Z" transform="translate(-0.75 -109.41)"/><path class="cls-218" d="M245.53,460.38c-1.54,1.2-2.77.85-3.74-.76.27-.75.55-2.16,1.44-.64A2.46,2.46,0,0,0,245.53,460.38Z" transform="translate(-0.75 -109.41)"/><path class="cls-219" d="M245.59,463.28a3.74,3.74,0,0,1,.1-.67c.47.16.93.3,1.39.48s1.42-1.84,1.69.14c.16,1.19-1,.71-1.59.8A1.67,1.67,0,0,1,245.59,463.28Z" transform="translate(-0.75 -109.41)"/><path class="cls-220" d="M247.12,468.56l.78-.79,2.38,1.55C248.59,470.1,247.88,469.25,247.12,468.56Z" transform="translate(-0.75 -109.41)"/><path class="cls-221" d="M238.14,466.34a3.59,3.59,0,0,1,0,.73c-1-.05-2.17.19-3-.78v-.62Z" transform="translate(-0.75 -109.41)"/><path class="cls-222" d="M291.16,357.27l-1-.09c3-2.92,6.78-4.28,10.71-5.34a.47.47,0,0,1,.16.52c-.07.16-.13.25-.19.25Z" transform="translate(-0.75 -109.41)"/><path class="cls-223" d="M316.45,349.85c1.34.3,3.31-1,3.82,1.45l-11.19-.08a.62.62,0,0,1,.3-1C311.73,349.94,314.14,350.64,316.45,349.85Z" transform="translate(-0.75 -109.41)"/><path class="cls-224" d="M300.82,352.61l0-.77c.83-1,2-.49,3-.6a.57.57,0,0,1,.89.11C303.63,352.48,302.14,352.29,300.82,352.61Z" transform="translate(-0.75 -109.41)"/><path class="cls-225" d="M309.1,350.54c0,.23,0,.46,0,.68l-1.56,0c-.58-.66-1.65.09-2.16-.76,1.1-1.08,2.48-.54,3.76-.64.25.17.33.32.24.48S309.19,350.54,309.1,350.54Z" transform="translate(-0.75 -109.41)"/><path class="cls-226" d="M305.36,350.48c.72.25,1.68-.17,2.16.76l-2.82.11-.89-.11Z" transform="translate(-0.75 -109.41)"/><path class="cls-227" d="M309.1,350.54a3.3,3.3,0,0,1,0-.7h7.34C314.11,351.2,311.54,350.23,309.1,350.54Z" transform="translate(-0.75 -109.41)"/><path class="cls-228" d="M1029.83,271.46a18.76,18.76,0,0,1,10.88,2.54c3.71,2.08,6.08,5,6,9.49,0,4.29-2.3,7.26-5.94,9.16-6.9,3.62-13.89,4-20.89.15-3.88-2.11-6.57-5.46-6.35-9.73.24-4.91,3.67-8.22,8.18-10.13C1024.37,271.83,1027.11,271,1029.83,271.46Z" transform="translate(-0.75 -109.41)"/><path class="cls-229" d="M427.86,202.72a5.45,5.45,0,0,1,3.16.89c1.31.75,1.38,2,1.19,3.24s-1.13,1.82-2.38,1.84l-4.08,0,.66-3.69C427.12,204.4,426.94,203.21,427.86,202.72Z" transform="translate(-0.75 -109.41)"/><path class="cls-230" d="M427.86,202.72c-.06,1,0,2.14-1.45,2.3l0-3.81A1.46,1.46,0,0,1,427.86,202.72Z" transform="translate(-0.75 -109.41)"/><path class="cls-231" d="M448.69,217.68c-.78,1.3-2,.47-3,.61l-.72-.65,1.46-.79C447.54,216.12,448.16,216.78,448.69,217.68Z" transform="translate(-0.75 -109.41)"/><path class="cls-232" d="M448.69,217.68l-2.28-.83c.2-.73-.2-2,1.08-1.83S448.73,216.58,448.69,217.68Z" transform="translate(-0.75 -109.41)"/><path class="cls-6" d="M440.88,215.83c-.31,1.14-1.14,1.15-2,.89-.17-.06-.36-.77-.26-.84A1.66,1.66,0,0,1,440.88,215.83Z" transform="translate(-0.75 -109.41)"/></svg>