<svg id="Camada_1" data-name="Camada 1" xmlns="http://www.w3.org/2000/svg" xmlns:xlink="http://www.w3.org/1999/xlink" viewBox="0 0 2775.12 1254.1"><defs><style>.cls-1{fill:url(#Gradiente_sem_nome_47);}.cls-2{fill:#74ac22;}.cls-3{fill:#0594e4;}.cls-4{fill:#00391c;}.cls-5{fill:#01391d;}.cls-6{fill:#74aa24;}.cls-7{fill:#75ac25;}.cls-8{fill:#7aa650;}.cls-9{fill:#7caa49;}.cls-10{fill:#7da853;}.cls-11{fill:#7aa552;}.cls-12{fill:#75a150;}.cls-13{fill:#7daa4b;}.cls-14{fill:#739f51;}.cls-15{fill:#77a156;}.cls-16{fill:#85b04f;}.cls-17{fill:#739f4f;}.cls-18{fill:#86b34b;}.cls-19{fill:#83b43d;}.cls-20{fill:#77a44c;}.cls-21{fill:#7cab43;}.cls-22{fill:#86b448;}.cls-23{fill:#78a54d;}.cls-24{fill:#82ae4e;}.cls-25{fill:#85b24c;}.cls-26{fill:#81ae4e;}.cls-27{fill:#7aa74b;}.cls-28{fill:#79a551;}.cls-29{fill:#82ae4c;}.cls-30{fill:#84b440;}.cls-31{fill:#6f9c4d;}.cls-32{fill:#6d994f;}.cls-33{fill:#729e51;}.cls-34{fill:#7aa64f;}.cls-35{fill:#7ea566;}.cls-36{fill:#77a351;}</style><radialGradient id="Gradiente_sem_nome_47" cx="1417.76" cy="341.7" r="244.85" gradientUnits="userSpaceOnUse"><stop offset="0" stop-color="#ea961b" stop-opacity="0.94"/><stop offset="0.5" stop-color="#f49e12"/><stop offset="1" stop-color="#f49e12" stop-opacity="0.67"/></radialGradient></defs><title>logo v2</title><circle class="cls-1" cx="1417.76" cy="341.7" r="244.85"/><path class="cls-2" d="M2193.55,929.57c-3.78,4.76-4.26,10.5-4,16.1,2,39.73,4.19,79.45,6.38,119.17a31.36,31.36,0,0,0,1,4.72,2.7,2.7,0,0,0,3-.59c16.09-17,36.79-23.73,59.33-26.36a31.74,31.74,0,0,0,10-1.26,69.61,69.61,0,0,1,19.18,0c3.82,1.32,7.81,1.15,11.75,1.31,23.31,3.28,45.34,9.86,63.93,25.08,11.9,9.75,20,21.7,21.36,37.48,0,4.81,0,9.63,0,14.44-3,21.29-12.07,38.86-31.32,50a21.87,21.87,0,0,1-10.77,3.17c-6.24.07-12.49.06-18.72,0-14.17-1.64-27.77-4.37-35.53-18.37a32.61,32.61,0,0,1-2.33-4.21c-.84-2.25-2.14-4.82-.44-6.86,2.1-2.51,5-1.29,7.44-.15,7.3,3.42,14.56,6.69,22.62,8.29,8.32,1.64,15.41-.27,22-5.07,9.6-7,16.8-15.75,20.35-27.21,1.52-3.2,1.86-6.42,0-9.64-6.19-17.6-20.16-26.24-36.84-31.62-5.34-1.73-10.92-2.66-16.22-4.55a88.25,88.25,0,0,0-25.09,0c-16.47,3.26-32.53,7.47-46.38,17.71-20,14.78-36,32.32-41.74,57.37-.36,1.57-.75,3.17-2.28,4.1-6.82,4.77-7.05,12.37-7.89,19.42-6.56,54.87,11.71,102.67,42.53,146.77,9.31,13.3,20.51,24.93,32.65,35.73,4.12,3.66,8.08,4.64,13.21,2.56,12.23-5,24.43-10,36.86-14.41,22.76-8,46-13.31,70.47-12.22,32.3,1.44,58.31,16.45,80.89,38,20.49,19.51,40.08,40,60.07,60,64.51,64.6,142.92,100.42,233,112.12,9.89,1.28,19.71,3.09,29.1,6.61a35.72,35.72,0,0,1,12.46,7.31c3.82,3.63,3.58,6.86-.31,10.14-7.68,6.46-17,8.33-26.5,8.18-36.7-.58-73.39-1.64-110.08-2.39q-112.17-2.27-224.3,1.76c-39.64,1.43-79.27,3.36-118.88,5.47-57.66,3.08-115.24,7.45-172.76,12.49q-85.86,7.51-171.71,15.15c-65.31,5.73-130.58,11.78-195.93,17-62.93,5-125.86,10.24-189,12.59a164.36,164.36,0,0,1-85.6-20,49.2,49.2,0,0,1-25.83-41.4c-.85-17.15,3.32-33.14,10.77-48.28,8.66-17.6,18.14-34.81,27-52.35,8.23-16.39,15-33.35,17.62-51.66,6.24-43.52-11.74-70.81-54.37-82.63-19.64-5.45-39.73-7.62-60-7.94-63.52-1-126.72,3.67-189.79,10.75-161.48,18.14-320.57,50-479.59,82.36-89.24,18.17-178,38.68-267.73,54.47-18.84,3.31-37.59,7.16-56.63,9.23,5.6-13.22,13.69-25,22-36.55,2.55-3.54,6.86-2.19,10.26.1,4.69,3.15,9.22,6.51,14.27,9.12,10.63,5.49,20.56,4.63,30.33-2.29,20.29-14.36,32.68-33.75,38-57.83a27.38,27.38,0,0,0,0-12.73c-.65-2.73-2.26-5.66.16-8.41,56.11-25,283.44-175,336.94-228,43.8-43.44,86.07-88.42,131.64-130.11a791.87,791.87,0,0,1,121-91.5c37.11-22.72,77-38.71,121.34-40.42,12.77-3.57,25.16-.52,37.56,2.14a219.38,219.38,0,0,1,33.22,11.71c9.18,5.13,18.44,10.14,27,16.26,8.88,6.31,17.42,13.07,26,19.73C1377,945,1384.52,951,1391.11,958a155.62,155.62,0,0,1,16.42,14.8q26.17,26.34,50.22,54.63c4.56,4.78,8.18,10.35,12.92,15,5.59,7.87,11.87,15.2,17.75,22.84,6.41,9.2,13.18,18.13,19.47,27.4s12.76,18.41,19.39,27.43a274,274,0,0,0,17.79,25.44c3.13,4.51,6.11,9.13,9.66,13.35,2.61,5.19,7.63,9.07,8.47,15.25a2.17,2.17,0,0,0,.17.78c33.61,50.3,63.33,103.39,103,149.37,54.81,63.51,124.67,101.6,207.28,116,82.31,14.37,162.68,3.63,241.91-20.15,6-1.79,4.52-4,2.59-7.74-22-42.94-31.55-88.24-26.7-136.49,3.21-32,10.15-63.13,18.91-93.89,12.31-43.21,21.6-87.1,29.37-131.24,5.19-29.45,4.6-59.52,1.65-89.32-1.28-12.82-7.21-24.18-15.46-34.08-17.57-21.07-39.19-36-66.41-41.68a49.77,49.77,0,0,0-30.78,3.58c-7.75,6.11-17.22,9.23-25.11,15.38-14.3,11.13-24.41,24.51-28.42,42.26a28.26,28.26,0,0,1-1.93,5.25,35.54,35.54,0,0,0-.12,17.36c4.27,18.08,17.28,26.24,34.19,30a10.5,10.5,0,0,0,8.49.18c17.74-3.22,31.24-11.64,36.83-29.78a10.92,10.92,0,0,0-.06-10.45c-2.53-9.29-9.41-13.63-18.07-16.21-3.39-1-7.56-1.49-8-6.39,3-3.6,7.25-2.16,11-2.57,20.3,1.92,33.73,13.64,36.75,32,0,5.34.07,10.69,0,16-3.49,25.45-28.43,46.06-56.64,46.82-6.26,0-12.52,0-18.78,0-19.88-1.26-34.89-11.43-46.36-26.73-7.37-9.83-13.15-20.81-13.77-33.64,0-3.72.27-7.47-.84-11.11a13.72,13.72,0,0,1,0-5c1.11-3.55.88-7.22.89-10.87,2.73-26.84,18.47-45.06,39.89-59.36a57.16,57.16,0,0,1,12.83-6.76,22.9,22.9,0,0,0,7.73-2c22.14-9.33,45-14.71,69.24-12a9.68,9.68,0,0,0,3.07-.71c15.13.58,28.57,6.56,41.71,13.28,9.15,4.68,16.9,11.41,24.8,17.87,3.16,2.58,5.25,2.4,6.37-1.7,7-25.53,21.58-47.87,30.51-72.59,3-8.36,4.61-17.08,7.4-25.46a19.17,19.17,0,0,0,.05-13.21c-3.18-13.09-12.75-19.51-24.65-23.5-2.9-1.52-5.76-2-8.52.32-7.29,5.46-6.91,13.26-6.5,21.08a3.34,3.34,0,0,1-3,1.94c-8.11-2.92-12-9.51-12.47-17.27-.56-8.23,4.59-14,11.68-17.94a26.09,26.09,0,0,1,11.57-3.32c5.28,0,10.56-.07,15.84,0,18.73,2.47,28.15,16,36.26,30.82a91.65,91.65,0,0,1,5.67,13.22c1.22,3.66,3.61,2.3,5.91,1.32,7.53-2.45,15.31-3.72,23.11-4.94,3.8-.13,7.65.28,11.36-1a19.07,19.07,0,0,1,7.71,0c3.2,1.1,6.54,1.06,9.87,1,16.93,2.32,29.33,11.34,37.72,25.9,6.22,10.81,3.18,20.92-3.85,30s-16.68,15.1-27.27,19.49c-2.54,1-5.69,2-7.45-.5-1.94-2.79.89-5,2.71-6.79a74.39,74.39,0,0,0,14.29-19.34,11.27,11.27,0,0,0,.15-11.35c-4.9-8.25-13-11.77-21.61-14.48a19.2,19.2,0,0,0-12.24.13c-8.26,2.48-16.38,5.13-23.71,9.92-18.37,12-25.83,30.16-29.18,50.66-.56,3.43-.53,7-2.06,10.17-1.5,2.73-1.32,5.65-.88,8.59a17.7,17.7,0,0,1-1.23,5.51c-1.1,2.93-.72,6-.85,9a23.21,23.21,0,0,1-.6,4.63,18.09,18.09,0,0,0-.07,11.27C2190.57,919.15,2194.43,923.87,2193.55,929.57Z" transform="translate(-21.26 -628.7)"/><path class="cls-3" d="M541.07,1595.62c121.83-26.85,242.21-59.73,363.67-88.13,74.54-17.44,149.37-33.47,225.26-44a1013.17,1013.17,0,0,1,132.29-9.87c23.24-.18,46.42,1.23,68.6,9.26,29.2,10.58,39.93,31,32.28,60.93a141.11,141.11,0,0,1-11.18,28.46c-12.72,25.29-28.51,48.76-43.62,72.63-10.08,15.91-20.32,31.73-28.83,48.57a105.85,105.85,0,0,0-7.72,18.58c-4.37,15.29-.32,27.53,12.73,36.79,16.07,11.4,34.83,15.5,53.8,18.44,47.49,7.34,95.24,6,143,3.83,56.64-2.57,113-8.23,169.21-15.36,51.62-6.55,103.1-14.2,154.66-21.25,46.22-6.32,92.42-12.7,138.69-18.64q68.6-8.82,137.32-16.75c42.87-4.93,85.76-9.71,128.72-13.73,64.49-6,129.11-10.68,193.91-11.42,59.14-.67,118.27,1,176.86,9.59,44.26,6.45,88.12,15.42,130.94,28.72,4.31,1.34,8.46,3.2,13.77,5.24-4,3.28-7.73,3-11.21,3.12-22.75,1.14-45.28-1.89-67.86-3.67-27.51-2.17-55-1.55-82.55-.58-44,1.55-87.91,3.6-131.84,5.84-42.29,2.15-84.52,5.09-126.62,10-33.21,3.88-66.71,5-99.91,9.31-81.29,10.44-162.58,20.79-243.16,36-123.4,23.36-246,50.51-369.24,74.67-57.69,11.3-115.93,19.28-174.25,26.65-43.62,5.51-87.13,11.91-131,15.15s-87.88,5-131.25-5.55a103.67,103.67,0,0,1-24.8-9.56c-18.17-9.81-30.81-31.06-26.09-55,6.45-32.66,18.51-63.39,30.91-94,11.49-28.4,24.75-56.06,35.59-84.73,10-26.44,5.07-35-22.8-38.15-28.44-3.26-56.64.32-84.64,4.47-126.41,18.75-249.25,52.78-371.72,88-173.45,50-345.57,104.1-515.1,166.21-22.28,8.17-43.92,17.79-65.88,26.7a203.57,203.57,0,0,1-24.47,8.29c-30.38,8-57.17-8-64.48-38.62a58.76,58.76,0,0,1-.75-25.43,57.4,57.4,0,0,1,6.58-17.24c5.46-9.87,12-15.81,17.88-21,6.42-5.72,9.55-7,25.56-18.42l17.11-12.19c1.85-3,4.66-1.94,7.27-1.79,16.94,1,33.85,1.39,50.75-1,28.69-4.08,42.64-22.81,39-51.43-2.54-20.12-11.39-37.31-22.45-53.7-2.73-4.05-5.4-8.05-6.21-13-.48-2.9-1.2-5.92,1.85-8,4.77-1.19,9.05.79,13.36,2.16,8.89,2.83,15.69,3.87,17.69,4.46,10.71,3.19,21.55,3.88,39.52,5,39.9,2.53,59.12-.42,71-.31,7.27.07,14.38-2.65,21.7-1.1,3.92.93,5.39,4.11,6.8,7.37,6,13.82,7.65,28.44,8,43.3s4,28.53,15.48,39.34c8.77,8.23,19.26,11.83,30.72,12.79a141,141,0,0,0,62-8.31c12.37-4.64,24.58-9.65,35.55-17.2,33.06-22.76,52.1-54.23,58.88-93.5C549.62,1559.52,68.07,1754,541.07,1595.62Z" transform="translate(-21.26 -628.7)"/><path class="cls-4" d="M1991.58,875.7c-1.63,3.87-5.54,4.88-8.72,6.67-20.36,11.5-33.94,28.37-41,50.57-.85,2.67-.71,5.27-.93,7.91-1.75,3.75.23,7.9-1.29,11.68,0,1.68,0,3.36,0,5.05,1.6,3.66-.59,7.78,1.36,11.4,2.24,26.78,28,56.38,56.48,58a66.79,66.79,0,0,0,21.81,0c25.09-.65,50.18-21.38,53-43.79a40.82,40.82,0,0,0,0-17.67c-2.41-15.92-16.6-28.12-33.91-29.17-8.71-1.38-8.71-1.38-11.45,1.66,2.44,1,4.8,2.48,7.35,3.1,10,2.45,17.73,7.36,20.39,18a23.41,23.41,0,0,1,0,11c-5.7,19.6-20.07,28.32-39.2,31.07a12.88,12.88,0,0,1-7.91,0c-6.67-2-13.68-3-19.68-6.85-8.82-5.74-13.91-14-16.19-24.08a58.9,58.9,0,0,1,0-19.29c6.05-27.68,23.27-46.28,48.08-58.63,2.85-1.41,6-2.15,9-3.21,29.38,14,53.62,33.92,69,63,16.3,30.86,17,63.11,6.34,95.93-9.09,23.38-25.16,41.61-43.26,58.34-8.37,7.74-18.05,13.57-28.34,18.3-18.63,8.54-37.68,15.81-58.46,17.21-5.12.39-10.32-.51-15.35,1.15a23.68,23.68,0,0,1-9.34,0c-5-1.7-10.31-.76-15.45-1.15-39.65-4.6-74-20.3-101.89-49-18.51-19.09-29.31-42.24-34-68.29a32,32,0,0,0-1.31-10.33c-1-7.17-1.14-14.27,1.81-21.09,7-63.23,55.39-103.22,112.36-116.42C1937.55,870.71,1964.55,869.37,1991.58,875.7Z" transform="translate(-21.26 -628.7)"/><path class="cls-5" d="M2190.3,888.09c.36-1.71.71-3.41,1.07-5.12.08-2.58-.55-5.21.49-7.73,2.51-11.7,3.63-23.7,8.63-34.86,9.52-21.23,25.77-33.68,48.42-38.2a31.89,31.89,0,0,1,12.69,0c9.23,2.42,17.7,6,22.78,14.77a22.71,22.71,0,0,1,.11,12.89c-4.16,9.78-11.2,17.45-19.06,24.53.89.71,1.26,1.26,1.58,1.23,15.15-1.43,35.51-19.58,38.24-34a18.88,18.88,0,0,0-2.25-12.44c-7.73-14.57-19.59-23.75-36.24-26.2-3.06-1.87-6.68.21-9.78-1.37l-8.28,0c-3.67,1.67-7.82-.54-11.46,1.37l-24.12,5c-2.74,1.36-4.91.88-6.4-1.91-6-16.35-13.42-31.72-29.76-40.54-2.82-1.52-5.59-3.3-9.05-2.9a45.17,45.17,0,0,0-18.31-.06c-9.37,1.33-16.93,5.31-19.71,14.94s3.63,15.31,10,20.77c2.11.83,2.88.25,2.09-2-4.09-9.16-.57-16.16,6.32-22.21,3.16-1.56,6.38-1.12,9.62-.31,12.78,3.91,22.94,10.59,26.25,24.56a37.64,37.64,0,0,1,0,14.27c-5.18,28-19.58,52.49-30.57,78.27-3.35,7.84-5.75,16.1-8.48,24.2-1,3.12-2,5-5.3,1.74-18.1-18.4-40.29-29.16-65.34-34.54a15.86,15.86,0,0,1-2.9-1.29c-17.58-34.82-25.28-70.68-10.69-108.59,10.78-28,29.79-49.42,54.73-65.84,2.68-1.76,5.32-3.6,8-5.41,5.21-5.76,12.36-8.13,19.23-11,15.65-6.61,32.08-10,48.86-12,11.49-.17,23-.09,34.43-.07,34.38,4,66.52,13.79,93.75,36.14,24.93,20.47,38.74,46.9,43,78.77,3.9,29-2.67,56.06-13.19,82.66-1.23,3.11-3.56,5.34-5.27,8-12.52,11.45-25,22.94-37.57,34.34-20.24,18.34-44.72,26.3-71.41,28.6-14,1.21-27.95,2-41.93,3a39.63,39.63,0,0,1-4.95-15.81,24.25,24.25,0,0,1,0-11.08L2189,898C2190.71,894.9,2188.7,891.26,2190.3,888.09Z" transform="translate(-21.26 -628.7)"/><path class="cls-4" d="M2360.77,1118.94c-3,12.32-10.68,21.31-20.45,28.93s-20.58,8.17-31.79,3.9c-7-2.65-13.76-5.76-20.72-8.7.21,14.48,15,26.08,35,27.73a61.83,61.83,0,0,0,21.58-.13c6.57-.2,11.88-3.58,16.44-7.66,12.58-11.27,20.64-25.14,22.56-42.17a37.94,37.94,0,0,0,0-16.53c-1.23-14.86-9.24-25.91-20.43-34.83a107.87,107.87,0,0,0-54.4-23.18c-2.6-.34-5.13-1.1-7.7-1.66-3.62-1.93-7.74.28-11.4-1.37l-21.28,0c-3.25,1.44-6.92-.36-10.15,1.29-17.1,2.31-33.32,6.92-47.45,17.4a93.47,93.47,0,0,0-10.73,9.62c-4.37,4.41-1.76-1.55-2.87-2,18.84-34.53,47.27-57.8,84.19-71,28.64-10.21,58.12-9.71,87.76-6.38,7.21.82,14.48,1.42,21.21,4.53,48.88,23,86.33,55.45,94.12,112.58.18,8,.12,16.06.07,24.07-5.91,52.5-50.22,102.95-99,112.67-69,20.4-137.26-.36-177.65-54.06-8.84-11.76-15.46-24.54-17.4-39.35.94-18,10.81-31.73,22-44.61,17.78-20.49,40.31-32.54,67.32-36.09a129.64,129.64,0,0,1,27.43,0c10.27,2.84,20.72,5,30.23,10.24,11.29,6.23,19.37,15,23.56,27.23A17.14,17.14,0,0,1,2360.77,1118.94Z" transform="translate(-21.26 -628.7)"/><path class="cls-6" d="M1949.37,1141.51h9.17c5.35-1.9,11.06.53,16.41-1.38,49-6.32,87.94-29.34,116-70.15,4.81-7,5.79-16.28,13.09-21.78-4.59,43.84-26,77.45-63.08,100.87-66,41.68-157.49,33.9-214.9-18.91-35.24-32.41-47.12-72.77-35.61-119.46,1.53-6.18,3.69-12.33,8-17.38q.06,10.92.11,21.83c1.6,3.19-.28,6.84,1.31,10,12,56.78,48.62,90.46,102.21,108.15,10,3.31,20.16,6.52,30.9,6.81C1938.32,1142,1944,1139.62,1949.37,1141.51Z" transform="translate(-21.26 -628.7)"/><path class="cls-7" d="M2190.49,660.19a199.67,199.67,0,0,0-66.86,21c4.23-11.32,12.73-19.14,22.14-26,20.61-15,44.34-21.7,69.18-24.86,62.92-8,113.52,13.16,147.61,66.85,31.53,49.65,27.34,100.45-2,150-3.94,6.66-8.71,13-16.13,16.46,5.72-15.84,11.82-31.46,15-48.2,11.71-61.21-18.22-117-76-140.83-18-7.46-36.82-11.66-56-14.63C2215.17,659.23,2202.82,658.89,2190.49,660.19Z" transform="translate(-21.26 -628.7)"/><path class="cls-6" d="M2482.25,1107.83c-3.35-15.71-8-30.88-15.74-45.16-11.69-21.57-30-36.16-50.08-49l-26.37-16.9c34,4,64.49,15.51,90.88,38.16,49,42.06,54.25,113.83,10.59,161.21-28.49,30.94-64.35,47-106.23,50,17.41-7.65,35-15,49.63-27.6,25.75-22.16,42.06-49.64,47.28-83.37A114.64,114.64,0,0,0,2482.25,1107.83Z" transform="translate(-21.26 -628.7)"/><path class="cls-8" d="M2307,1072h-27.43A54.36,54.36,0,0,1,2307,1072Z" transform="translate(-21.26 -628.7)"/><path class="cls-9" d="M2344.34,1170.67c-7.18,2.79-14.37,2.43-21.57.13Z" transform="translate(-21.26 -628.7)"/><path class="cls-10" d="M2019.23,1027.05a32.84,32.84,0,0,1-21.81,0Z" transform="translate(-21.26 -628.7)"/><path class="cls-11" d="M2026.87,938.08c-1.64,0-3.58-.29-3.69-2s1.93-1.31,3-1.2c4,.38,8.38-1.29,12.11,1.55C2034.54,937.19,2030.31,935,2026.87,938.08Z" transform="translate(-21.26 -628.7)"/><path class="cls-12" d="M1971.62,951.12q0,9.64,0,19.29A27.16,27.16,0,0,1,1971.62,951.12Z" transform="translate(-21.26 -628.7)"/><path class="cls-13" d="M2149.6,742.57a22.87,22.87,0,0,1,18.31.06Z" transform="translate(-21.26 -628.7)"/><path class="cls-14" d="M2072.23,965.59a20.49,20.49,0,0,1,0,17.67Q2072.24,974.43,2072.23,965.59Z" transform="translate(-21.26 -628.7)"/><path class="cls-15" d="M2383.32,1104.31a19.8,19.8,0,0,1,0,16.53Q2383.34,1112.57,2383.32,1104.31Z" transform="translate(-21.26 -628.7)"/><path class="cls-16" d="M2184.21,792.62V778.35A16.25,16.25,0,0,1,2184.21,792.62Z" transform="translate(-21.26 -628.7)"/><path class="cls-17" d="M2284.49,829.85q0-6.45-.11-12.89C2287,821.23,2286.88,825.53,2284.49,829.85Z" transform="translate(-21.26 -628.7)"/><path class="cls-18" d="M2261.6,802.19h-12.69A13.05,13.05,0,0,1,2261.6,802.19Z" transform="translate(-21.26 -628.7)"/><path class="cls-19" d="M2188.59,902.69q0,5.55,0,11.08A10.49,10.49,0,0,1,2188.59,902.69Z" transform="translate(-21.26 -628.7)"/><path class="cls-20" d="M2289.39,1043.27c3.86,0,7.87-1.35,11.4,1.37C2297,1044.21,2292.91,1046,2289.39,1043.27Z" transform="translate(-21.26 -628.7)"/><path class="cls-21" d="M1940.94,969c-2.8-3.52-1.34-7.55-1.36-11.4C1942.32,961.11,1940.5,965.18,1940.94,969Z" transform="translate(-21.26 -628.7)"/><path class="cls-22" d="M2054.62,970.25q0-5.52,0-11A10.27,10.27,0,0,1,2054.62,970.25Z" transform="translate(-21.26 -628.7)"/><path class="cls-21" d="M1939.59,952.53c0-3.94-1.43-8,1.29-11.68C1940.54,944.75,1942.3,948.88,1939.59,952.53Z" transform="translate(-21.26 -628.7)"/><path class="cls-23" d="M2237.24,783c3.55-2.68,7.59-1.37,11.46-1.37C2245.16,784.38,2241.06,782.55,2237.24,783Z" transform="translate(-21.26 -628.7)"/><path class="cls-24" d="M2158,753.79l-9.62.31C2151.46,751.43,2154.68,751.61,2158,753.79Z" transform="translate(-21.26 -628.7)"/><path class="cls-25" d="M2360.77,1118.94c0-3.17,0-6.33,0-9.5A7.66,7.66,0,0,1,2360.77,1118.94Z" transform="translate(-21.26 -628.7)"/><path class="cls-26" d="M2258,1044.59c3.13-2.43,6.71-1.37,10.16-1.29C2265,1045.92,2261.36,1044.26,2258,1044.59Z" transform="translate(-21.26 -628.7)"/><path class="cls-27" d="M2257,781.62c3.33,0,6.83-1.3,9.78,1.37C2263.49,782.63,2259.94,784.23,2257,781.62Z" transform="translate(-21.26 -628.7)"/><path class="cls-28" d="M2190.3,888.09c.1,3.39.94,6.88-1.35,9.95C2189.29,894.71,2187.6,891.11,2190.3,888.09Z" transform="translate(-21.26 -628.7)"/><path class="cls-29" d="M2191.86,875.24c.32,2.61.5,5.21-.49,7.73C2190.11,880.31,2189.67,877.69,2191.86,875.24Z" transform="translate(-21.26 -628.7)"/><path class="cls-30" d="M2007.51,1001.34l7.91,0A5.85,5.85,0,0,1,2007.51,1001.34Z" transform="translate(-21.26 -628.7)"/><path class="cls-31" d="M2206.72,786.07c1.79,1.79,4.1,1.83,6.4,1.91C2210.16,790.09,2207.6,790.86,2206.72,786.07Z" transform="translate(-21.26 -628.7)"/><path class="cls-32" d="M2142,776.31c1.44,1.29,3,3.21,1.35,4.57-1.15,1-2.52-1.31-3.44-2.6Z" transform="translate(-21.26 -628.7)"/><path class="cls-33" d="M1949.37,1141.51c-5.46-.46-11.14,1.58-16.4-1.37C1938.48,1140.11,1944.07,1139.09,1949.37,1141.51Z" transform="translate(-21.26 -628.7)"/><path class="cls-33" d="M1975,1140.13c-5.26,3-10.93.91-16.4,1.38C1963.85,1139.16,1969.44,1140.07,1975,1140.13Z" transform="translate(-21.26 -628.7)"/><path class="cls-34" d="M1799.86,1025.18c-2.67-3.05-1-6.67-1.31-10C1800.83,1018.25,1800,1021.76,1799.86,1025.18Z" transform="translate(-21.26 -628.7)"/><path class="cls-35" d="M2190.49,660.19c12.33-2.68,24.68-2.11,37-.17Z" transform="translate(-21.26 -628.7)"/><path class="cls-36" d="M2482.25,1107.83a52.65,52.65,0,0,1,0,27.27Q2482.24,1121.47,2482.25,1107.83Z" transform="translate(-21.26 -628.7)"/><polygon class="cls-2" points="420.73 822.18 513.74 750.14 569 801.93 462.59 848.21 420.73 822.18"/><polygon class="cls-3" points="301.69 1000.42 519.8 966.92 542.59 1039.48 481.99 1079.37 420.73 1104.17 385.66 1113.47 328.18 1113.47 307.98 1080.92 289.33 1048.37 301.69 1000.42"/><path class="cls-3" d="M87.4,1846c68.6-7.46,153.87-68.59,147.6-141-3.36-38.85-33.21-82.83-68.55-86.08-37.89-3.49-66.56,41.25-99.25,92.28C46.14,1744,6.65,1805.68,28.41,1833.61,41.93,1851,73.07,1847.57,87.4,1846Z" transform="translate(-21.26 -628.7)"/></svg>